<svg width="2389" height="540" viewBox="0 0 2389 540" fill="none" xmlns="http://www.w3.org/2000/svg">
<g clip-path="url(#clip0_543_11733)">
<rect width="1280" height="540" fill="#FFFCEF"/>
<line x1="-4.18847e-08" y1="171.998" x2="1839.76" y2="171.998" stroke="#2B76D9" stroke-opacity="0.3" stroke-width="0.958209"/>
<line x1="-4.18847e-08" y1="210.327" x2="1839.76" y2="210.326" stroke="#2B76D9" stroke-opacity="0.3" stroke-width="0.958209"/>
<line x1="-4.18847e-08" y1="248.655" x2="1839.76" y2="248.655" stroke="#2B76D9" stroke-opacity="0.3" stroke-width="0.958209"/>
<line x1="-4.18847e-08" y1="191.162" x2="1839.76" y2="191.162" stroke="#2B76D9" stroke-opacity="0.3" stroke-width="0.958209"/>
<line x1="-4.18847e-08" y1="133.67" x2="1839.76" y2="133.67" stroke="#2B76D9" stroke-opacity="0.3" stroke-width="0.958209"/>
<line x1="-4.18847e-08" y1="95.3422" x2="1839.76" y2="95.342" stroke="#2B76D9" stroke-opacity="0.3" stroke-width="0.958209"/>
<line x1="-4.18847e-08" y1="57.0131" x2="1839.76" y2="57.0129" stroke="#2B76D9" stroke-opacity="0.3" stroke-width="0.958209"/>
<line x1="-4.18847e-08" y1="229.491" x2="1839.76" y2="229.49" stroke="#2B76D9" stroke-opacity="0.3" stroke-width="0.958209"/>
<line x1="-4.18847e-08" y1="267.82" x2="1839.76" y2="267.82" stroke="#2B76D9" stroke-opacity="0.3" stroke-width="0.958209"/>
<line x1="-4.18847e-08" y1="325.311" x2="1839.76" y2="325.311" stroke="#2B76D9" stroke-opacity="0.3" stroke-width="0.958209"/>
<line x1="-4.18847e-08" y1="363.64" x2="1839.76" y2="363.64" stroke="#2B76D9" stroke-opacity="0.3" stroke-width="0.958209"/>
<line x1="-4.18847e-08" y1="401.968" x2="1839.76" y2="401.968" stroke="#2B76D9" stroke-opacity="0.3" stroke-width="0.958209"/>
<line x1="-4.18847e-08" y1="440.296" x2="1839.76" y2="440.296" stroke="#2B76D9" stroke-opacity="0.3" stroke-width="0.958209"/>
<line x1="-4.18847e-08" y1="478.624" x2="1839.76" y2="478.624" stroke="#2B76D9" stroke-opacity="0.3" stroke-width="0.958209"/>
<line x1="-4.18847e-08" y1="18.685" x2="1839.76" y2="18.6848" stroke="#2B76D9" stroke-opacity="0.3" stroke-width="0.958209"/>
<line x1="-4.18847e-08" y1="382.804" x2="1839.76" y2="382.804" stroke="#2B76D9" stroke-opacity="0.3" stroke-width="0.958209"/>
<line x1="-4.18847e-08" y1="421.132" x2="1839.76" y2="421.132" stroke="#2B76D9" stroke-opacity="0.3" stroke-width="0.958209"/>
<line x1="-4.18847e-08" y1="459.46" x2="1839.76" y2="459.46" stroke="#2B76D9" stroke-opacity="0.3" stroke-width="0.958209"/>
<line x1="-4.18847e-08" y1="497.789" x2="1839.76" y2="497.789" stroke="#2B76D9" stroke-opacity="0.3" stroke-width="0.958209"/>
<line x1="-4.18847e-08" y1="516.954" x2="1839.76" y2="516.953" stroke="#2B76D9" stroke-opacity="0.3" stroke-width="0.958209"/>
<line x1="-4.18847e-08" y1="536.118" x2="1839.76" y2="536.117" stroke="#2B76D9" stroke-opacity="0.3" stroke-width="0.958209"/>
<line x1="-4.18847e-08" y1="286.983" x2="1839.76" y2="286.983" stroke="#2B76D9" stroke-opacity="0.3" stroke-width="0.958209"/>
<line x1="-4.18847e-08" y1="306.147" x2="1839.76" y2="306.147" stroke="#2B76D9" stroke-opacity="0.3" stroke-width="0.958209"/>
<line x1="-4.18847e-08" y1="344.475" x2="1839.76" y2="344.475" stroke="#2B76D9" stroke-opacity="0.3" stroke-width="0.958209"/>
<line x1="-4.18847e-08" y1="152.833" x2="1839.76" y2="152.833" stroke="#2B76D9" stroke-opacity="0.3" stroke-width="0.958209"/>
<line x1="-4.18847e-08" y1="114.505" x2="1839.76" y2="114.505" stroke="#2B76D9" stroke-opacity="0.3" stroke-width="0.958209"/>
<line x1="-4.18847e-08" y1="76.1771" x2="1839.76" y2="76.177" stroke="#2B76D9" stroke-opacity="0.3" stroke-width="0.958209"/>
<line x1="-4.18847e-08" y1="37.848" x2="1839.76" y2="37.8479" stroke="#2B76D9" stroke-opacity="0.3" stroke-width="0.958209"/>
<line x1="517.673" y1="-1.04712e-08" x2="517.673" y2="1034.87" stroke="#2B76D9" stroke-opacity="0.3" stroke-width="0.479105"/>
<line x1="1188.42" y1="-1.04712e-08" x2="1188.42" y2="1034.87" stroke="#2B76D9" stroke-opacity="0.3" stroke-width="0.479105"/>
<line x1="556.001" y1="-1.04712e-08" x2="556.001" y2="1034.87" stroke="#2B76D9" stroke-opacity="0.3" stroke-width="0.479105"/>
<line x1="1226.75" y1="-1.04712e-08" x2="1226.75" y2="1034.87" stroke="#2B76D9" stroke-opacity="0.3" stroke-width="0.479105"/>
<line x1="613.493" y1="-1.04712e-08" x2="613.493" y2="1034.87" stroke="#2B76D9" stroke-opacity="0.3" stroke-width="0.479105"/>
<line x1="651.822" y1="-1.04712e-08" x2="651.822" y2="1034.87" stroke="#2B76D9" stroke-opacity="0.3" stroke-width="0.479105"/>
<line x1="690.15" y1="-1.04712e-08" x2="690.15" y2="1034.87" stroke="white" stroke-opacity="0.3" stroke-width="0.479105"/>
<line x1="19.4037" y1="-1.04712e-08" x2="19.4038" y2="1034.87" stroke="#2B76D9" stroke-opacity="0.3" stroke-width="0.479105"/>
<line x1="747.642" y1="-1.04712e-08" x2="747.642" y2="1034.87" stroke="#2B76D9" stroke-opacity="0.3" stroke-width="0.479105"/>
<line x1="76.8964" y1="-1.04712e-08" x2="76.8965" y2="1034.87" stroke="#2B76D9" stroke-opacity="0.3" stroke-width="0.479105"/>
<line x1="785.971" y1="-1.04712e-08" x2="785.971" y2="1034.87" stroke="#2B76D9" stroke-opacity="0.3" stroke-width="0.479105"/>
<line x1="115.225" y1="-1.04712e-08" x2="115.225" y2="1034.87" stroke="#2B76D9" stroke-opacity="0.3" stroke-width="0.479105"/>
<line x1="843.464" y1="-1.04712e-08" x2="843.464" y2="1034.87" stroke="#2B76D9" stroke-opacity="0.3" stroke-width="0.479105"/>
<line x1="172.717" y1="-1.04712e-08" x2="172.717" y2="1034.87" stroke="#2B76D9" stroke-opacity="0.3" stroke-width="0.479105"/>
<line x1="728.478" y1="-1.04712e-08" x2="728.478" y2="1034.87" stroke="#2B76D9" stroke-opacity="0.3" stroke-width="0.479105"/>
<line x1="57.7323" y1="-1.04712e-08" x2="57.7323" y2="1034.87" stroke="#2B76D9" stroke-opacity="0.3" stroke-width="0.479105"/>
<line x1="670.986" y1="-1.04712e-08" x2="670.986" y2="1034.87" stroke="#2B76D9" stroke-opacity="0.3" stroke-width="0.479105"/>
<line x1="0.239552" y1="-1.04712e-08" x2="0.239597" y2="1034.87" stroke="#2B76D9" stroke-opacity="0.3" stroke-width="0.479105"/>
<line x1="632.657" y1="-1.04712e-08" x2="632.658" y2="1034.87" stroke="#2B76D9" stroke-opacity="0.3" stroke-width="0.479105"/>
<line x1="594.329" y1="-1.04712e-08" x2="594.329" y2="1034.87" stroke="#2B76D9" stroke-opacity="0.3" stroke-width="0.479105"/>
<line x1="1265.08" y1="-1.04712e-08" x2="1265.08" y2="1034.87" stroke="#2B76D9" stroke-opacity="0.3" stroke-width="0.479105"/>
<line x1="575.165" y1="-1.04712e-08" x2="575.165" y2="1034.87" stroke="#2B76D9" stroke-opacity="0.3" stroke-width="0.479105"/>
<line x1="1245.91" y1="-1.04712e-08" x2="1245.91" y2="1034.87" stroke="#2B76D9" stroke-opacity="0.3" stroke-width="0.479105"/>
<line x1="536.837" y1="-1.04712e-08" x2="536.837" y2="1034.87" stroke="#2B76D9" stroke-opacity="0.3" stroke-width="0.479105"/>
<line x1="1207.58" y1="-1.04712e-08" x2="1207.58" y2="1034.87" stroke="#2B76D9" stroke-opacity="0.3" stroke-width="0.479105"/>
<line x1="881.792" y1="-1.04712e-08" x2="881.792" y2="1034.87" stroke="#2B76D9" stroke-opacity="0.3" stroke-width="0.479105"/>
<line x1="211.046" y1="-1.04712e-08" x2="211.046" y2="1034.87" stroke="#2B76D9" stroke-opacity="0.3" stroke-width="0.479105"/>
<line x1="824.299" y1="-1.04712e-08" x2="824.299" y2="1034.87" stroke="#2B76D9" stroke-opacity="0.3" stroke-width="0.479105"/>
<line x1="153.553" y1="-1.04712e-08" x2="153.553" y2="1034.87" stroke="#2B76D9" stroke-opacity="0.3" stroke-width="0.479105"/>
<line x1="920.12" y1="-1.04712e-08" x2="920.12" y2="1034.87" stroke="#2B76D9" stroke-opacity="0.3" stroke-width="0.479105"/>
<line x1="249.374" y1="-1.04712e-08" x2="249.374" y2="1034.87" stroke="#2B76D9" stroke-opacity="0.3" stroke-width="0.479105"/>
<line x1="900.956" y1="-1.04712e-08" x2="900.956" y2="1034.87" stroke="#2B76D9" stroke-opacity="0.3" stroke-width="0.479105"/>
<line x1="230.21" y1="-1.04712e-08" x2="230.21" y2="1034.87" stroke="#2B76D9" stroke-opacity="0.3" stroke-width="0.479105"/>
<line x1="939.284" y1="-1.04712e-08" x2="939.284" y2="1034.87" stroke="#2B76D9" stroke-opacity="0.3" stroke-width="0.479105"/>
<line x1="268.538" y1="-1.04712e-08" x2="268.538" y2="1034.87" stroke="#2B76D9" stroke-opacity="0.3" stroke-width="0.479105"/>
<line x1="862.628" y1="-1.04712e-08" x2="862.628" y2="1034.87" stroke="#2B76D9" stroke-opacity="0.3" stroke-width="0.479105"/>
<line x1="191.882" y1="-1.04712e-08" x2="191.882" y2="1034.87" stroke="#2B76D9" stroke-opacity="0.3" stroke-width="0.479105"/>
<line x1="805.135" y1="-1.04712e-08" x2="805.135" y2="1034.87" stroke="#2B76D9" stroke-opacity="0.3" stroke-width="0.479105"/>
<line x1="134.389" y1="-1.04712e-08" x2="134.389" y2="1034.87" stroke="#2B76D9" stroke-opacity="0.3" stroke-width="0.479105"/>
<line x1="766.807" y1="-1.04712e-08" x2="766.807" y2="1034.87" stroke="#2B76D9" stroke-opacity="0.3" stroke-width="0.479105"/>
<line x1="96.0606" y1="-1.04712e-08" x2="96.0606" y2="1034.87" stroke="#2B76D9" stroke-opacity="0.3" stroke-width="0.479105"/>
<line x1="709.314" y1="-1.04712e-08" x2="709.314" y2="1034.87" stroke="#2B76D9" stroke-opacity="0.3" stroke-width="0.479105"/>
<line x1="38.5678" y1="-1.04712e-08" x2="38.5679" y2="1034.87" stroke="#2B76D9" stroke-opacity="0.3" stroke-width="0.479105"/>
<line x1="977.613" y1="-1.04712e-08" x2="977.613" y2="1034.87" stroke="#2B76D9" stroke-opacity="0.3" stroke-width="0.479105"/>
<line x1="306.866" y1="-1.04712e-08" x2="306.866" y2="1034.87" stroke="#2B76D9" stroke-opacity="0.3" stroke-width="0.479105"/>
<line x1="958.449" y1="-1.04712e-08" x2="958.449" y2="1034.87" stroke="#2B76D9" stroke-opacity="0.3" stroke-width="0.479105"/>
<line x1="287.702" y1="-1.04712e-08" x2="287.702" y2="1034.87" stroke="#2B76D9" stroke-opacity="0.3" stroke-width="0.479105"/>
<line x1="1015.94" y1="-1.04712e-08" x2="1015.94" y2="1034.87" stroke="#2B76D9" stroke-opacity="0.3" stroke-width="0.479105"/>
<line x1="345.195" y1="-1.04712e-08" x2="345.195" y2="1034.87" stroke="#2B76D9" stroke-opacity="0.3" stroke-width="0.479105"/>
<line x1="1035.11" y1="-1.04712e-08" x2="1035.11" y2="1034.87" stroke="#2B76D9" stroke-opacity="0.3" stroke-width="0.479105"/>
<line x1="364.359" y1="-1.04712e-08" x2="364.359" y2="1034.87" stroke="#2B76D9" stroke-opacity="0.3" stroke-width="0.479105"/>
<line x1="1073.43" y1="-1.04712e-08" x2="1073.43" y2="1034.87" stroke="#2B76D9" stroke-opacity="0.3" stroke-width="0.479105"/>
<line x1="402.687" y1="-1.04712e-08" x2="402.687" y2="1034.87" stroke="#2B76D9" stroke-opacity="0.3" stroke-width="0.479105"/>
<line x1="1092.6" y1="-1.04712e-08" x2="1092.6" y2="1034.87" stroke="#2B76D9" stroke-opacity="0.3" stroke-width="0.479105"/>
<line x1="421.852" y1="-1.04712e-08" x2="421.852" y2="1034.87" stroke="#2B76D9" stroke-opacity="0.3" stroke-width="0.479105"/>
<line x1="1111.76" y1="-1.04712e-08" x2="1111.76" y2="1034.87" stroke="#2B76D9" stroke-opacity="0.3" stroke-width="0.479105"/>
<line x1="441.016" y1="-1.04712e-08" x2="441.016" y2="1034.87" stroke="#2B76D9" stroke-opacity="0.3" stroke-width="0.479105"/>
<line x1="1130.93" y1="-1.04712e-08" x2="1130.93" y2="1034.87" stroke="#2B76D9" stroke-opacity="0.3" stroke-width="0.479105"/>
<line x1="460.18" y1="-1.04712e-08" x2="460.18" y2="1034.87" stroke="#2B76D9" stroke-opacity="0.3" stroke-width="0.479105"/>
<line x1="1150.09" y1="-1.04712e-08" x2="1150.09" y2="1034.87" stroke="#2B76D9" stroke-opacity="0.3" stroke-width="0.479105"/>
<line x1="479.344" y1="-1.04712e-08" x2="479.344" y2="1034.87" stroke="#2B76D9" stroke-opacity="0.3" stroke-width="0.479105"/>
<line x1="1169.25" y1="-1.04712e-08" x2="1169.25" y2="1034.87" stroke="#2B76D9" stroke-opacity="0.3" stroke-width="0.479105"/>
<line x1="498.508" y1="-1.04712e-08" x2="498.508" y2="1034.87" stroke="#2B76D9" stroke-opacity="0.3" stroke-width="0.479105"/>
<line x1="1054.27" y1="-1.04712e-08" x2="1054.27" y2="1034.87" stroke="#2B76D9" stroke-opacity="0.3" stroke-width="0.479105"/>
<line x1="383.523" y1="-1.04712e-08" x2="383.523" y2="1034.87" stroke="#2B76D9" stroke-opacity="0.3" stroke-width="0.479105"/>
<line x1="996.777" y1="-1.04712e-08" x2="996.777" y2="1034.87" stroke="#2B76D9" stroke-opacity="0.3" stroke-width="0.479105"/>
<line x1="326.031" y1="-1.04712e-08" x2="326.031" y2="1034.87" stroke="#2B76D9" stroke-opacity="0.3" stroke-width="0.479105"/>
</g>
<rect x="0.5" y="0.5" width="1279" height="539" stroke="#BFD4E8"/>
<g clip-path="url(#clip1_543_11733)">
<rect width="1280" height="540" transform="translate(1109)" fill="#FFFCEF"/>
<line x1="1109" y1="171.998" x2="2948.76" y2="171.998" stroke="#2B76D9" stroke-opacity="0.3" stroke-width="0.958209"/>
<line x1="1109" y1="210.327" x2="2948.76" y2="210.326" stroke="#2B76D9" stroke-opacity="0.3" stroke-width="0.958209"/>
<line x1="1109" y1="248.655" x2="2948.76" y2="248.655" stroke="#2B76D9" stroke-opacity="0.3" stroke-width="0.958209"/>
<line x1="1109" y1="191.162" x2="2948.76" y2="191.162" stroke="#2B76D9" stroke-opacity="0.3" stroke-width="0.958209"/>
<line x1="1109" y1="133.67" x2="2948.76" y2="133.67" stroke="#2B76D9" stroke-opacity="0.3" stroke-width="0.958209"/>
<line x1="1109" y1="95.3422" x2="2948.76" y2="95.342" stroke="#2B76D9" stroke-opacity="0.3" stroke-width="0.958209"/>
<line x1="1109" y1="57.0131" x2="2948.76" y2="57.0129" stroke="#2B76D9" stroke-opacity="0.3" stroke-width="0.958209"/>
<line x1="1109" y1="229.491" x2="2948.76" y2="229.49" stroke="#2B76D9" stroke-opacity="0.3" stroke-width="0.958209"/>
<line x1="1109" y1="267.82" x2="2948.76" y2="267.82" stroke="#2B76D9" stroke-opacity="0.3" stroke-width="0.958209"/>
<line x1="1109" y1="325.311" x2="2948.76" y2="325.311" stroke="#2B76D9" stroke-opacity="0.3" stroke-width="0.958209"/>
<line x1="1109" y1="363.64" x2="2948.76" y2="363.64" stroke="#2B76D9" stroke-opacity="0.3" stroke-width="0.958209"/>
<line x1="1109" y1="401.968" x2="2948.76" y2="401.968" stroke="#2B76D9" stroke-opacity="0.3" stroke-width="0.958209"/>
<line x1="1109" y1="440.296" x2="2948.76" y2="440.296" stroke="#2B76D9" stroke-opacity="0.3" stroke-width="0.958209"/>
<line x1="1109" y1="478.624" x2="2948.76" y2="478.624" stroke="#2B76D9" stroke-opacity="0.3" stroke-width="0.958209"/>
<line x1="1109" y1="18.685" x2="2948.76" y2="18.6848" stroke="#2B76D9" stroke-opacity="0.3" stroke-width="0.958209"/>
<line x1="1109" y1="382.804" x2="2948.76" y2="382.804" stroke="#2B76D9" stroke-opacity="0.3" stroke-width="0.958209"/>
<line x1="1109" y1="421.132" x2="2948.76" y2="421.132" stroke="#2B76D9" stroke-opacity="0.3" stroke-width="0.958209"/>
<line x1="1109" y1="459.46" x2="2948.76" y2="459.46" stroke="#2B76D9" stroke-opacity="0.3" stroke-width="0.958209"/>
<line x1="1109" y1="497.789" x2="2948.76" y2="497.789" stroke="#2B76D9" stroke-opacity="0.3" stroke-width="0.958209"/>
<line x1="1109" y1="516.954" x2="2948.76" y2="516.953" stroke="#2B76D9" stroke-opacity="0.3" stroke-width="0.958209"/>
<line x1="1109" y1="536.118" x2="2948.76" y2="536.117" stroke="#2B76D9" stroke-opacity="0.3" stroke-width="0.958209"/>
<line x1="1109" y1="286.983" x2="2948.76" y2="286.983" stroke="#2B76D9" stroke-opacity="0.3" stroke-width="0.958209"/>
<line x1="1109" y1="306.147" x2="2948.76" y2="306.147" stroke="#2B76D9" stroke-opacity="0.3" stroke-width="0.958209"/>
<line x1="1109" y1="344.475" x2="2948.76" y2="344.475" stroke="#2B76D9" stroke-opacity="0.3" stroke-width="0.958209"/>
<line x1="1109" y1="152.833" x2="2948.76" y2="152.833" stroke="#2B76D9" stroke-opacity="0.3" stroke-width="0.958209"/>
<line x1="1109" y1="114.505" x2="2948.76" y2="114.505" stroke="#2B76D9" stroke-opacity="0.3" stroke-width="0.958209"/>
<line x1="1109" y1="76.1771" x2="2948.76" y2="76.177" stroke="#2B76D9" stroke-opacity="0.3" stroke-width="0.958209"/>
<line x1="1109" y1="37.848" x2="2948.76" y2="37.8479" stroke="#2B76D9" stroke-opacity="0.3" stroke-width="0.958209"/>
<line x1="1626.67" y1="-1.04712e-08" x2="1626.67" y2="1034.87" stroke="#2B76D9" stroke-opacity="0.3" stroke-width="0.479105"/>
<line x1="2297.42" y1="-1.04712e-08" x2="2297.42" y2="1034.87" stroke="#2B76D9" stroke-opacity="0.3" stroke-width="0.479105"/>
<line x1="1665" y1="-1.04712e-08" x2="1665" y2="1034.87" stroke="#2B76D9" stroke-opacity="0.3" stroke-width="0.479105"/>
<line x1="2335.75" y1="-1.04712e-08" x2="2335.75" y2="1034.87" stroke="#2B76D9" stroke-opacity="0.3" stroke-width="0.479105"/>
<line x1="1722.49" y1="-1.04712e-08" x2="1722.49" y2="1034.87" stroke="#2B76D9" stroke-opacity="0.3" stroke-width="0.479105"/>
<line x1="1760.82" y1="-1.04712e-08" x2="1760.82" y2="1034.87" stroke="#2B76D9" stroke-opacity="0.3" stroke-width="0.479105"/>
<line x1="1799.15" y1="-1.04712e-08" x2="1799.15" y2="1034.87" stroke="white" stroke-opacity="0.3" stroke-width="0.479105"/>
<line x1="1128.4" y1="-1.04712e-08" x2="1128.4" y2="1034.87" stroke="#2B76D9" stroke-opacity="0.3" stroke-width="0.479105"/>
<line x1="1856.64" y1="-1.04712e-08" x2="1856.64" y2="1034.87" stroke="#2B76D9" stroke-opacity="0.3" stroke-width="0.479105"/>
<line x1="1185.9" y1="-1.04712e-08" x2="1185.9" y2="1034.87" stroke="#2B76D9" stroke-opacity="0.3" stroke-width="0.479105"/>
<line x1="1894.97" y1="-1.04712e-08" x2="1894.97" y2="1034.87" stroke="#2B76D9" stroke-opacity="0.3" stroke-width="0.479105"/>
<line x1="1224.22" y1="-1.04712e-08" x2="1224.22" y2="1034.87" stroke="#2B76D9" stroke-opacity="0.3" stroke-width="0.479105"/>
<line x1="1952.46" y1="-1.04712e-08" x2="1952.46" y2="1034.87" stroke="#2B76D9" stroke-opacity="0.3" stroke-width="0.479105"/>
<line x1="1281.72" y1="-1.04712e-08" x2="1281.72" y2="1034.87" stroke="#2B76D9" stroke-opacity="0.3" stroke-width="0.479105"/>
<line x1="1837.48" y1="-1.04712e-08" x2="1837.48" y2="1034.87" stroke="#2B76D9" stroke-opacity="0.3" stroke-width="0.479105"/>
<line x1="1166.73" y1="-1.04712e-08" x2="1166.73" y2="1034.87" stroke="#2B76D9" stroke-opacity="0.3" stroke-width="0.479105"/>
<line x1="1779.99" y1="-1.04712e-08" x2="1779.99" y2="1034.87" stroke="#2B76D9" stroke-opacity="0.3" stroke-width="0.479105"/>
<line x1="1109.24" y1="-1.04712e-08" x2="1109.24" y2="1034.87" stroke="#2B76D9" stroke-opacity="0.3" stroke-width="0.479105"/>
<line x1="1741.66" y1="-1.04712e-08" x2="1741.66" y2="1034.87" stroke="#2B76D9" stroke-opacity="0.3" stroke-width="0.479105"/>
<line x1="1703.33" y1="-1.04712e-08" x2="1703.33" y2="1034.87" stroke="#2B76D9" stroke-opacity="0.3" stroke-width="0.479105"/>
<line x1="2374.08" y1="-1.04712e-08" x2="2374.08" y2="1034.87" stroke="#2B76D9" stroke-opacity="0.3" stroke-width="0.479105"/>
<line x1="1684.17" y1="-1.04712e-08" x2="1684.17" y2="1034.87" stroke="#2B76D9" stroke-opacity="0.3" stroke-width="0.479105"/>
<line x1="2354.91" y1="-1.04712e-08" x2="2354.91" y2="1034.87" stroke="#2B76D9" stroke-opacity="0.3" stroke-width="0.479105"/>
<line x1="1645.84" y1="-1.04712e-08" x2="1645.84" y2="1034.87" stroke="#2B76D9" stroke-opacity="0.3" stroke-width="0.479105"/>
<line x1="2316.58" y1="-1.04712e-08" x2="2316.58" y2="1034.87" stroke="#2B76D9" stroke-opacity="0.3" stroke-width="0.479105"/>
<line x1="1990.79" y1="-1.04712e-08" x2="1990.79" y2="1034.87" stroke="#2B76D9" stroke-opacity="0.3" stroke-width="0.479105"/>
<line x1="1320.05" y1="-1.04712e-08" x2="1320.05" y2="1034.87" stroke="#2B76D9" stroke-opacity="0.3" stroke-width="0.479105"/>
<line x1="1933.3" y1="-1.04712e-08" x2="1933.3" y2="1034.87" stroke="#2B76D9" stroke-opacity="0.3" stroke-width="0.479105"/>
<line x1="1262.55" y1="-1.04712e-08" x2="1262.55" y2="1034.87" stroke="#2B76D9" stroke-opacity="0.3" stroke-width="0.479105"/>
<line x1="2029.12" y1="-1.04712e-08" x2="2029.12" y2="1034.87" stroke="#2B76D9" stroke-opacity="0.3" stroke-width="0.479105"/>
<line x1="1358.37" y1="-1.04712e-08" x2="1358.37" y2="1034.87" stroke="#2B76D9" stroke-opacity="0.3" stroke-width="0.479105"/>
<line x1="2009.96" y1="-1.04712e-08" x2="2009.96" y2="1034.87" stroke="#2B76D9" stroke-opacity="0.3" stroke-width="0.479105"/>
<line x1="1339.21" y1="-1.04712e-08" x2="1339.21" y2="1034.87" stroke="#2B76D9" stroke-opacity="0.3" stroke-width="0.479105"/>
<line x1="2048.28" y1="-1.04712e-08" x2="2048.28" y2="1034.87" stroke="#2B76D9" stroke-opacity="0.3" stroke-width="0.479105"/>
<line x1="1377.54" y1="-1.04712e-08" x2="1377.54" y2="1034.87" stroke="#2B76D9" stroke-opacity="0.3" stroke-width="0.479105"/>
<line x1="1971.63" y1="-1.04712e-08" x2="1971.63" y2="1034.87" stroke="#2B76D9" stroke-opacity="0.3" stroke-width="0.479105"/>
<line x1="1300.88" y1="-1.04712e-08" x2="1300.88" y2="1034.87" stroke="#2B76D9" stroke-opacity="0.3" stroke-width="0.479105"/>
<line x1="1914.14" y1="-1.04712e-08" x2="1914.14" y2="1034.87" stroke="#2B76D9" stroke-opacity="0.3" stroke-width="0.479105"/>
<line x1="1243.39" y1="-1.04712e-08" x2="1243.39" y2="1034.87" stroke="#2B76D9" stroke-opacity="0.3" stroke-width="0.479105"/>
<line x1="1875.81" y1="-1.04712e-08" x2="1875.81" y2="1034.87" stroke="#2B76D9" stroke-opacity="0.3" stroke-width="0.479105"/>
<line x1="1205.06" y1="-1.04712e-08" x2="1205.06" y2="1034.87" stroke="#2B76D9" stroke-opacity="0.3" stroke-width="0.479105"/>
<line x1="1818.31" y1="-1.04712e-08" x2="1818.31" y2="1034.87" stroke="#2B76D9" stroke-opacity="0.3" stroke-width="0.479105"/>
<line x1="1147.57" y1="-1.04712e-08" x2="1147.57" y2="1034.87" stroke="#2B76D9" stroke-opacity="0.3" stroke-width="0.479105"/>
<line x1="2086.61" y1="-1.04712e-08" x2="2086.61" y2="1034.87" stroke="#2B76D9" stroke-opacity="0.3" stroke-width="0.479105"/>
<line x1="1415.87" y1="-1.04712e-08" x2="1415.87" y2="1034.87" stroke="#2B76D9" stroke-opacity="0.3" stroke-width="0.479105"/>
<line x1="2067.45" y1="-1.04712e-08" x2="2067.45" y2="1034.87" stroke="#2B76D9" stroke-opacity="0.3" stroke-width="0.479105"/>
<line x1="1396.7" y1="-1.04712e-08" x2="1396.7" y2="1034.87" stroke="#2B76D9" stroke-opacity="0.3" stroke-width="0.479105"/>
<line x1="2124.94" y1="-1.04712e-08" x2="2124.94" y2="1034.87" stroke="#2B76D9" stroke-opacity="0.3" stroke-width="0.479105"/>
<line x1="1454.19" y1="-1.04712e-08" x2="1454.19" y2="1034.87" stroke="#2B76D9" stroke-opacity="0.3" stroke-width="0.479105"/>
<line x1="2144.11" y1="-1.04712e-08" x2="2144.11" y2="1034.87" stroke="#2B76D9" stroke-opacity="0.3" stroke-width="0.479105"/>
<line x1="1473.36" y1="-1.04712e-08" x2="1473.36" y2="1034.87" stroke="#2B76D9" stroke-opacity="0.3" stroke-width="0.479105"/>
<line x1="2182.43" y1="-1.04712e-08" x2="2182.43" y2="1034.87" stroke="#2B76D9" stroke-opacity="0.3" stroke-width="0.479105"/>
<line x1="1511.69" y1="-1.04712e-08" x2="1511.69" y2="1034.87" stroke="#2B76D9" stroke-opacity="0.3" stroke-width="0.479105"/>
<line x1="2201.6" y1="-1.04712e-08" x2="2201.6" y2="1034.87" stroke="#2B76D9" stroke-opacity="0.3" stroke-width="0.479105"/>
<line x1="1530.85" y1="-1.04712e-08" x2="1530.85" y2="1034.87" stroke="#2B76D9" stroke-opacity="0.3" stroke-width="0.479105"/>
<line x1="2220.76" y1="-1.04712e-08" x2="2220.76" y2="1034.87" stroke="#2B76D9" stroke-opacity="0.3" stroke-width="0.479105"/>
<line x1="1550.02" y1="-1.04712e-08" x2="1550.02" y2="1034.87" stroke="#2B76D9" stroke-opacity="0.3" stroke-width="0.479105"/>
<line x1="2239.93" y1="-1.04712e-08" x2="2239.93" y2="1034.87" stroke="#2B76D9" stroke-opacity="0.3" stroke-width="0.479105"/>
<line x1="1569.18" y1="-1.04712e-08" x2="1569.18" y2="1034.87" stroke="#2B76D9" stroke-opacity="0.3" stroke-width="0.479105"/>
<line x1="2259.09" y1="-1.04712e-08" x2="2259.09" y2="1034.87" stroke="#2B76D9" stroke-opacity="0.3" stroke-width="0.479105"/>
<line x1="1588.34" y1="-1.04712e-08" x2="1588.34" y2="1034.87" stroke="#2B76D9" stroke-opacity="0.3" stroke-width="0.479105"/>
<line x1="2278.25" y1="-1.04712e-08" x2="2278.25" y2="1034.87" stroke="#2B76D9" stroke-opacity="0.3" stroke-width="0.479105"/>
<line x1="1607.51" y1="-1.04712e-08" x2="1607.51" y2="1034.87" stroke="#2B76D9" stroke-opacity="0.3" stroke-width="0.479105"/>
<line x1="2163.27" y1="-1.04712e-08" x2="2163.27" y2="1034.87" stroke="#2B76D9" stroke-opacity="0.3" stroke-width="0.479105"/>
<line x1="1492.52" y1="-1.04712e-08" x2="1492.52" y2="1034.87" stroke="#2B76D9" stroke-opacity="0.3" stroke-width="0.479105"/>
<line x1="2105.78" y1="-1.04712e-08" x2="2105.78" y2="1034.87" stroke="#2B76D9" stroke-opacity="0.3" stroke-width="0.479105"/>
<line x1="1435.03" y1="-1.04712e-08" x2="1435.03" y2="1034.87" stroke="#2B76D9" stroke-opacity="0.3" stroke-width="0.479105"/>
</g>
<defs>
<clipPath id="clip0_543_11733">
<rect width="1280" height="540" fill="white"/>
</clipPath>
<clipPath id="clip1_543_11733">
<rect width="1280" height="540" fill="white" transform="translate(1109)"/>
</clipPath>
</defs>
</svg>
