<svg width="199" height="214" viewBox="0 0 199 214" fill="none" xmlns="http://www.w3.org/2000/svg">
<rect width="199" height="214" fill="#D9D9D9"/>
<path d="M34.824 90.796H39.612V124.24H34.824V90.796ZM38.532 103.432H44.4V107.356H38.532V103.432ZM14.844 112.576H17.616C19.512 112.576 21.288 112.552 22.944 112.504C24.6 112.456 26.208 112.36 27.768 112.216C29.352 112.048 30.96 111.832 32.592 111.568L33.024 115.42C31.344 115.708 29.688 115.936 28.056 116.104C26.448 116.248 24.792 116.356 23.088 116.428C21.384 116.5 19.56 116.536 17.616 116.536H14.844V112.576ZM14.772 93.64H30.108V106.564H19.56V114.088H14.844V102.784H25.356V97.492H14.772V93.64ZM70.7852 90.868H75.3572V108.004H70.7852V90.868ZM64.0532 91.444H68.5172V107.86H64.0532V91.444ZM60.0932 97.816H65.3852V101.596H60.0932V97.816ZM52.6772 109.336H75.3572V118.3H57.5372V122.368H52.7492V114.844H70.5692V113.044H52.6772V109.336ZM52.7492 120.316H76.4372V123.988H52.7492V120.316ZM48.1052 92.704H52.6052V96.304H56.8532V92.704H61.2812V106.96H48.1052V92.704ZM52.6052 99.796V103.324H56.8532V99.796H52.6052ZM103.326 90.868H108.114V111.1H103.326V90.868ZM82.1584 105.916H85.0384C87.2224 105.916 89.1784 105.892 90.9064 105.844C92.6344 105.796 94.2784 105.7 95.8384 105.556C97.3984 105.412 98.9704 105.22 100.554 104.98L101.094 108.796C99.4624 109.06 97.8304 109.264 96.1984 109.408C94.5904 109.552 92.8864 109.648 91.0864 109.696C89.2864 109.744 87.2704 109.768 85.0384 109.768H82.1584V105.916ZM82.0864 92.812H97.4584V102.964H86.8384V108.04H82.1584V99.436H92.7064V96.628H82.0864V92.812ZM96.9184 111.676C100.446 111.676 103.23 112.228 105.27 113.332C107.31 114.412 108.33 115.948 108.33 117.94C108.33 119.932 107.31 121.48 105.27 122.584C103.23 123.688 100.446 124.24 96.9184 124.24C93.3904 124.24 90.6064 123.688 88.5664 122.584C86.5264 121.48 85.5064 119.932 85.5064 117.94C85.5064 115.948 86.5264 114.412 88.5664 113.332C90.6064 112.228 93.3904 111.676 96.9184 111.676ZM96.9184 115.42C95.4544 115.42 94.2304 115.516 93.2464 115.708C92.2624 115.876 91.5184 116.152 91.0144 116.536C90.5104 116.896 90.2584 117.364 90.2584 117.94C90.2584 118.54 90.5104 119.032 91.0144 119.416C91.5184 119.776 92.2624 120.052 93.2464 120.244C94.2304 120.412 95.4544 120.496 96.9184 120.496C98.3824 120.496 99.6064 120.412 100.59 120.244C101.574 120.052 102.306 119.776 102.786 119.416C103.29 119.032 103.542 118.54 103.542 117.94C103.542 117.364 103.29 116.896 102.786 116.536C102.306 116.152 101.574 115.876 100.59 115.708C99.6064 115.516 98.3824 115.42 96.9184 115.42ZM129.912 93.424H133.764V98.248C133.764 100.312 133.584 102.328 133.224 104.296C132.864 106.24 132.3 108.052 131.532 109.732C130.788 111.412 129.84 112.912 128.688 114.232C127.536 115.528 126.18 116.56 124.62 117.328L121.74 113.476C123.156 112.828 124.368 111.964 125.376 110.884C126.408 109.804 127.26 108.58 127.932 107.212C128.604 105.844 129.096 104.404 129.408 102.892C129.744 101.356 129.912 99.808 129.912 98.248V93.424ZM130.848 93.424H134.7V98.248C134.7 99.76 134.844 101.248 135.132 102.712C135.444 104.176 135.912 105.568 136.536 106.888C137.184 108.184 137.988 109.348 138.948 110.38C139.908 111.412 141.06 112.264 142.404 112.936L139.488 116.752C138 115.984 136.704 114.976 135.6 113.728C134.52 112.456 133.632 111.004 132.936 109.372C132.24 107.716 131.712 105.952 131.352 104.08C131.016 102.184 130.848 100.24 130.848 98.248V93.424ZM143.7 90.868H148.524V124.204H143.7V90.868ZM147.48 103.684H153.348V107.644H147.48V103.684ZM163.965 94.576H167.925V97.384C167.925 99.472 167.577 101.464 166.881 103.36C166.209 105.232 165.177 106.876 163.785 108.292C162.393 109.684 160.617 110.728 158.457 111.424L156.009 107.68C157.881 107.08 159.393 106.24 160.545 105.16C161.721 104.08 162.585 102.868 163.137 101.524C163.689 100.156 163.965 98.776 163.965 97.384V94.576ZM164.973 94.576H168.861V97.384C168.861 98.368 169.017 99.352 169.329 100.336C169.641 101.296 170.109 102.22 170.733 103.108C171.381 103.972 172.197 104.752 173.181 105.448C174.165 106.144 175.329 106.708 176.673 107.14L174.261 110.848C172.173 110.176 170.445 109.168 169.077 107.824C167.709 106.48 166.677 104.908 165.981 103.108C165.309 101.284 164.973 99.376 164.973 97.384V94.576ZM157.305 93.208H175.449V97.024H157.305V93.208ZM178.797 90.868H183.585V114.916H178.797V90.868ZM161.373 119.776H184.449V123.628H161.373V119.776ZM161.373 112.756H166.161V121.684H161.373V112.756Z" fill="black"/>
</svg>
