<svg width="199" height="214" viewBox="0 0 199 214" fill="none" xmlns="http://www.w3.org/2000/svg">
<rect width="199" height="214" fill="#D9D9D9"/>
<path d="M42.112 112.18H46.9V124.24H42.112V112.18ZM29.476 110.812H59.644V114.7H29.476V110.812ZM42.076 96.844H46.288V97.636C46.288 98.74 46.096 99.82 45.712 100.876C45.352 101.908 44.8 102.88 44.056 103.792C43.312 104.68 42.388 105.496 41.284 106.24C40.18 106.96 38.908 107.572 37.468 108.076C36.028 108.556 34.432 108.904 32.68 109.12L30.988 105.34C32.5 105.172 33.844 104.896 35.02 104.512C36.22 104.128 37.264 103.672 38.152 103.144C39.04 102.616 39.772 102.052 40.348 101.452C40.948 100.828 41.38 100.192 41.644 99.544C41.932 98.872 42.076 98.236 42.076 97.636V96.844ZM42.724 96.844H46.9V97.636C46.9 98.212 47.044 98.836 47.332 99.508C47.644 100.156 48.088 100.792 48.664 101.416C49.24 102.016 49.972 102.592 50.86 103.144C51.748 103.672 52.78 104.128 53.956 104.512C55.156 104.896 56.5 105.172 57.988 105.34L56.332 109.12C54.556 108.928 52.948 108.58 51.508 108.076C50.092 107.548 48.832 106.924 47.728 106.204C46.624 105.484 45.7 104.668 44.956 103.756C44.212 102.82 43.648 101.836 43.264 100.804C42.904 99.772 42.724 98.716 42.724 97.636V96.844ZM32.176 94.648H56.872V98.428H32.176V94.648ZM42.112 90.94H46.9V95.944H42.112V90.94ZM62.9532 109.264H93.1212V113.116H62.9532V109.264ZM66.7332 120.604H90.2412V124.384H66.7332V120.604ZM66.7332 114.772H71.4852V121.72H66.7332V114.772ZM75.6612 104.656H80.4132V110.956H75.6612V104.656ZM66.6252 91.552H89.4492V100.84H71.4132V104.26H66.6972V97.456H84.7332V95.188H66.6252V91.552ZM66.6972 103.144H90.0972V106.78H66.6972V103.144ZM112.435 93.424H116.287V98.248C116.287 100.312 116.107 102.328 115.747 104.296C115.387 106.24 114.823 108.052 114.055 109.732C113.311 111.412 112.363 112.912 111.211 114.232C110.059 115.528 108.703 116.56 107.143 117.328L104.263 113.476C105.679 112.828 106.891 111.964 107.899 110.884C108.931 109.804 109.783 108.58 110.455 107.212C111.127 105.844 111.619 104.404 111.931 102.892C112.267 101.356 112.435 99.808 112.435 98.248V93.424ZM113.371 93.424H117.223V98.248C117.223 99.76 117.367 101.248 117.655 102.712C117.967 104.176 118.435 105.568 119.059 106.888C119.707 108.184 120.511 109.348 121.471 110.38C122.431 111.412 123.583 112.264 124.927 112.936L122.011 116.752C120.523 115.984 119.227 114.976 118.123 113.728C117.043 112.456 116.155 111.004 115.459 109.372C114.763 107.716 114.235 105.952 113.875 104.08C113.539 102.184 113.371 100.24 113.371 98.248V93.424ZM126.223 90.868H131.047V124.204H126.223V90.868ZM130.003 103.684H135.871V107.644H130.003V103.684ZM146.488 94.576H150.448V97.384C150.448 99.472 150.1 101.464 149.404 103.36C148.732 105.232 147.7 106.876 146.308 108.292C144.916 109.684 143.14 110.728 140.98 111.424L138.532 107.68C140.404 107.08 141.916 106.24 143.068 105.16C144.244 104.08 145.108 102.868 145.66 101.524C146.212 100.156 146.488 98.776 146.488 97.384V94.576ZM147.496 94.576H151.384V97.384C151.384 98.368 151.54 99.352 151.852 100.336C152.164 101.296 152.632 102.22 153.256 103.108C153.904 103.972 154.72 104.752 155.704 105.448C156.688 106.144 157.852 106.708 159.196 107.14L156.784 110.848C154.696 110.176 152.968 109.168 151.6 107.824C150.232 106.48 149.2 104.908 148.504 103.108C147.832 101.284 147.496 99.376 147.496 97.384V94.576ZM139.828 93.208H157.972V97.024H139.828V93.208ZM161.32 90.868H166.108V114.916H161.32V90.868ZM143.896 119.776H166.972V123.628H143.896V119.776ZM143.896 112.756H148.684V121.684H143.896V112.756Z" fill="black"/>
</svg>
