<svg width="563" height="598" viewBox="0 0 563 598" fill="none" xmlns="http://www.w3.org/2000/svg">
<rect width="563" height="598" fill="#D9D9D9"/>
<path d="M152.856 196L161.388 169.324H167.688L176.22 196H170.604L166.824 182.104C166.416 180.712 166.02 179.272 165.636 177.784C165.276 176.272 164.892 174.808 164.484 173.392H164.34C164.004 174.832 163.632 176.296 163.224 177.784C162.84 179.272 162.456 180.712 162.072 182.104L158.256 196H152.856ZM158.148 189.16V185.02H170.82V189.16H158.148ZM179.699 196V169.324H185.027V196H179.699ZM198.73 181.132H228.718V184.948H198.73V181.132ZM201.79 187.756H224.902V199.204H220.078V191.572H201.79V187.756ZM202.078 167.488H223.21V171.268H202.078V167.488ZM209.818 174.904H214.606V181.78H209.818V174.904ZM220.402 167.488H225.19V169.828C225.19 171.076 225.154 172.492 225.082 174.076C225.01 175.636 224.758 177.412 224.326 179.404L219.574 178.972C219.982 177.028 220.222 175.324 220.294 173.86C220.366 172.396 220.402 171.052 220.402 169.828V167.488ZM249.127 172.924H256.867V176.812H249.127V172.924ZM239.767 167.884H243.619V171.484C243.619 173.74 243.295 175.864 242.647 177.856C241.999 179.848 240.991 181.588 239.623 183.076C238.279 184.54 236.551 185.656 234.439 186.424L231.919 182.68C233.311 182.2 234.499 181.576 235.483 180.808C236.467 180.04 237.271 179.164 237.895 178.18C238.519 177.172 238.987 176.104 239.299 174.976C239.611 173.848 239.767 172.684 239.767 171.484V167.884ZM240.775 167.884H244.591V171.52C244.591 172.6 244.735 173.656 245.023 174.688C245.311 175.72 245.755 176.704 246.355 177.64C246.955 178.576 247.723 179.416 248.659 180.16C249.619 180.88 250.747 181.468 252.043 181.924L249.523 185.596C247.531 184.852 245.887 183.784 244.591 182.392C243.295 181 242.335 179.368 241.711 177.496C241.087 175.624 240.775 173.632 240.775 171.52V167.884ZM255.211 165.868H260.035V190.456H255.211V165.868ZM237.967 194.776H260.755V198.628H237.967V194.776ZM237.967 188.008H242.755V196.936H237.967V188.008ZM277.224 168.892H298.32V172.708H277.224V168.892ZM274.128 190.96H304.296V194.848H274.128V190.96ZM295.8 168.892H300.588V172.852C300.588 174.412 300.564 175.996 300.516 177.604C300.492 179.212 300.396 180.928 300.228 182.752C300.084 184.576 299.796 186.64 299.364 188.944L294.576 188.512C295.008 186.376 295.296 184.408 295.44 182.608C295.608 180.808 295.704 179.116 295.728 177.532C295.776 175.924 295.8 174.364 295.8 172.852V168.892ZM308.505 187.9H310.845C312.837 187.9 314.745 187.864 316.569 187.792C318.393 187.696 320.337 187.48 322.401 187.144L322.761 191.032C320.625 191.392 318.609 191.62 316.713 191.716C314.841 191.788 312.885 191.824 310.845 191.824H308.505V187.9ZM308.433 169.108H321.069V181.996H313.149V189.304H308.505V178.216H316.461V172.888H308.433V169.108ZM331.653 165.832H336.225V199.168H331.653V165.832ZM327.225 178.432H332.769V182.284H327.225V178.432ZM324.201 166.408H328.629V197.62H324.201V166.408ZM341.083 191.428H371.287V195.352H341.083V191.428ZM343.387 168.712H368.803V172.564H343.387V168.712ZM343.567 182.536H368.695V186.352H343.567V182.536ZM347.923 172.276H352.711V182.896H347.923V172.276ZM359.479 172.276H364.267V182.896H359.479V172.276ZM390.564 168.424H394.416V173.248C394.416 175.312 394.236 177.328 393.876 179.296C393.516 181.24 392.952 183.052 392.184 184.732C391.44 186.412 390.492 187.912 389.34 189.232C388.188 190.528 386.832 191.56 385.272 192.328L382.392 188.476C383.808 187.828 385.02 186.964 386.028 185.884C387.06 184.804 387.912 183.58 388.584 182.212C389.256 180.844 389.748 179.404 390.06 177.892C390.396 176.356 390.564 174.808 390.564 173.248V168.424ZM391.5 168.424H395.352V173.248C395.352 174.76 395.496 176.248 395.784 177.712C396.096 179.176 396.564 180.568 397.188 181.888C397.836 183.184 398.64 184.348 399.6 185.38C400.56 186.412 401.712 187.264 403.056 187.936L400.14 191.752C398.652 190.984 397.356 189.976 396.252 188.728C395.172 187.456 394.284 186.004 393.588 184.372C392.892 182.716 392.364 180.952 392.004 179.08C391.668 177.184 391.5 175.24 391.5 173.248V168.424ZM404.352 165.868H409.176V199.204H404.352V165.868ZM408.132 178.684H414V182.644H408.132V178.684ZM424.617 169.576H428.577V172.384C428.577 174.472 428.229 176.464 427.533 178.36C426.861 180.232 425.829 181.876 424.437 183.292C423.045 184.684 421.269 185.728 419.109 186.424L416.661 182.68C418.533 182.08 420.045 181.24 421.197 180.16C422.373 179.08 423.237 177.868 423.789 176.524C424.341 175.156 424.617 173.776 424.617 172.384V169.576ZM425.625 169.576H429.513V172.384C429.513 173.368 429.669 174.352 429.981 175.336C430.293 176.296 430.761 177.22 431.385 178.108C432.033 178.972 432.849 179.752 433.833 180.448C434.817 181.144 435.981 181.708 437.325 182.14L434.913 185.848C432.825 185.176 431.097 184.168 429.729 182.824C428.361 181.48 427.329 179.908 426.633 178.108C425.961 176.284 425.625 174.376 425.625 172.384V169.576ZM417.957 168.208H436.101V172.024H417.957V168.208ZM439.449 165.868H444.237V189.916H439.449V165.868ZM422.025 194.776H445.101V198.628H422.025V194.776ZM422.025 187.756H426.813V196.684H422.025V187.756Z" fill="black"/>
</svg>
