<svg width="613" height="315" viewBox="0 0 613 315" fill="none" xmlns="http://www.w3.org/2000/svg">
<rect width="613" height="315" fill="#D9D9D9"/>
<path d="M402.372 227.868H407.16V244.68H402.372V227.868ZM384.948 246.156H407.16V255.192H389.7V258.54H384.984V251.772H402.408V249.828H384.948V246.156ZM384.984 257.244H407.988V260.988H384.984V257.244ZM387.288 228.624H391.248V231.108C391.248 233.148 390.9 235.092 390.204 236.94C389.508 238.788 388.44 240.396 387 241.764C385.584 243.132 383.784 244.152 381.6 244.824L379.296 241.044C380.688 240.612 381.888 240.048 382.896 239.352C383.904 238.656 384.732 237.864 385.38 236.976C386.028 236.088 386.508 235.152 386.82 234.168C387.132 233.16 387.288 232.14 387.288 231.108V228.624ZM388.26 228.624H392.148V231.108C392.148 232.116 392.304 233.1 392.616 234.06C392.928 234.996 393.396 235.884 394.02 236.724C394.644 237.564 395.448 238.308 396.432 238.956C397.416 239.604 398.58 240.12 399.924 240.504L397.62 244.248C396.036 243.768 394.656 243.108 393.48 242.268C392.304 241.404 391.32 240.396 390.528 239.244C389.76 238.068 389.184 236.796 388.8 235.428C388.44 234.06 388.26 232.62 388.26 231.108V228.624ZM416.445 247.812H421.197V250.62H434.553V247.812H439.269V260.844H416.445V247.812ZM421.197 254.22V257.1H434.553V254.22H421.197ZM412.917 242.412H443.085V246.156H412.917V242.412ZM425.553 228.192H429.657V229.2C429.657 230.376 429.453 231.492 429.045 232.548C428.661 233.604 428.097 234.588 427.353 235.5C426.609 236.412 425.685 237.24 424.581 237.984C423.501 238.704 422.253 239.316 420.837 239.82C419.421 240.3 417.849 240.66 416.121 240.9L414.393 237.192C415.905 237.024 417.261 236.748 418.461 236.364C419.661 235.98 420.705 235.524 421.593 234.996C422.481 234.444 423.213 233.856 423.789 233.232C424.389 232.584 424.833 231.924 425.121 231.252C425.409 230.556 425.553 229.872 425.553 229.2V228.192ZM426.345 228.192H430.449V229.2C430.449 229.872 430.593 230.556 430.881 231.252C431.169 231.924 431.601 232.584 432.177 233.232C432.777 233.856 433.521 234.444 434.409 234.996C435.297 235.524 436.341 235.98 437.541 236.364C438.765 236.748 440.121 237.024 441.609 237.192L439.881 240.9C438.153 240.66 436.581 240.3 435.165 239.82C433.773 239.316 432.525 238.704 431.421 237.984C430.317 237.24 429.393 236.412 428.649 235.5C427.905 234.588 427.329 233.604 426.921 232.548C426.537 231.468 426.345 230.352 426.345 229.2V228.192Z" fill="black"/>
<path d="M205.44 247.524H235.644V251.412H205.44V247.524ZM209.184 241.512H232.476V245.256H209.184V241.512ZM209.184 229.2H232.152V232.944H213.936V242.34H209.184V229.2ZM212.568 235.356H231.432V238.992H212.568V235.356ZM212.424 249.432H217.212V261.204H212.424V249.432ZM223.944 249.432H228.732V261.204H223.944V249.432ZM242.481 244.356H265.917V248.136H242.481V244.356ZM238.953 253.68H269.157V257.532H238.953V253.68ZM251.625 246.264H256.413V255.372H251.625V246.264ZM242.481 230.1H265.665V233.952H247.341V245.76H242.481V230.1ZM245.865 237.192H264.909V240.9H245.865V237.192ZM295.362 227.796H300.186V261.24H295.362V227.796ZM274.23 249.576H277.182C279.15 249.576 281.01 249.552 282.762 249.504C284.514 249.432 286.23 249.324 287.91 249.18C289.59 249.012 291.306 248.772 293.058 248.46L293.562 252.312C290.874 252.792 288.222 253.116 285.606 253.284C283.014 253.428 280.206 253.5 277.182 253.5H274.23V249.576ZM274.158 230.64H289.89V243.564H279.09V251.052H274.23V239.784H285.03V234.492H274.158V230.64ZM328.984 227.868H333.772V244.5H328.984V227.868ZM322.324 234.456H330.784V238.272H322.324V234.456ZM315.124 228.732C316.804 228.732 318.304 229.068 319.624 229.74C320.944 230.388 321.988 231.288 322.756 232.44C323.524 233.592 323.908 234.924 323.908 236.436C323.908 237.924 323.524 239.244 322.756 240.396C321.988 241.548 320.944 242.46 319.624 243.132C318.304 243.78 316.804 244.104 315.124 244.104C313.444 244.104 311.932 243.78 310.588 243.132C309.268 242.46 308.224 241.548 307.456 240.396C306.688 239.244 306.304 237.924 306.304 236.436C306.304 234.924 306.688 233.592 307.456 232.44C308.224 231.288 309.268 230.388 310.588 229.74C311.932 229.068 313.444 228.732 315.124 228.732ZM315.124 232.62C314.308 232.62 313.576 232.776 312.928 233.088C312.28 233.376 311.776 233.808 311.416 234.384C311.056 234.936 310.876 235.608 310.876 236.4C310.876 237.216 311.056 237.912 311.416 238.488C311.776 239.064 312.28 239.508 312.928 239.82C313.576 240.108 314.296 240.252 315.088 240.252C315.928 240.252 316.66 240.108 317.284 239.82C317.908 239.508 318.4 239.064 318.76 238.488C319.12 237.912 319.3 237.216 319.3 236.4C319.3 235.608 319.12 234.936 318.76 234.384C318.4 233.808 317.908 233.376 317.284 233.088C316.66 232.776 315.94 232.62 315.124 232.62ZM311.74 245.904H333.772V255.012H316.528V259.08H311.812V251.556H329.056V249.612H311.74V245.904ZM311.812 257.1H334.744V260.844H311.812V257.1Z" fill="black"/>
<path d="M44.56 101.832H49.096V135.168H44.56V101.832ZM31.888 114H39.628V117.852H31.888V114ZM37.648 102.444H42.112V133.728H37.648V102.444ZM21.412 123.864H23.752C25.312 123.864 26.728 123.84 28 123.792C29.296 123.744 30.52 123.66 31.672 123.54C32.848 123.42 34.036 123.24 35.236 123L35.632 126.888C34.384 127.152 33.16 127.344 31.96 127.464C30.76 127.584 29.488 127.668 28.144 127.716C26.824 127.764 25.36 127.788 23.752 127.788H21.412V123.864ZM21.412 105.612H34.156V109.392H26.128V125.52H21.412V105.612ZM76.8132 101.796H81.6012V135.24H76.8132V101.796ZM63.6372 104.136C65.3412 104.136 66.8532 104.628 68.1732 105.612C69.4932 106.572 70.5252 107.952 71.2692 109.752C72.0372 111.528 72.4212 113.628 72.4212 116.052C72.4212 118.5 72.0372 120.624 71.2692 122.424C70.5252 124.2 69.4932 125.58 68.1732 126.564C66.8532 127.524 65.3412 128.004 63.6372 128.004C61.9572 128.004 60.4572 127.524 59.1372 126.564C57.8172 125.58 56.7732 124.2 56.0052 122.424C55.2612 120.624 54.8892 118.5 54.8892 116.052C54.8892 113.628 55.2612 111.528 56.0052 109.752C56.7732 107.952 57.8172 106.572 59.1372 105.612C60.4572 104.628 61.9572 104.136 63.6372 104.136ZM63.6372 108.492C62.8212 108.492 62.1012 108.78 61.4772 109.356C60.8532 109.932 60.3612 110.784 60.0012 111.912C59.6652 113.016 59.4972 114.396 59.4972 116.052C59.4972 117.684 59.6652 119.076 60.0012 120.228C60.3612 121.356 60.8532 122.208 61.4772 122.784C62.1012 123.36 62.8212 123.648 63.6372 123.648C64.4772 123.648 65.2092 123.36 65.8332 122.784C66.4572 122.208 66.9372 121.356 67.2732 120.228C67.6332 119.076 67.8132 117.684 67.8132 116.052C67.8132 114.396 67.6332 113.016 67.2732 111.912C66.9372 110.784 66.4572 109.932 65.8332 109.356C65.2092 108.78 64.4772 108.492 63.6372 108.492ZM110.614 101.796H115.402V135.24H110.614V101.796ZM104.89 113.568H111.19V117.456H104.89V113.568ZM88.9064 123.864H91.6064C93.4544 123.864 95.1584 123.84 96.7184 123.792C98.3024 123.744 99.8384 123.66 101.326 123.54C102.814 123.42 104.338 123.252 105.898 123.036L106.366 126.816C104.758 127.08 103.174 127.272 101.614 127.392C100.078 127.512 98.4944 127.596 96.8624 127.644C95.2304 127.692 93.4784 127.716 91.6064 127.716H88.9064V123.864ZM88.9064 104.604H104.35V108.492H93.6944V125.052H88.9064V104.604ZM92.5784 113.892H103.234V117.636H92.5784V113.892ZM134.156 108.6H139.412V112.488H134.156V108.6ZM144.74 101.868H149.312V124.476H144.74V101.868ZM138.116 102.516H142.58V121.38H138.116V102.516ZM135.704 122.784H139.772V123.504C139.772 124.944 139.484 126.312 138.908 127.608C138.356 128.88 137.528 130.02 136.424 131.028C135.32 132.036 133.964 132.888 132.356 133.584C130.748 134.304 128.9 134.808 126.812 135.096L125.084 131.388C126.524 131.196 127.808 130.92 128.936 130.56C130.088 130.176 131.084 129.72 131.924 129.192C132.764 128.664 133.46 128.1 134.012 127.5C134.588 126.876 135.008 126.228 135.272 125.556C135.56 124.884 135.704 124.2 135.704 123.504V122.784ZM136.388 122.784H140.456V123.504C140.456 124.2 140.588 124.884 140.852 125.556C141.14 126.228 141.56 126.876 142.112 127.5C142.688 128.1 143.396 128.664 144.236 129.192C145.076 129.72 146.06 130.176 147.188 130.56C148.34 130.92 149.636 131.196 151.076 131.388L149.348 135.096C147.26 134.808 145.412 134.304 143.804 133.584C142.196 132.888 140.84 132.036 139.736 131.028C138.632 130.02 137.792 128.88 137.216 127.608C136.664 126.312 136.388 124.944 136.388 123.504V122.784ZM126.776 103.92H130.52V107.7C130.52 109.572 130.256 111.408 129.728 113.208C129.2 114.984 128.384 116.58 127.28 117.996C126.176 119.412 124.736 120.504 122.96 121.272L120.44 117.636C121.952 116.94 123.176 116.064 124.112 115.008C125.048 113.928 125.72 112.764 126.128 111.516C126.56 110.244 126.776 108.972 126.776 107.7V103.92ZM127.712 103.92H131.384V107.7C131.384 108.972 131.576 110.208 131.96 111.408C132.368 112.584 132.992 113.676 133.832 114.684C134.672 115.668 135.776 116.484 137.144 117.132L134.588 120.768C132.956 120 131.624 118.956 130.592 117.636C129.584 116.292 128.852 114.768 128.396 113.064C127.94 111.36 127.712 109.572 127.712 107.7V103.92Z" fill="black"/>
<path d="M481.856 132L490.388 105.324H496.688L505.22 132H499.604L495.824 118.104C495.416 116.712 495.02 115.272 494.636 113.784C494.276 112.272 493.892 110.808 493.484 109.392H493.34C493.004 110.832 492.632 112.296 492.224 113.784C491.84 115.272 491.456 116.712 491.072 118.104L487.256 132H481.856ZM487.148 125.16V121.02H499.82V125.16H487.148ZM508.699 132V105.324H514.027V132H508.699ZM519.141 104.748H538.725V108.528H519.141V104.748ZM528.933 109.572C530.541 109.572 531.957 109.836 533.181 110.364C534.429 110.892 535.401 111.612 536.097 112.524C536.793 113.436 537.141 114.516 537.141 115.764C537.141 116.964 536.793 118.032 536.097 118.968C535.401 119.88 534.429 120.6 533.181 121.128C531.957 121.632 530.541 121.884 528.933 121.884C527.349 121.884 525.933 121.632 524.685 121.128C523.437 120.6 522.465 119.88 521.769 118.968C521.073 118.032 520.725 116.964 520.725 115.764C520.725 114.516 521.073 113.436 521.769 112.524C522.465 111.612 523.437 110.892 524.685 110.364C525.933 109.836 527.349 109.572 528.933 109.572ZM528.933 113.208C527.877 113.208 527.013 113.424 526.341 113.856C525.669 114.264 525.333 114.9 525.333 115.764C525.333 116.58 525.669 117.204 526.341 117.636C527.013 118.068 527.877 118.284 528.933 118.284C530.013 118.284 530.877 118.068 531.525 117.636C532.197 117.204 532.533 116.58 532.533 115.764C532.533 114.9 532.197 114.264 531.525 113.856C530.877 113.424 530.013 113.208 528.933 113.208ZM540.561 101.868H545.349V122.748H540.561V101.868ZM544.053 110.436H549.777V114.36H544.053V110.436ZM523.101 124.152H545.349V135.204H540.561V127.932H523.101V124.152ZM526.557 101.652H531.309V106.944H526.557V101.652ZM556.111 121.812H560.863V124.62H574.219V121.812H578.935V134.844H556.111V121.812ZM560.863 128.22V131.1H574.219V128.22H560.863ZM552.583 116.412H582.751V120.156H552.583V116.412ZM565.219 102.192H569.323V103.2C569.323 104.376 569.119 105.492 568.711 106.548C568.327 107.604 567.763 108.588 567.019 109.5C566.275 110.412 565.351 111.24 564.247 111.984C563.167 112.704 561.919 113.316 560.503 113.82C559.087 114.3 557.515 114.66 555.787 114.9L554.059 111.192C555.571 111.024 556.927 110.748 558.127 110.364C559.327 109.98 560.371 109.524 561.259 108.996C562.147 108.444 562.879 107.856 563.455 107.232C564.055 106.584 564.499 105.924 564.787 105.252C565.075 104.556 565.219 103.872 565.219 103.2V102.192ZM566.011 102.192H570.115V103.2C570.115 103.872 570.259 104.556 570.547 105.252C570.835 105.924 571.267 106.584 571.843 107.232C572.443 107.856 573.187 108.444 574.075 108.996C574.963 109.524 576.007 109.98 577.207 110.364C578.431 110.748 579.787 111.024 581.275 111.192L579.547 114.9C577.819 114.66 576.247 114.3 574.831 113.82C573.439 113.316 572.191 112.704 571.087 111.984C569.983 111.24 569.059 110.412 568.315 109.5C567.571 108.588 566.995 107.604 566.587 106.548C566.203 105.468 566.011 104.352 566.011 103.2V102.192Z" fill="black"/>
<path d="M525.99 152.862C525.915 152.315 525.409 151.934 524.862 152.009L515.948 153.248C515.401 153.324 515.019 153.829 515.095 154.376C515.171 154.923 515.676 155.305 516.223 155.229L524.147 154.128L525.248 162.052C525.324 162.599 525.829 162.981 526.376 162.905C526.923 162.829 527.305 162.324 527.229 161.777L525.99 152.862ZM463 235L463.798 235.603L525.798 153.603L525 153L524.202 152.397L462.202 234.397L463 235Z" fill="black"/>
<path d="M174 236C174.552 236 175 235.552 175 235L175 226C175 225.448 174.552 225 174 225C173.448 225 173 225.448 173 226V234H165C164.448 234 164 234.448 164 235C164 235.552 164.448 236 165 236L174 236ZM92 153L91.2929 153.707L173.293 235.707L174 235L174.707 234.293L92.7071 152.293L92 153Z" fill="black"/>
</svg>
