<svg width="199" height="214" viewBox="0 0 199 214" fill="none" xmlns="http://www.w3.org/2000/svg">
<rect width="199" height="214" fill="#D9D9D9"/>
<path d="M30.476 93.748H50.06V97.528H30.476V93.748ZM40.268 98.572C41.876 98.572 43.292 98.836 44.516 99.364C45.764 99.892 46.736 100.612 47.432 101.524C48.128 102.436 48.476 103.516 48.476 104.764C48.476 105.964 48.128 107.032 47.432 107.968C46.736 108.88 45.764 109.6 44.516 110.128C43.292 110.632 41.876 110.884 40.268 110.884C38.684 110.884 37.268 110.632 36.02 110.128C34.772 109.6 33.8 108.88 33.104 107.968C32.408 107.032 32.06 105.964 32.06 104.764C32.06 103.516 32.408 102.436 33.104 101.524C33.8 100.612 34.772 99.892 36.02 99.364C37.268 98.836 38.684 98.572 40.268 98.572ZM40.268 102.208C39.212 102.208 38.348 102.424 37.676 102.856C37.004 103.264 36.668 103.9 36.668 104.764C36.668 105.58 37.004 106.204 37.676 106.636C38.348 107.068 39.212 107.284 40.268 107.284C41.348 107.284 42.212 107.068 42.86 106.636C43.532 106.204 43.868 105.58 43.868 104.764C43.868 103.9 43.532 103.264 42.86 102.856C42.212 102.424 41.348 102.208 40.268 102.208ZM51.896 90.868H56.684V111.748H51.896V90.868ZM55.388 99.436H61.112V103.36H55.388V99.436ZM34.436 113.152H56.684V124.204H51.896V116.932H34.436V113.152ZM37.892 90.652H42.644V95.944H37.892V90.652ZM67.4452 110.812H72.1972V113.62H85.5532V110.812H90.2692V123.844H67.4452V110.812ZM72.1972 117.22V120.1H85.5532V117.22H72.1972ZM63.9172 105.412H94.0852V109.156H63.9172V105.412ZM76.5532 91.192H80.6572V92.2C80.6572 93.376 80.4532 94.492 80.0452 95.548C79.6612 96.604 79.0972 97.588 78.3532 98.5C77.6092 99.412 76.6852 100.24 75.5812 100.984C74.5012 101.704 73.2532 102.316 71.8372 102.82C70.4212 103.3 68.8492 103.66 67.1212 103.9L65.3932 100.192C66.9052 100.024 68.2612 99.748 69.4612 99.364C70.6612 98.98 71.7052 98.524 72.5932 97.996C73.4812 97.444 74.2132 96.856 74.7892 96.232C75.3892 95.584 75.8332 94.924 76.1212 94.252C76.4092 93.556 76.5532 92.872 76.5532 92.2V91.192ZM77.3452 91.192H81.4492V92.2C81.4492 92.872 81.5932 93.556 81.8812 94.252C82.1692 94.924 82.6012 95.584 83.1772 96.232C83.7772 96.856 84.5212 97.444 85.4092 97.996C86.2972 98.524 87.3412 98.98 88.5412 99.364C89.7652 99.748 91.1212 100.024 92.6092 100.192L90.8812 103.9C89.1532 103.66 87.5812 103.3 86.1652 102.82C84.7732 102.316 83.5252 101.704 82.4212 100.984C81.3172 100.24 80.3932 99.412 79.6492 98.5C78.9052 97.588 78.3292 96.604 77.9212 95.548C77.5372 94.468 77.3452 93.352 77.3452 92.2V91.192ZM113.435 93.424H117.287V98.248C117.287 100.312 117.107 102.328 116.747 104.296C116.387 106.24 115.823 108.052 115.055 109.732C114.311 111.412 113.363 112.912 112.211 114.232C111.059 115.528 109.703 116.56 108.143 117.328L105.263 113.476C106.679 112.828 107.891 111.964 108.899 110.884C109.931 109.804 110.783 108.58 111.455 107.212C112.127 105.844 112.619 104.404 112.931 102.892C113.267 101.356 113.435 99.808 113.435 98.248V93.424ZM114.371 93.424H118.223V98.248C118.223 99.76 118.367 101.248 118.655 102.712C118.967 104.176 119.435 105.568 120.059 106.888C120.707 108.184 121.511 109.348 122.471 110.38C123.431 111.412 124.583 112.264 125.927 112.936L123.011 116.752C121.523 115.984 120.227 114.976 119.123 113.728C118.043 112.456 117.155 111.004 116.459 109.372C115.763 107.716 115.235 105.952 114.875 104.08C114.539 102.184 114.371 100.24 114.371 98.248V93.424ZM127.223 90.868H132.047V124.204H127.223V90.868ZM131.003 103.684H136.871V107.644H131.003V103.684ZM147.488 94.576H151.448V97.384C151.448 99.472 151.1 101.464 150.404 103.36C149.732 105.232 148.7 106.876 147.308 108.292C145.916 109.684 144.14 110.728 141.98 111.424L139.532 107.68C141.404 107.08 142.916 106.24 144.068 105.16C145.244 104.08 146.108 102.868 146.66 101.524C147.212 100.156 147.488 98.776 147.488 97.384V94.576ZM148.496 94.576H152.384V97.384C152.384 98.368 152.54 99.352 152.852 100.336C153.164 101.296 153.632 102.22 154.256 103.108C154.904 103.972 155.72 104.752 156.704 105.448C157.688 106.144 158.852 106.708 160.196 107.14L157.784 110.848C155.696 110.176 153.968 109.168 152.6 107.824C151.232 106.48 150.2 104.908 149.504 103.108C148.832 101.284 148.496 99.376 148.496 97.384V94.576ZM140.828 93.208H158.972V97.024H140.828V93.208ZM162.32 90.868H167.108V114.916H162.32V90.868ZM144.896 119.776H167.972V123.628H144.896V119.776ZM144.896 112.756H149.684V121.684H144.896V112.756Z" fill="black"/>
</svg>
