<svg width="624" height="315" viewBox="0 0 624 315" fill="none" xmlns="http://www.w3.org/2000/svg">
<rect width="624" height="315" fill="#D9D9D9"/>
<path d="M212.292 150.408H217.008V152.604H230.04V150.408H234.792V161.604H212.292V150.408ZM217.008 156.096V158.04H230.04V156.096H217.008ZM208.44 163.368H238.608V167.148H208.44V163.368ZM211.896 169.02H234.936V177.516H216.684V180.54H211.932V174.204H230.22V172.512H211.896V169.02ZM211.932 179.388H235.836V182.988H211.932V179.388ZM241.953 167.724H272.121V171.504H241.953V167.724ZM245.625 150.48H268.449V159.516H250.413V163.116H245.697V156.132H263.733V154.116H245.625V150.48ZM245.697 161.712H269.097V165.348H245.697V161.712ZM254.661 163.476H259.413V169.776H254.661V163.476ZM245.265 173.376H268.665V183.096H263.877V177.192H245.265V173.376ZM278.814 152.604H299.838V156.456H278.814V152.604ZM275.394 175.5H305.562V179.352H275.394V175.5ZM297.894 152.604H302.646V155.556C302.646 156.9 302.622 158.34 302.574 159.876C302.55 161.412 302.43 163.128 302.214 165.024C301.998 166.92 301.638 169.092 301.134 171.54L296.382 171.036C297.15 167.652 297.594 164.712 297.714 162.216C297.834 159.696 297.894 157.476 297.894 155.556V152.604ZM298.758 160.632V164.268L278.418 165.348L277.806 161.28L298.758 160.632ZM286.086 167.508H290.91V176.904H286.086V167.508ZM331.804 149.832H336.592V169.74H331.804V149.832ZM310.78 163.944H313.66C316.108 163.944 318.22 163.92 319.996 163.872C321.796 163.824 323.416 163.728 324.856 163.584C326.32 163.416 327.772 163.188 329.212 162.9L329.68 166.716C328.216 167.004 326.728 167.232 325.216 167.4C323.704 167.544 322.024 167.64 320.176 167.688C318.352 167.736 316.18 167.76 313.66 167.76H310.78V163.944ZM310.78 152.316H326.584V156.168H315.532V166.104H310.78V152.316ZM325.324 170.1C327.676 170.1 329.692 170.364 331.372 170.892C333.076 171.396 334.396 172.14 335.332 173.124C336.268 174.108 336.736 175.284 336.736 176.652C336.736 178.02 336.268 179.196 335.332 180.18C334.396 181.188 333.076 181.944 331.372 182.448C329.692 182.976 327.676 183.24 325.324 183.24C322.996 183.24 320.968 182.976 319.24 182.448C317.536 181.944 316.216 181.188 315.28 180.18C314.368 179.196 313.912 178.02 313.912 176.652C313.912 175.284 314.368 174.108 315.28 173.124C316.216 172.14 317.536 171.396 319.24 170.892C320.968 170.364 322.996 170.1 325.324 170.1ZM325.324 173.808C323.884 173.808 322.66 173.916 321.652 174.132C320.668 174.324 319.924 174.636 319.42 175.068C318.94 175.476 318.7 176.004 318.7 176.652C318.7 177.3 318.94 177.84 319.42 178.272C319.924 178.704 320.668 179.028 321.652 179.244C322.66 179.436 323.884 179.532 325.324 179.532C326.764 179.532 327.976 179.436 328.96 179.244C329.944 179.028 330.688 178.704 331.192 178.272C331.696 177.84 331.948 177.3 331.948 176.652C331.948 176.004 331.696 175.476 331.192 175.068C330.688 174.636 329.944 174.324 328.96 174.132C327.976 173.916 326.764 173.808 325.324 173.808ZM358.389 152.424H362.241V157.248C362.241 159.312 362.061 161.328 361.701 163.296C361.341 165.24 360.777 167.052 360.009 168.732C359.265 170.412 358.317 171.912 357.165 173.232C356.013 174.528 354.657 175.56 353.097 176.328L350.217 172.476C351.633 171.828 352.845 170.964 353.853 169.884C354.885 168.804 355.737 167.58 356.409 166.212C357.081 164.844 357.573 163.404 357.885 161.892C358.221 160.356 358.389 158.808 358.389 157.248V152.424ZM359.325 152.424H363.177V157.248C363.177 158.76 363.321 160.248 363.609 161.712C363.921 163.176 364.389 164.568 365.013 165.888C365.661 167.184 366.465 168.348 367.425 169.38C368.385 170.412 369.537 171.264 370.881 171.936L367.965 175.752C366.477 174.984 365.181 173.976 364.077 172.728C362.997 171.456 362.109 170.004 361.413 168.372C360.717 166.716 360.189 164.952 359.829 163.08C359.493 161.184 359.325 159.24 359.325 157.248V152.424ZM372.177 149.868H377.001V183.204H372.177V149.868ZM375.957 162.684H381.825V166.644H375.957V162.684ZM392.442 153.576H396.402V156.384C396.402 158.472 396.054 160.464 395.358 162.36C394.686 164.232 393.654 165.876 392.262 167.292C390.87 168.684 389.094 169.728 386.934 170.424L384.486 166.68C386.358 166.08 387.87 165.24 389.022 164.16C390.198 163.08 391.062 161.868 391.614 160.524C392.166 159.156 392.442 157.776 392.442 156.384V153.576ZM393.45 153.576H397.338V156.384C397.338 157.368 397.494 158.352 397.806 159.336C398.118 160.296 398.586 161.22 399.21 162.108C399.858 162.972 400.674 163.752 401.658 164.448C402.642 165.144 403.806 165.708 405.15 166.14L402.738 169.848C400.65 169.176 398.922 168.168 397.554 166.824C396.186 165.48 395.154 163.908 394.458 162.108C393.786 160.284 393.45 158.376 393.45 156.384V153.576ZM385.782 152.208H403.926V156.024H385.782V152.208ZM407.274 149.868H412.062V173.916H407.274V149.868ZM389.85 178.776H412.926V182.628H389.85V178.776ZM389.85 171.756H394.638V180.684H389.85V171.756Z" fill="black"/>
</svg>
