<svg width="495" height="578" viewBox="0 0 495 578" fill="none" xmlns="http://www.w3.org/2000/svg">
<rect width="495" height="578" fill="#D9D9D9"/>
<path d="M146.476 284.428H176.68V288.316H146.476V284.428ZM159.148 277.3H163.9V285.364H159.148V277.3ZM149.644 260.956H154.432V266.104H168.616V260.956H173.368V278.308H149.644V260.956ZM154.432 269.848V274.492H168.616V269.848H154.432ZM183.049 261.676H204.145V265.492H183.049V261.676ZM179.953 284.284H210.121V288.172H179.953V284.284ZM190.609 272.836H195.433V286.228H190.609V272.836ZM202.417 261.676H207.241V264.844C207.241 266.236 207.217 267.712 207.169 269.272C207.145 270.832 207.037 272.56 206.845 274.456C206.677 276.352 206.365 278.476 205.909 280.828L201.121 280.324C201.793 276.988 202.177 274.084 202.273 271.612C202.369 269.116 202.417 266.86 202.417 264.844V261.676ZM230.242 269.272H239.026V273.124H230.242V269.272ZM221.17 261.388H225.022V266.248C225.022 268.336 224.842 270.364 224.482 272.332C224.122 274.3 223.57 276.136 222.826 277.84C222.082 279.544 221.134 281.044 219.982 282.34C218.854 283.636 217.51 284.68 215.95 285.472L212.962 281.656C214.378 280.984 215.59 280.108 216.598 279.028C217.63 277.948 218.482 276.724 219.154 275.356C219.85 273.964 220.354 272.5 220.666 270.964C221.002 269.404 221.17 267.832 221.17 266.248V261.388ZM222.142 261.388H225.958V266.248C225.958 267.808 226.114 269.356 226.426 270.892C226.738 272.404 227.206 273.82 227.83 275.14C228.478 276.46 229.306 277.636 230.314 278.668C231.322 279.676 232.522 280.492 233.914 281.116L231.034 284.932C229.474 284.164 228.13 283.156 227.002 281.908C225.874 280.636 224.95 279.184 224.23 277.552C223.534 275.92 223.006 274.144 222.646 272.224C222.31 270.304 222.142 268.312 222.142 266.248V261.388ZM236.614 258.796H241.402V292.24H236.614V258.796ZM262.912 261.424H266.764V266.248C266.764 268.312 266.584 270.328 266.224 272.296C265.864 274.24 265.3 276.052 264.532 277.732C263.788 279.412 262.84 280.912 261.688 282.232C260.536 283.528 259.18 284.56 257.62 285.328L254.74 281.476C256.156 280.828 257.368 279.964 258.376 278.884C259.408 277.804 260.26 276.58 260.932 275.212C261.604 273.844 262.096 272.404 262.408 270.892C262.744 269.356 262.912 267.808 262.912 266.248V261.424ZM263.848 261.424H267.7V266.248C267.7 267.76 267.844 269.248 268.132 270.712C268.444 272.176 268.912 273.568 269.536 274.888C270.184 276.184 270.988 277.348 271.948 278.38C272.908 279.412 274.06 280.264 275.404 280.936L272.488 284.752C271 283.984 269.704 282.976 268.6 281.728C267.52 280.456 266.632 279.004 265.936 277.372C265.24 275.716 264.712 273.952 264.352 272.08C264.016 270.184 263.848 268.24 263.848 266.248V261.424ZM276.7 258.868H281.524V292.204H276.7V258.868ZM280.48 271.684H286.348V275.644H280.48V271.684ZM296.965 262.576H300.925V265.384C300.925 267.472 300.577 269.464 299.881 271.36C299.209 273.232 298.177 274.876 296.785 276.292C295.393 277.684 293.617 278.728 291.457 279.424L289.009 275.68C290.881 275.08 292.393 274.24 293.545 273.16C294.721 272.08 295.585 270.868 296.137 269.524C296.689 268.156 296.965 266.776 296.965 265.384V262.576ZM297.973 262.576H301.861V265.384C301.861 266.368 302.017 267.352 302.329 268.336C302.641 269.296 303.109 270.22 303.733 271.108C304.381 271.972 305.197 272.752 306.181 273.448C307.165 274.144 308.329 274.708 309.673 275.14L307.261 278.848C305.173 278.176 303.445 277.168 302.077 275.824C300.709 274.48 299.677 272.908 298.981 271.108C298.309 269.284 297.973 267.376 297.973 265.384V262.576ZM290.305 261.208H308.449V265.024H290.305V261.208ZM311.797 258.868H316.585V282.916H311.797V258.868ZM294.373 287.776H317.449V291.628H294.373V287.776ZM294.373 280.756H299.161V289.684H294.373V280.756Z" fill="black"/>
</svg>
