<svg width="1920" height="1080" viewBox="0 0 1920 1080" fill="none" xmlns="http://www.w3.org/2000/svg">
<g clip-path="url(#clip0_61_1998)">
<rect width="1920" height="1080" fill="white"/>
<rect x="155" y="74" width="60" height="62" rx="30" fill="#F4F4F4"/>
<path d="M173 116.31V101.621C173 101.188 173.098 100.779 173.295 100.392C173.491 100.006 173.762 99.6876 174.107 99.4375L183.339 92.5459C183.822 92.182 184.374 92 184.995 92C185.615 92 186.171 92.182 186.661 92.5459L195.893 99.4358C196.239 99.6859 196.51 100.005 196.705 100.392C196.902 100.779 197 101.188 197 101.621V116.31C197 116.763 196.829 117.158 196.487 117.495C196.146 117.832 195.745 118 195.286 118H189.485C189.091 118 188.762 117.869 188.497 117.608C188.232 117.345 188.099 117.021 188.099 116.635V108.575C188.099 108.189 187.967 107.865 187.702 107.603C187.435 107.341 187.106 107.21 186.714 107.21H183.286C182.894 107.21 182.565 107.341 182.3 107.603C182.034 107.865 181.901 108.189 181.901 108.575V116.636C181.901 117.023 181.768 117.347 181.503 117.608C181.238 117.869 180.909 118 180.517 118H174.714C174.255 118 173.854 117.832 173.513 117.495C173.171 117.158 173 116.763 173 116.31Z" fill="black"/>
<path d="M228.875 116V113.656L236.229 106.244C238.543 103.812 239.715 102.465 239.715 100.619C239.715 98.5391 238.016 97.1914 235.789 97.1914C233.445 97.1914 231.922 98.6855 231.922 100.941H228.875C228.846 97.0742 231.805 94.4961 235.848 94.4961C239.949 94.4961 242.762 97.0742 242.791 100.531C242.762 102.904 241.648 104.779 237.664 108.705L233.357 113.07V113.246H243.143V116H228.875ZM266.734 92.2109V99.8281H270.571V102.143H266.734V111.225H263.95V92.2109H266.734ZM258.999 94.4668V96.7227H250.034V104.369C255.147 104.384 258.032 104.223 261.314 103.549L261.636 105.805C258.091 106.508 254.986 106.684 249.361 106.684H247.28V94.4668H258.999ZM267.847 115.678V117.934H250.093V109.262H252.876V115.678H267.847ZM294.895 92.2402V118.49H292.258V92.2402H294.895ZM289.534 92.9141V117.201H286.897V108.266H282.414V105.98H286.897V101.703H282.854C281.579 106.112 278.782 109.936 273.83 112.895L272.19 110.902C277.756 107.592 280.437 103.183 280.92 97.7773H273.479V95.4922H283.674C283.674 96.8398 283.572 98.1436 283.352 99.418H286.897V92.9141H289.534ZM330.212 112.895V115.209H306.188V112.895H316.764V106.83H308.942V94.3496H327.341V106.83H319.518V112.895H330.212ZM311.637 96.5762V104.633H324.616V96.5762H311.637ZM354.887 92.2695V106.156H352.25V92.2695H354.887ZM349.76 92.7676V105.951H347.123V100.092H342.143V97.9531H347.123V92.7676H349.76ZM343.754 93.6758V95.9023H336.43V102.787C339.799 102.802 342.113 102.67 344.867 102.172L345.043 104.398C341.967 104.955 339.447 105.043 335.346 105.043H333.646V93.6758H343.754ZM354.887 107.211V113.598H340.004V115.941H355.824V118.168H337.25V111.488H352.191V109.408H337.191V107.211H354.887ZM381.942 94.9062V97.1328H366.297V94.9062H372.743V92.123H375.526V94.9062H381.942ZM374.12 98.3047C377.899 98.334 380.477 100.209 380.477 103.08C380.477 105.951 377.899 107.855 374.12 107.855C370.311 107.855 367.733 105.951 367.733 103.08C367.733 100.209 370.311 98.334 374.12 98.3047ZM374.12 100.443C371.893 100.443 370.399 101.469 370.428 103.08C370.399 104.721 371.893 105.688 374.12 105.688C376.346 105.688 377.84 104.721 377.87 103.08C377.84 101.469 376.346 100.443 374.12 100.443ZM386.893 92.2402V99.3594H390.702V101.674H386.893V108.646H384.11V92.2402H386.893ZM386.893 109.994V118.49H384.11V112.25H369.549V109.994H386.893ZM398.209 107.973V110.756H410.543V107.973H413.326V118.168H395.455V107.973H398.209ZM398.209 115.941H410.543V112.924H398.209V115.941ZM416.431 104.018V106.332H392.496V104.018H416.431ZM405.884 93.6465C405.884 96.6641 410.074 99.5938 415.113 100.209L414.117 102.406C409.854 101.806 406.148 99.7988 404.478 97.0156C402.764 99.8135 399.044 101.806 394.839 102.406L393.785 100.209C398.882 99.5645 403.043 96.752 403.043 93.6465V92.5332H405.884V93.6465Z" fill="black"/>
<path d="M1864 175C1864 158.431 1877.43 145 1894 145H1924V385H1894C1877.43 385 1864 371.569 1864 355V175Z" fill="#F4F4F4"/>
<rect x="1579" y="75" width="173" height="60" rx="30" fill="#F4F4F4"/>
<rect width="1920" height="40" fill="#C3C3C3"/>
<path d="M1769.81 22.0494L1769.69 20.8621L1769.65 20.8657L1769.61 20.8728L1769.81 22.0494ZM1769.81 22.0494L1769.93 23.2366L1769.97 23.233L1770 23.2271L1769.81 22.0494ZM1764.99 28.5907L1765.74 27.6671L1765.73 27.6599L1764.99 28.5907ZM1764.99 28.5907L1764.23 29.5142L1764.24 29.5226L1764.99 28.5907ZM1754.01 28.5907L1753.26 27.6683L1753.24 27.6838L1753.22 27.6993L1754.01 28.5907ZM1754.01 28.5907L1754.77 29.5154L1754.79 29.4999L1754.81 29.4832L1754.01 28.5907ZM1749.19 16.9519V15.7586H1749.13L1749.07 15.7646L1749.19 16.9519ZM1749.19 16.9519V18.1451H1749.25L1749.31 18.1391L1749.19 16.9519ZM1763.24 9.07293C1763.22 8.84341 1763.19 8.61459 1763.15 8.38682C1763.12 8.13607 1763.04 7.89278 1762.93 7.6661L1760.81 8.76149C1760.78 8.7078 1760.79 8.68871 1760.8 8.78297C1760.82 8.88917 1760.83 9.03713 1760.86 9.31158L1763.24 9.07293ZM1763.35 10.2065C1763.43 10.3043 1763.4 10.3485 1763.36 10.1158C1763.32 9.89387 1763.29 9.58244 1763.24 9.07293L1760.86 9.31038C1760.91 9.78052 1760.95 10.2029 1761.01 10.5394C1761.07 10.8616 1761.17 11.2852 1761.45 11.6527L1763.35 10.2065ZM1763.35 10.2065L1761.45 11.6527C1761.71 11.9878 1762.05 12.2494 1762.44 12.4107C1762.82 12.5721 1763.25 12.6276 1763.67 12.5715L1763.35 10.2065ZM1764.23 9.48459C1763.96 9.71061 1763.69 9.9275 1763.41 10.1349C1763.21 10.2697 1763.23 10.222 1763.35 10.2065L1763.67 12.5715C1764.13 12.5094 1764.5 12.2827 1764.77 12.0942C1765.05 11.9009 1765.38 11.6312 1765.74 11.3317L1764.23 9.48459ZM1765.44 8.70899C1765.2 8.7889 1764.98 8.90651 1764.77 9.05742C1764.61 9.17674 1764.42 9.33067 1764.23 9.48459L1765.74 11.3317C1765.95 11.1575 1766.07 11.0632 1766.16 11.0012C1766.24 10.9451 1766.23 10.9642 1766.17 10.9821L1765.44 8.70899ZM1767.12 8.79252C1766.59 8.56287 1765.99 8.5332 1765.44 8.70899L1766.17 10.9821L1767.12 8.79252ZM1768.25 9.68506C1768.09 9.51987 1767.92 9.35989 1767.75 9.20538C1767.56 9.03506 1767.35 8.8957 1767.12 8.79252L1766.17 10.9821C1766.11 10.9582 1766.11 10.9391 1766.18 11.0024C1766.26 11.074 1766.37 11.1778 1766.56 11.3723L1768.25 9.68506ZM1769.31 10.7518L1768.25 9.68506L1766.56 11.3723L1767.63 12.439L1769.31 10.7518ZM1770.21 11.8806C1770.1 11.6492 1769.96 11.4358 1769.79 11.2482C1769.64 11.0776 1769.48 10.9121 1769.31 10.7518L1767.63 12.4402C1767.82 12.6347 1767.92 12.7409 1768 12.8221C1768.06 12.8937 1768.04 12.8853 1768.02 12.8304L1770.21 11.8806ZM1770.29 13.5559C1770.47 13.0058 1770.44 12.4105 1770.21 11.8806L1768.02 12.8304L1770.29 13.5559ZM1769.51 14.7682C1769.66 14.5919 1769.8 14.4108 1769.94 14.2253C1770.07 14.0487 1770.2 13.8292 1770.29 13.5559L1768.02 12.8304C1768.03 12.7743 1768.05 12.7624 1768 12.8412C1767.94 12.9283 1767.84 13.044 1767.67 13.2576L1769.51 14.7682ZM1768.79 15.65C1768.78 15.7729 1768.73 15.7873 1768.86 15.5928C1768.99 15.4078 1769.19 15.1644 1769.51 14.7682L1767.67 13.2576C1767.37 13.6227 1767.1 13.9509 1766.9 14.2313C1766.72 14.501 1766.49 14.8732 1766.43 15.3314L1768.79 15.65ZM1768.79 15.65L1766.43 15.3314C1766.37 15.749 1766.43 16.174 1766.59 16.5632C1766.75 16.9524 1767.01 17.2919 1767.35 17.5473L1768.79 15.65ZM1769.93 15.7634C1769.58 15.7342 1769.23 15.6932 1768.88 15.6405C1768.65 15.5987 1768.69 15.5749 1768.79 15.65L1767.35 17.5473C1767.71 17.8277 1768.14 17.9303 1768.46 17.9888C1768.8 18.0484 1769.22 18.0902 1769.69 18.1379L1769.93 15.7634ZM1771.33 16.0713C1771.11 15.9579 1770.86 15.8814 1770.61 15.8445C1770.38 15.8101 1770.16 15.7831 1769.93 15.7634L1769.69 18.1379C1769.87 18.1535 1770.04 18.1733 1770.22 18.1976C1770.31 18.2143 1770.29 18.2203 1770.24 18.1928L1771.33 16.0713ZM1772.46 17.3158C1772.25 16.7784 1771.85 16.3362 1771.33 16.0713L1770.24 18.1952L1772.46 17.3158ZM1772.62 18.7453C1772.62 18.5019 1772.63 18.2596 1772.61 18.0544C1772.6 17.8011 1772.55 17.5514 1772.46 17.3146L1770.24 18.1952C1770.22 18.1391 1770.23 18.12 1770.23 18.2155C1770.24 18.3229 1770.24 18.472 1770.24 18.7477L1772.62 18.7453ZM1772.62 20.2535V18.7453H1770.24V20.2535H1772.62ZM1772.46 21.683C1772.56 21.4169 1772.6 21.1616 1772.61 20.9432C1772.63 20.7392 1772.62 20.497 1772.62 20.2535H1770.24C1770.24 20.5292 1770.24 20.6783 1770.23 20.7857C1770.22 20.8812 1770.22 20.8621 1770.24 20.806L1772.46 21.683ZM1771.33 22.9276C1771.85 22.6626 1772.25 22.2204 1772.46 21.683L1770.24 20.8072L1771.33 22.9276ZM1769.93 23.2354C1770.17 23.2116 1770.41 23.1877 1770.61 23.1543C1770.83 23.1185 1771.08 23.0588 1771.33 22.9276L1770.24 20.8072C1770.29 20.7798 1770.31 20.7857 1770.22 20.8012C1770.04 20.8264 1769.87 20.8467 1769.69 20.8621L1769.93 23.2354ZM1768.79 23.3488C1768.69 23.424 1768.65 23.4001 1768.88 23.3583C1769.1 23.319 1769.42 23.2867 1769.93 23.2354L1769.69 20.8609C1769.22 20.9086 1768.8 20.9492 1768.46 21.0101C1768.14 21.0685 1767.71 21.1711 1767.35 21.4515L1768.79 23.3488ZM1768.79 23.3488L1767.35 21.4515C1767.01 21.7069 1766.75 22.0464 1766.59 22.4356C1766.43 22.8248 1766.37 23.2498 1766.43 23.6674L1768.79 23.3488ZM1769.51 24.2294C1769.29 23.9624 1769.07 23.6878 1768.86 23.4061C1768.73 23.2116 1768.78 23.2259 1768.79 23.3488L1766.43 23.6674C1766.49 24.1256 1766.72 24.4979 1766.9 24.7675C1767.1 25.048 1767.37 25.3761 1767.67 25.7412L1769.51 24.2294ZM1770.29 25.4417C1770.21 25.2019 1770.09 24.9764 1769.94 24.7735C1769.82 24.6053 1769.67 24.4191 1769.51 24.2294L1767.67 25.7412C1767.84 25.9548 1767.94 26.0694 1768 26.1577C1768.05 26.2352 1768.04 26.2257 1768.02 26.1696L1770.29 25.4417ZM1770.21 27.1182C1770.44 26.5879 1770.47 25.9922 1770.29 25.4417L1768.02 26.1696L1770.21 27.1182ZM1769.31 28.247C1769.49 28.074 1769.66 27.9046 1769.79 27.7494C1769.94 27.5848 1770.09 27.3807 1770.21 27.117L1768.02 26.1684C1768.04 26.1135 1768.06 26.1064 1768 26.178C1767.92 26.2591 1767.82 26.3641 1767.63 26.5598L1769.31 28.247ZM1768.25 29.3126L1769.31 28.247L1767.63 26.5598L1766.56 27.6253L1768.25 29.3126ZM1767.12 30.2063C1767.35 30.1028 1767.56 29.963 1767.75 29.7923C1767.9 29.6574 1768.08 29.4856 1768.25 29.3126L1766.56 27.6253C1766.44 27.7522 1766.31 27.8755 1766.18 27.9952C1766.11 28.0597 1766.11 28.0406 1766.17 28.0167L1767.12 30.2063ZM1765.44 30.2898C1765.99 30.4656 1766.59 30.436 1767.12 30.2063L1766.17 28.0167L1765.44 30.2898ZM1764.23 29.5142C1764.42 29.6682 1764.61 29.8221 1764.77 29.9414C1764.95 30.0667 1765.17 30.2027 1765.44 30.2898L1766.17 28.0167C1766.23 28.0346 1766.24 28.0525 1766.16 27.9976C1766.02 27.8913 1765.88 27.7811 1765.74 27.6671L1764.23 29.5142ZM1763.35 28.7935C1763.23 28.7756 1763.21 28.7279 1763.41 28.8627C1763.59 28.9916 1763.83 29.1885 1764.23 29.513L1765.74 27.6671C1765.38 27.3676 1765.05 27.0979 1764.77 26.9034C1764.5 26.7149 1764.13 26.4894 1763.67 26.4273L1763.35 28.7935ZM1763.35 28.7935L1763.67 26.4273C1763.25 26.3713 1762.82 26.4267 1762.44 26.5881C1762.05 26.7495 1761.71 27.011 1761.45 27.3461L1763.35 28.7935ZM1763.24 29.9259C1763.29 29.4164 1763.32 29.1038 1763.36 28.883C1763.4 28.6503 1763.42 28.6933 1763.35 28.7923L1761.45 27.3449C1761.17 27.7125 1761.07 28.136 1761.01 28.4594C1760.95 28.7959 1760.91 29.2183 1760.86 29.6884L1763.24 29.9259ZM1762.93 31.3327C1763.06 31.0774 1763.12 30.8268 1763.15 30.612C1763.19 30.4092 1763.21 30.1693 1763.24 29.9259L1760.86 29.6884C1760.85 29.8656 1760.83 30.0411 1760.8 30.2171C1760.78 30.3125 1760.78 30.2922 1760.81 30.2385L1762.93 31.3327ZM1761.68 32.4579C1762.22 32.2454 1762.66 31.8456 1762.93 31.3327L1760.81 30.2397L1761.68 32.4579ZM1760.25 32.625C1760.5 32.625 1760.74 32.625 1760.94 32.6119C1761.16 32.5976 1761.42 32.5653 1761.68 32.4579L1760.81 30.2397C1760.86 30.2182 1760.88 30.2254 1760.79 30.2326C1760.61 30.2399 1760.43 30.2423 1760.25 30.2397L1760.25 32.625ZM1758.75 32.625H1760.25L1760.25 30.2385H1758.75V32.625ZM1757.32 32.4579C1757.58 32.563 1757.84 32.5976 1758.06 32.6119C1758.26 32.625 1758.5 32.625 1758.75 32.625V30.2385C1758.47 30.2385 1758.32 30.2385 1758.21 30.2314C1758.12 30.2242 1758.14 30.2171 1758.19 30.2385L1757.32 32.4579ZM1756.07 31.3327C1756.34 31.8461 1756.78 32.2459 1757.32 32.4579L1758.19 30.2385L1756.07 31.3327ZM1755.76 29.9259C1755.79 30.1693 1755.81 30.4092 1755.84 30.612C1755.88 30.8268 1755.94 31.0774 1756.07 31.3327L1758.2 30.2397C1758.22 30.2922 1758.22 30.3125 1758.2 30.2182C1758.18 30.0426 1758.16 29.8664 1758.14 29.6896L1755.76 29.9259ZM1755.65 28.7923C1755.57 28.6945 1755.6 28.6491 1755.64 28.883C1755.68 29.1038 1755.71 29.4164 1755.76 29.9259L1758.14 29.6884C1758.09 29.2183 1758.05 28.7959 1757.99 28.4594C1757.93 28.1372 1757.83 27.7136 1757.55 27.3461L1755.65 28.7923ZM1755.65 28.7923L1757.55 27.3461C1757.29 27.011 1756.95 26.7495 1756.56 26.5881C1756.17 26.4267 1755.75 26.3713 1755.33 26.4273L1755.65 28.7923ZM1754.77 29.5142C1755.17 29.1897 1755.41 28.9916 1755.59 28.8639C1755.79 28.7291 1755.77 28.7768 1755.65 28.7923L1755.33 26.4273C1754.87 26.4894 1754.5 26.7161 1754.23 26.9046C1753.95 27.0979 1753.62 27.3676 1753.26 27.6671L1754.77 29.5142ZM1753.56 30.2898C1753.8 30.2099 1754.02 30.0923 1754.23 29.9414C1754.39 29.8221 1754.58 29.6682 1754.77 29.5142L1753.26 27.6683C1753.12 27.7823 1752.98 27.8926 1752.84 27.9988C1752.76 28.0549 1752.78 28.037 1752.83 28.0179L1753.56 30.2898ZM1751.88 30.2063C1752.41 30.436 1753.01 30.4656 1753.56 30.2898L1752.83 28.0167L1751.88 30.2063ZM1750.75 29.3138C1750.92 29.4868 1751.09 29.6574 1751.25 29.7935C1751.41 29.9366 1751.62 30.093 1751.88 30.2075L1752.83 28.0167C1752.88 28.0406 1752.89 28.0597 1752.82 27.9964C1752.69 27.8767 1752.56 27.7534 1752.44 27.6265L1750.75 29.3138ZM1749.69 28.247L1750.75 29.3138L1752.44 27.6265L1751.37 26.5598L1749.69 28.247ZM1748.79 27.1182C1748.91 27.3807 1749.06 27.586 1749.21 27.7506C1749.34 27.9046 1749.51 28.0752 1749.69 28.247L1751.37 26.5598C1751.25 26.436 1751.12 26.3086 1751 26.178C1750.94 26.1064 1750.96 26.1147 1750.98 26.1696L1748.79 27.1182ZM1748.71 25.4429C1748.53 25.9931 1748.56 26.5883 1748.79 27.1182L1750.98 26.1696L1748.71 25.4429ZM1749.48 24.2306C1749.34 24.4069 1749.19 24.588 1749.06 24.7735C1748.91 24.9768 1748.79 25.2027 1748.71 25.4429L1750.98 26.1696C1750.96 26.2257 1750.95 26.2364 1751 26.1577C1751.06 26.0706 1751.16 25.9548 1751.33 25.7412L1749.48 24.2306ZM1750.21 23.3488C1750.22 23.2259 1750.27 23.2116 1750.13 23.4061C1750.01 23.591 1749.81 23.8344 1749.48 24.2306L1751.33 25.7412C1751.63 25.3761 1751.9 25.048 1752.1 24.7675C1752.28 24.4979 1752.51 24.1256 1752.57 23.6674L1750.21 23.3488ZM1750.21 23.3488L1752.57 23.6674C1752.63 23.2498 1752.57 22.8248 1752.41 22.4356C1752.25 22.0464 1751.99 21.7069 1751.65 21.4515L1750.21 23.3488ZM1749.07 23.2354C1749.58 23.2867 1749.9 23.319 1750.12 23.3583C1750.35 23.4001 1750.3 23.424 1750.21 23.3488L1751.65 21.4515C1751.29 21.1711 1750.86 21.0685 1750.54 21.0101C1750.2 20.9504 1749.78 20.9086 1749.31 20.8609L1749.07 23.2354ZM1747.67 22.9276C1747.92 23.0588 1748.17 23.1185 1748.39 23.1543C1748.59 23.1877 1748.83 23.2128 1749.07 23.2366L1749.31 20.8609C1749.13 20.8459 1748.96 20.826 1748.78 20.8012C1748.69 20.7845 1748.71 20.7786 1748.76 20.806L1747.67 22.9276ZM1746.54 21.6842C1746.75 22.2216 1747.15 22.6638 1747.67 22.9288L1748.76 20.8072L1746.54 21.6842ZM1746.38 20.2547C1746.38 20.4982 1746.38 20.7404 1746.39 20.9456C1746.4 21.1628 1746.44 21.4181 1746.54 21.6854L1748.76 20.806C1748.78 20.8621 1748.78 20.8812 1748.77 20.7857C1748.76 20.6088 1748.76 20.4318 1748.76 20.2547H1746.38ZM1746.38 18.7465V20.2547H1748.76V18.7465H1746.38ZM1746.54 17.3158C1746.45 17.5527 1746.4 17.8024 1746.39 18.0556C1746.37 18.2608 1746.38 18.5031 1746.38 18.7477H1748.76C1748.76 18.4708 1748.76 18.3217 1748.77 18.2143C1748.78 18.1188 1748.78 18.1379 1748.76 18.194L1746.54 17.3158ZM1747.67 16.0736C1747.15 16.338 1746.75 16.7793 1746.54 17.3158L1748.76 18.194L1747.67 16.0736ZM1749.07 15.7634C1748.83 15.7885 1748.59 15.8111 1748.39 15.8469C1748.17 15.8827 1747.92 15.9424 1747.67 16.0736L1748.76 18.194C1748.71 18.2215 1748.69 18.2155 1748.78 18.2C1748.96 18.1748 1749.13 18.1545 1749.31 18.1391L1749.07 15.7634ZM1750.21 15.6512C1750.31 15.5761 1750.35 15.5999 1750.12 15.6417C1749.9 15.6811 1749.58 15.7133 1749.07 15.7646L1749.31 18.1391C1749.78 18.0914 1750.2 18.0508 1750.54 17.99C1750.86 17.9315 1751.29 17.8289 1751.66 17.5485L1750.21 15.6512ZM1750.21 15.6512L1751.66 17.5485C1751.99 17.293 1752.25 16.9534 1752.41 16.5642C1752.57 16.175 1752.63 15.7501 1752.57 15.3326L1750.21 15.6512ZM1749.49 14.7694C1749.81 15.1656 1750.01 15.409 1750.14 15.594C1750.27 15.7885 1750.22 15.7741 1750.21 15.6512L1752.57 15.3326C1752.51 14.8744 1752.29 14.5033 1752.1 14.2325C1751.9 13.9521 1751.63 13.6239 1751.33 13.2588L1749.49 14.7694ZM1748.71 13.5559C1748.8 13.8304 1748.93 14.0487 1749.06 14.2265C1749.18 14.3936 1749.33 14.5809 1749.49 14.7694L1751.33 13.2588C1751.22 13.1227 1751.11 12.9846 1751 12.8424C1750.95 12.7648 1750.97 12.7743 1750.98 12.8304L1748.71 13.5559ZM1748.79 11.8818C1748.56 12.4114 1748.53 13.0061 1748.71 13.5559L1750.98 12.8304L1748.79 11.8818ZM1749.69 10.7518C1749.51 10.9248 1749.34 11.0943 1749.21 11.2494C1749.04 11.4369 1748.9 11.6504 1748.79 11.8818L1750.98 12.8304C1750.96 12.8853 1750.94 12.8937 1751 12.8209C1751.08 12.7397 1751.18 12.6347 1751.37 12.439L1749.69 10.7518ZM1750.75 9.68625L1749.69 10.7518L1751.37 12.439L1752.44 11.3735L1750.75 9.68625ZM1751.88 8.79252C1751.65 8.89606 1751.44 9.03583 1751.25 9.20657C1751.08 9.3611 1750.91 9.52108 1750.75 9.68625L1752.44 11.3735C1752.64 11.1778 1752.74 11.074 1752.82 11.0036C1752.89 10.9391 1752.89 10.9582 1752.83 10.9821L1751.88 8.79252ZM1753.56 8.70899C1753.01 8.5332 1752.41 8.56287 1751.88 8.79252L1752.83 10.9821L1753.56 8.70899ZM1754.77 9.48459C1754.58 9.33067 1754.39 9.17793 1754.23 9.05861C1754.02 8.90728 1753.8 8.78926 1753.56 8.70899L1752.83 10.9821C1752.77 10.9642 1752.76 10.9463 1752.84 11.0012C1752.93 11.0644 1753.05 11.1575 1753.26 11.3329L1754.77 9.48459ZM1755.65 10.2065C1755.77 10.2232 1755.79 10.2709 1755.59 10.1361C1755.31 9.92868 1755.04 9.71178 1754.77 9.48579L1753.26 11.3329C1753.62 11.6312 1753.95 11.9009 1754.23 12.0966C1754.5 12.2839 1754.87 12.5094 1755.33 12.5715L1755.65 10.2065ZM1755.65 10.2065L1755.33 12.5715C1755.75 12.6276 1756.18 12.5721 1756.56 12.4107C1756.95 12.2494 1757.29 11.9878 1757.55 11.6527L1755.65 10.2065ZM1755.76 9.07293C1755.71 9.58363 1755.68 9.89626 1755.64 10.117C1755.6 10.3497 1755.58 10.3055 1755.65 10.2065L1757.55 11.6527C1757.83 11.2852 1757.93 10.8628 1757.99 10.5394C1758.05 10.2041 1758.09 9.78052 1758.14 9.31038L1755.76 9.07293ZM1756.07 7.6673C1755.96 7.89397 1755.88 8.13726 1755.85 8.38801C1755.81 8.59086 1755.79 8.8307 1755.76 9.07412L1758.14 9.31038C1758.15 9.13372 1758.17 8.95865 1758.2 8.78297C1758.22 8.68751 1758.22 8.70899 1758.19 8.76149L1756.07 7.6673ZM1757.32 6.54208C1756.78 6.75415 1756.34 7.15395 1756.07 7.6673L1758.19 8.76149L1757.32 6.54208ZM1758.75 6.37502C1758.5 6.37502 1758.26 6.37502 1758.06 6.38815C1757.8 6.39984 1757.55 6.4518 1757.32 6.54208L1758.2 8.76149C1758.14 8.78297 1758.12 8.77581 1758.22 8.76985C1758.32 8.76269 1758.47 8.76149 1758.75 8.76149L1758.75 6.37502ZM1760.25 6.37502H1758.75V8.76149H1760.25V6.37502ZM1761.68 6.54208C1761.45 6.4518 1761.2 6.39984 1760.94 6.38815C1760.74 6.37383 1760.5 6.37502 1760.26 6.37502V8.76149C1760.53 8.76149 1760.68 8.76149 1760.79 8.76985C1760.88 8.77581 1760.86 8.78297 1760.81 8.76149L1761.68 6.54208ZM1762.93 7.6673C1762.66 7.15395 1762.22 6.75415 1761.68 6.54208L1760.81 8.76149L1762.93 7.6673ZM1763.08 19.5006C1763.08 20.45 1762.7 21.3605 1762.03 22.0318C1761.36 22.7032 1760.45 23.0803 1759.5 23.0803V25.4668C1761.08 25.4668 1762.6 24.8382 1763.72 23.7193C1764.84 22.6005 1765.47 21.0829 1765.47 19.5006H1763.08ZM1759.5 15.9209C1760.45 15.9209 1761.36 16.298 1762.03 16.9694C1762.7 17.6407 1763.08 18.5512 1763.08 19.5006H1765.47C1765.47 17.9183 1764.84 16.4008 1763.72 15.2819C1762.6 14.163 1761.08 13.5344 1759.5 13.5344V15.9209ZM1755.92 19.5006C1755.92 18.5512 1756.3 17.6407 1756.97 16.9694C1757.64 16.298 1758.55 15.9209 1759.5 15.9209V13.5344C1757.92 13.5344 1756.4 14.163 1755.28 15.2819C1754.16 16.4008 1753.53 17.9183 1753.53 19.5006H1755.92ZM1759.5 23.0803C1758.55 23.0803 1757.64 22.7032 1756.97 22.0318C1756.3 21.3605 1755.92 20.45 1755.92 19.5006H1753.53C1753.53 21.0829 1754.16 22.6005 1755.28 23.7193C1756.4 24.8382 1757.92 25.4668 1759.5 25.4668V23.0803Z" fill="black"/>
<rect width="40" height="40" transform="translate(1800)" fill="#A2A2A2"/>
<path fill-rule="evenodd" clip-rule="evenodd" d="M1811 27C1811 26.7348 1811.11 26.4804 1811.29 26.2929C1811.48 26.1054 1811.73 26 1812 26H1828C1828.27 26 1828.52 26.1054 1828.71 26.2929C1828.89 26.4804 1829 26.7348 1829 27C1829 27.2652 1828.89 27.5196 1828.71 27.7071C1828.52 27.8946 1828.27 28 1828 28H1812C1811.73 28 1811.48 27.8946 1811.29 27.7071C1811.11 27.5196 1811 27.2652 1811 27Z" fill="black"/>
<rect width="40" height="40" transform="translate(1840)" fill="#777777"/>
<path d="M1853 29C1852.45 29 1851.98 28.8043 1851.59 28.413C1851.2 28.0217 1851 27.5507 1851 27V13C1851 12.45 1851.2 11.9793 1851.59 11.588C1851.98 11.1967 1852.45 11.0007 1853 11H1867C1867.55 11 1868.02 11.196 1868.41 11.588C1868.81 11.98 1869 12.4507 1869 13V27C1869 27.55 1868.8 28.021 1868.41 28.413C1868.02 28.805 1867.55 29.0007 1867 29H1853ZM1853 27H1867V13H1853V27Z" fill="black"/>
<rect width="40" height="40" transform="translate(1880)" fill="#FD8787"/>
<g clip-path="url(#clip1_61_1998)">
<path fill-rule="evenodd" clip-rule="evenodd" d="M1893.19 11.3765C1892.95 11.1423 1892.63 11.0127 1892.29 11.0157C1891.95 11.0186 1891.63 11.1538 1891.39 11.3922C1891.15 11.6306 1891.02 11.9531 1891.02 12.2902C1891.01 12.6273 1891.14 12.9521 1891.38 13.1945L1898.18 19.9998L1891.38 26.8051C1891.25 26.9237 1891.16 27.0656 1891.09 27.2225C1891.02 27.3793 1890.99 27.548 1890.98 27.7187C1890.98 27.8895 1891.02 28.0588 1891.08 28.2168C1891.14 28.3748 1891.24 28.5183 1891.36 28.639C1891.48 28.7598 1891.63 28.8552 1891.78 28.9199C1891.94 28.9845 1892.11 29.0171 1892.28 29.0156C1892.45 29.0141 1892.62 28.9786 1892.78 28.9112C1892.93 28.8439 1893.08 28.7459 1893.19 28.6231L1900 21.8178L1906.81 28.6231C1907.05 28.8573 1907.37 28.9869 1907.71 28.984C1908.05 28.9811 1908.37 28.8458 1908.61 28.6075C1908.85 28.3691 1908.98 28.0466 1908.98 27.7095C1908.99 27.3724 1908.86 27.0476 1908.62 26.8051L1901.82 19.9998L1908.62 13.1945C1908.86 12.9521 1908.99 12.6273 1908.98 12.2902C1908.98 11.9531 1908.85 11.6306 1908.61 11.3922C1908.37 11.1538 1908.05 11.0186 1907.71 11.0157C1907.37 11.0127 1907.05 11.1423 1906.81 11.3765L1900 18.1818L1893.19 11.3765Z" fill="black"/>
</g>
<path d="M57.7109 15.3848C57.5059 13.4219 55.7773 12.2793 53.3457 12.2793C50.7383 12.2793 49.0977 13.5977 49.0977 15.4141C49.0977 17.4355 51.2949 18.1973 52.9648 18.6074L55.0156 19.1641C57.7402 19.8086 61.1094 21.3027 61.1387 25.1406C61.1094 28.7148 58.2676 31.3516 53.2578 31.3516C48.5117 31.3516 45.5234 28.9785 45.3184 25.1113H48.541C48.7461 27.4258 50.7676 28.5391 53.2578 28.5391C55.9531 28.5391 57.916 27.1621 57.9453 25.082C57.916 23.2363 56.1875 22.4746 53.9316 21.8887L51.4121 21.2148C48.0137 20.2773 45.875 18.5488 45.875 15.5898C45.875 11.9277 49.1562 9.49609 53.4336 9.49609C57.7402 9.49609 60.7578 11.957 60.8457 15.3848H57.7109ZM66.5363 31H63.1086L70.7258 9.78906H74.4465L82.093 31H78.6652L76.7316 25.4043H68.4699L66.5363 31ZM69.4074 22.709H75.7941L72.6594 13.6562H72.5129L69.4074 22.709ZM88.3109 9.78906V31H85.0883V9.78906H88.3109Z" fill="black"/>
<rect x="132" y="145" width="1643" height="900" rx="30" fill="#F4F4F4"/>
<rect x="185" y="195" width="493" height="469" rx="30" fill="#E7E7E7"/>
<rect x="215" y="225" width="433" height="235" rx="20" fill="#C0C0C0"/>
<g filter="url(#filter0_d_61_1998)">
<rect x="275" y="302" width="313" height="81" rx="20" fill="#D9D9D9"/>
<rect x="495" y="285" width="60" height="33" rx="16.5" fill="#C0C0C0"/>
<rect x="308" y="366" width="60" height="33" rx="16.5" fill="#D9D9D9"/>
<rect x="295" y="320" width="100" height="44" rx="22" fill="#F3F3F3"/>
</g>
<line x1="239" y1="496" x2="434" y2="496" stroke="#C0C0C0" stroke-width="10" stroke-linecap="round"/>
<line x1="239" y1="530" x2="623" y2="530" stroke="#C0C0C0" stroke-width="10" stroke-linecap="round"/>
<line x1="239" y1="564" x2="623" y2="564" stroke="#C0C0C0" stroke-width="10" stroke-linecap="round"/>
<line x1="239" y1="598" x2="623" y2="598" stroke="#C0C0C0" stroke-width="10" stroke-linecap="round"/>
<rect x="182" y="691" width="493" height="304" rx="30" fill="#E7E7E7"/>
<line x1="236" y1="787" x2="431" y2="787" stroke="#C0C0C0" stroke-width="10" stroke-linecap="round"/>
<line x1="236" y1="821" x2="620" y2="821" stroke="#C0C0C0" stroke-width="10" stroke-linecap="round"/>
<line x1="236" y1="855" x2="620" y2="855" stroke="#C0C0C0" stroke-width="10" stroke-linecap="round"/>
<line x1="236" y1="889" x2="620" y2="889" stroke="#C0C0C0" stroke-width="10" stroke-linecap="round"/>
<g clip-path="url(#clip2_61_1998)">
<rect x="1232" y="196" width="493" height="799" rx="30" fill="#E7E7E7"/>
<path d="M1232 226C1232 209.431 1245.43 196 1262 196H1695C1711.57 196 1725 209.431 1725 226V256H1232V226Z" fill="#E7E7E7"/>
<rect width="160" height="60" transform="translate(1232 196)" fill="#8F8F8F"/>
<rect width="160" height="60" transform="translate(1392 196)" fill="#5E5E5E"/>
<path fill-rule="evenodd" clip-rule="evenodd" d="M1516.21 218.595C1515.97 218.394 1515.64 218.283 1515.31 218.286C1514.97 218.288 1514.65 218.404 1514.41 218.608C1514.17 218.813 1514.03 219.089 1514.03 219.378C1514.03 219.667 1514.16 219.945 1514.39 220.153L1521.2 225.986L1514.39 231.819C1514.27 231.921 1514.17 232.043 1514.1 232.177C1514.04 232.312 1514 232.456 1514 232.603C1514 232.749 1514.03 232.894 1514.1 233.029C1514.16 233.165 1514.26 233.288 1514.38 233.391C1514.5 233.495 1514.64 233.577 1514.8 233.632C1514.96 233.688 1515.13 233.715 1515.3 233.714C1515.47 233.713 1515.64 233.683 1515.79 233.625C1515.95 233.567 1516.09 233.483 1516.21 233.378L1523.02 227.545L1529.82 233.378C1530.06 233.579 1530.39 233.69 1530.73 233.687C1531.06 233.685 1531.39 233.569 1531.62 233.364C1531.86 233.16 1532 232.884 1532 232.595C1532 232.306 1531.87 232.027 1531.64 231.819L1524.83 225.986L1531.64 220.153C1531.87 219.945 1532 219.667 1532 219.378C1532 219.089 1531.86 218.813 1531.62 218.608C1531.39 218.404 1531.06 218.288 1530.73 218.286C1530.39 218.283 1530.06 218.394 1529.82 218.595L1523.02 224.428L1516.21 218.595Z" fill="black"/>
<rect width="493" height="739" transform="translate(1232 256)" fill="#C0C0C0"/>
<g clip-path="url(#clip3_61_1998)">
<rect x="1655" y="826" width="45" height="130" rx="22.5" fill="#E9E9E9"/>
<rect width="45" height="43" transform="translate(1655 826)" fill="#D6D6D6"/>
<path d="M1678 842C1678 841.735 1677.89 841.48 1677.71 841.293C1677.52 841.105 1677.27 841 1677 841C1676.73 841 1676.48 841.105 1676.29 841.293C1676.11 841.48 1676 841.735 1676 842V847H1671C1670.73 847 1670.48 847.105 1670.29 847.293C1670.11 847.48 1670 847.735 1670 848C1670 848.265 1670.11 848.52 1670.29 848.707C1670.48 848.895 1670.73 849 1671 849H1676V854C1676 854.265 1676.11 854.52 1676.29 854.707C1676.48 854.895 1676.73 855 1677 855C1677.27 855 1677.52 854.895 1677.71 854.707C1677.89 854.52 1678 854.265 1678 854V849H1683C1683.27 849 1683.52 848.895 1683.71 848.707C1683.89 848.52 1684 848.265 1684 848C1684 847.735 1683.89 847.48 1683.71 847.293C1683.52 847.105 1683.27 847 1683 847H1678V842Z" fill="black"/>
<rect width="45" height="43" transform="translate(1655 913)" fill="#D6D6D6"/>
<path d="M1670 935H1684" stroke="black" stroke-width="2" stroke-linecap="round" stroke-linejoin="round"/>
<path d="M1664.97 886.516V895H1663.67V887.805H1663.62L1661.6 889.129V887.898L1663.71 886.516H1664.97ZM1670.2 895.117C1668.23 895.117 1667.08 893.535 1667.08 890.758C1667.08 888.004 1668.26 886.398 1670.2 886.398C1672.15 886.398 1673.32 888.004 1673.32 890.758C1673.32 893.535 1672.16 895.117 1670.2 895.117ZM1670.2 894.004C1671.35 894.004 1672.03 892.879 1672.03 890.758C1672.03 888.648 1671.34 887.488 1670.2 887.488C1669.07 887.488 1668.37 888.648 1668.37 890.758C1668.37 892.879 1669.05 894.004 1670.2 894.004ZM1677.73 895.117C1675.76 895.117 1674.61 893.535 1674.61 890.758C1674.61 888.004 1675.78 886.398 1677.73 886.398C1679.67 886.398 1680.85 888.004 1680.85 890.758C1680.85 893.535 1679.69 895.117 1677.73 895.117ZM1677.73 894.004C1678.88 894.004 1679.56 892.879 1679.56 890.758C1679.56 888.648 1678.86 887.488 1677.73 887.488C1676.59 887.488 1675.9 888.648 1675.9 890.758C1675.9 892.879 1676.58 894.004 1677.73 894.004ZM1684.25 890.547C1683.09 890.559 1682.45 889.691 1682.47 888.438C1682.45 887.195 1683.11 886.34 1684.25 886.34C1685.41 886.34 1686.03 887.195 1686.03 888.438C1686.03 889.703 1685.38 890.559 1684.25 890.547ZM1684.25 889.727C1684.8 889.727 1685.06 889.211 1685.06 888.438C1685.06 887.676 1684.81 887.16 1684.25 887.16C1683.71 887.172 1683.43 887.676 1683.43 888.438C1683.43 889.211 1683.7 889.727 1684.25 889.727ZM1689.6 895.176C1688.44 895.176 1687.81 894.32 1687.82 893.066C1687.81 891.812 1688.48 890.957 1689.6 890.957C1690.76 890.957 1691.38 891.812 1691.38 893.066C1691.38 894.32 1690.74 895.176 1689.6 895.176ZM1689.6 894.344C1690.15 894.344 1690.41 893.828 1690.41 893.066C1690.41 892.293 1690.16 891.777 1689.6 891.777C1689.06 891.789 1688.78 892.305 1688.78 893.066C1688.78 893.828 1689.06 894.344 1689.6 894.344ZM1683.43 895L1689.25 886.516H1690.32L1684.49 895H1683.43Z" fill="black"/>
</g>
<rect x="1655" y="281" width="45" height="45" rx="22.5" fill="#D6D6D6"/>
<path d="M1678.54 305.583H1674.37C1674.1 305.583 1673.83 305.693 1673.64 305.889C1673.44 306.084 1673.33 306.349 1673.33 306.625C1673.33 306.901 1673.44 307.166 1673.64 307.362C1673.83 307.557 1674.1 307.667 1674.37 307.667H1678.54C1678.82 307.667 1679.08 307.557 1679.28 307.362C1679.47 307.166 1679.58 306.901 1679.58 306.625C1679.58 306.349 1679.47 306.084 1679.28 305.889C1679.08 305.693 1678.82 305.583 1678.54 305.583ZM1682.71 295.167H1681.48C1681.26 294.559 1680.87 294.032 1680.34 293.659C1679.81 293.286 1679.19 293.085 1678.54 293.083H1676.46C1675.81 293.085 1675.19 293.286 1674.66 293.659C1674.13 294.032 1673.74 294.559 1673.52 295.167H1672.29C1671.46 295.167 1670.67 295.496 1670.08 296.082C1669.5 296.668 1669.17 297.463 1669.17 298.292V310.792C1669.17 311.621 1669.5 312.415 1670.08 313.002C1670.67 313.588 1671.46 313.917 1672.29 313.917H1682.71C1683.54 313.917 1684.33 313.588 1684.92 313.002C1685.5 312.415 1685.83 311.621 1685.83 310.792V298.292C1685.83 297.463 1685.5 296.668 1684.92 296.082C1684.33 295.496 1683.54 295.167 1682.71 295.167ZM1675.42 296.208C1675.42 295.932 1675.53 295.667 1675.72 295.472C1675.92 295.277 1676.18 295.167 1676.46 295.167H1678.54C1678.82 295.167 1679.08 295.277 1679.28 295.472C1679.47 295.667 1679.58 295.932 1679.58 296.208V297.25H1675.42V296.208ZM1683.75 310.792C1683.75 311.068 1683.64 311.333 1683.44 311.528C1683.25 311.724 1682.98 311.833 1682.71 311.833H1672.29C1672.02 311.833 1671.75 311.724 1671.55 311.528C1671.36 311.333 1671.25 311.068 1671.25 310.792V298.292C1671.25 298.016 1671.36 297.751 1671.55 297.555C1671.75 297.36 1672.02 297.25 1672.29 297.25H1673.33V298.292C1673.33 298.568 1673.44 298.833 1673.64 299.028C1673.83 299.224 1674.1 299.333 1674.37 299.333H1680.62C1680.9 299.333 1681.17 299.224 1681.36 299.028C1681.56 298.833 1681.67 298.568 1681.67 298.292V297.25H1682.71C1682.98 297.25 1683.25 297.36 1683.44 297.555C1683.64 297.751 1683.75 298.016 1683.75 298.292V310.792ZM1680.62 301.417H1674.37C1674.1 301.417 1673.83 301.527 1673.64 301.722C1673.44 301.917 1673.33 302.182 1673.33 302.458C1673.33 302.735 1673.44 303 1673.64 303.195C1673.83 303.39 1674.1 303.5 1674.37 303.5H1680.62C1680.9 303.5 1681.17 303.39 1681.36 303.195C1681.56 303 1681.67 302.735 1681.67 302.458C1681.67 302.182 1681.56 301.917 1681.36 301.722C1681.17 301.527 1680.9 301.417 1680.62 301.417Z" fill="#1B1B1B"/>
<line x1="1285" y1="312" x2="1480" y2="312" stroke="#949494" stroke-width="10" stroke-linecap="round"/>
<line x1="1285" y1="346" x2="1575" y2="346" stroke="#949494" stroke-width="10" stroke-linecap="round"/>
<line x1="1285" y1="380" x2="1522" y2="380" stroke="#949494" stroke-width="10" stroke-linecap="round"/>
<line x1="1285" y1="414" x2="1669" y2="414" stroke="#949494" stroke-width="10" stroke-linecap="round"/>
<line x1="1285" y1="498" x2="1480" y2="498" stroke="#949494" stroke-width="10" stroke-linecap="round"/>
<line x1="1285" y1="532" x2="1575" y2="532" stroke="#949494" stroke-width="10" stroke-linecap="round"/>
<line x1="1285" y1="566" x2="1522" y2="566" stroke="#949494" stroke-width="10" stroke-linecap="round"/>
<line x1="1285" y1="600" x2="1669" y2="600" stroke="#949494" stroke-width="10" stroke-linecap="round"/>
<line x1="1285" y1="670" x2="1480" y2="670" stroke="#949494" stroke-width="10" stroke-linecap="round"/>
<line x1="1285" y1="704" x2="1575" y2="704" stroke="#949494" stroke-width="10" stroke-linecap="round"/>
<line x1="1285" y1="738" x2="1522" y2="738" stroke="#949494" stroke-width="10" stroke-linecap="round"/>
<line x1="1285" y1="772" x2="1669" y2="772" stroke="#949494" stroke-width="10" stroke-linecap="round"/>
<line x1="1285" y1="839" x2="1480" y2="839" stroke="#949494" stroke-width="10" stroke-linecap="round"/>
<line x1="1285" y1="873" x2="1575" y2="873" stroke="#949494" stroke-width="10" stroke-linecap="round"/>
<line x1="1285" y1="907" x2="1522" y2="907" stroke="#949494" stroke-width="10" stroke-linecap="round"/>
<line x1="1285" y1="941" x2="1434" y2="941" stroke="#949494" stroke-width="10" stroke-linecap="round"/>
</g>
<rect width="1920" height="1040" transform="translate(0 40)" fill="black" fill-opacity="0.4"/>
<g clip-path="url(#clip4_61_1998)">
<rect x="708" y="196" width="493" height="799" rx="30" fill="#E7E7E7"/>
<path d="M708 226C708 209.431 721.431 196 738 196H1171C1187.57 196 1201 209.431 1201 226V256H708V226Z" fill="#E7E7E7"/>
<path d="M1173.79 224.998L1164.13 219.458C1163.61 219.156 1163.01 218.998 1162.41 219C1161.81 219.002 1161.21 219.163 1160.69 219.468C1160.17 219.772 1159.74 220.21 1159.44 220.735C1159.15 221.26 1158.99 221.855 1159 222.458V233.578C1159 234.485 1159.36 235.355 1160 235.997C1160.64 236.638 1161.51 236.998 1162.42 236.998C1163.02 236.997 1163.61 236.839 1164.13 236.538L1173.79 230.998C1174.31 230.698 1174.74 230.266 1175.04 229.747C1175.34 229.227 1175.5 228.638 1175.5 228.038C1175.5 227.439 1175.34 226.849 1175.04 226.33C1174.74 225.81 1174.31 225.379 1173.79 225.078V224.998ZM1172.79 229.188L1163.13 234.808C1162.91 234.931 1162.67 234.996 1162.42 234.996C1162.17 234.996 1161.93 234.931 1161.71 234.808C1161.49 234.684 1161.32 234.504 1161.19 234.288C1161.07 234.073 1161 233.828 1161 233.578V222.418C1161 222.169 1161.07 221.924 1161.19 221.708C1161.32 221.492 1161.49 221.313 1161.71 221.188C1161.93 221.067 1162.17 221.002 1162.42 220.998C1162.67 221.003 1162.91 221.069 1163.13 221.188L1172.79 226.768C1173.01 226.893 1173.19 227.072 1173.31 227.288C1173.43 227.504 1173.5 227.749 1173.5 227.998C1173.5 228.248 1173.43 228.493 1173.31 228.709C1173.19 228.924 1173.01 229.104 1172.79 229.228V229.188Z" fill="#1B1B1B"/>
<g clip-path="url(#clip5_61_1998)">
<path d="M753 228L740.5 228" stroke="#1B1B1B" stroke-width="2" stroke-linecap="round"/>
<path d="M746 221.5L739.783 227.717C739.627 227.873 739.627 228.127 739.783 228.283L746 234.5" stroke="#1B1B1B" stroke-width="2" stroke-linecap="round"/>
</g>
<g clip-path="url(#clip6_61_1998)">
<path d="M779.5 228L792 228" stroke="#1B1B1B" stroke-width="2" stroke-linecap="round"/>
<path d="M786.5 221.5L792.717 227.717C792.873 227.873 792.873 228.127 792.717 228.283L786.5 234.5" stroke="#1B1B1B" stroke-width="2" stroke-linecap="round"/>
</g>
<path d="M834.833 221.417C835.099 221.417 835.354 221.519 835.547 221.701C835.74 221.883 835.856 222.132 835.872 222.397C835.887 222.662 835.801 222.923 835.631 223.127C835.46 223.331 835.219 223.461 834.955 223.493L834.833 223.5H834.749L833.791 234.958C833.792 235.755 833.487 236.522 832.94 237.102C832.393 237.682 831.646 238.031 830.85 238.078L830.666 238.083H822.333C820.669 238.083 819.308 236.782 819.216 235.219L819.211 235.045L818.25 223.5H818.166C817.901 223.5 817.646 223.398 817.453 223.216C817.26 223.034 817.143 222.784 817.128 222.519C817.112 222.254 817.198 221.993 817.369 221.79C817.539 221.586 817.781 221.455 818.045 221.424L818.166 221.417H834.833ZM828.583 217.25C829.136 217.25 829.666 217.469 830.056 217.86C830.447 218.251 830.666 218.781 830.666 219.333C830.666 219.599 830.565 219.854 830.382 220.047C830.2 220.24 829.951 220.356 829.686 220.372C829.421 220.388 829.16 220.301 828.956 220.131C828.753 219.961 828.622 219.719 828.59 219.455L828.583 219.333H824.416L824.409 219.455C824.378 219.719 824.247 219.961 824.043 220.131C823.84 220.301 823.579 220.388 823.314 220.372C823.049 220.356 822.8 220.24 822.617 220.047C822.435 219.854 822.333 219.599 822.333 219.333C822.333 218.808 822.531 218.301 822.889 217.916C823.246 217.531 823.736 217.295 824.26 217.255L824.416 217.25H828.583Z" fill="black"/>
<path d="M708 226C708 209.431 721.431 196 738 196H1171C1187.57 196 1201 209.431 1201 226V256H708V226Z" fill="#E7E7E7"/>
<path d="M1172.79 224.998L1163.13 219.458C1162.61 219.156 1162.01 218.998 1161.41 219C1160.81 219.002 1160.21 219.163 1159.69 219.468C1159.17 219.772 1158.74 220.21 1158.44 220.735C1158.15 221.26 1157.99 221.855 1158 222.458V233.578C1158 234.485 1158.36 235.355 1159 235.997C1159.64 236.638 1160.51 236.998 1161.42 236.998C1162.02 236.997 1162.61 236.839 1163.13 236.538L1172.79 230.998C1173.31 230.698 1173.74 230.266 1174.04 229.747C1174.34 229.227 1174.5 228.638 1174.5 228.038C1174.5 227.439 1174.34 226.849 1174.04 226.33C1173.74 225.81 1173.31 225.379 1172.79 225.078V224.998ZM1171.79 229.188L1162.13 234.808C1161.91 234.931 1161.67 234.996 1161.42 234.996C1161.17 234.996 1160.93 234.931 1160.71 234.808C1160.49 234.684 1160.32 234.504 1160.19 234.288C1160.07 234.073 1160 233.828 1160 233.578V222.418C1160 222.169 1160.07 221.924 1160.19 221.708C1160.32 221.492 1160.49 221.313 1160.71 221.188C1160.93 221.067 1161.17 221.002 1161.42 220.998C1161.67 221.003 1161.91 221.069 1162.13 221.188L1171.79 226.768C1172.01 226.893 1172.19 227.072 1172.31 227.288C1172.43 227.504 1172.5 227.749 1172.5 227.998C1172.5 228.248 1172.43 228.493 1172.31 228.709C1172.19 228.924 1172.01 229.104 1171.79 229.228V229.188Z" fill="#1B1B1B"/>
<g clip-path="url(#clip7_61_1998)">
<path d="M753 228L740.5 228" stroke="#1B1B1B" stroke-width="2" stroke-linecap="round"/>
<path d="M746 221.5L739.783 227.717C739.627 227.873 739.627 228.127 739.783 228.283L746 234.5" stroke="#1B1B1B" stroke-width="2" stroke-linecap="round"/>
</g>
<g clip-path="url(#clip8_61_1998)">
<path d="M779.5 228L792 228" stroke="#1B1B1B" stroke-width="2" stroke-linecap="round"/>
<path d="M786.5 221.5L792.717 227.717C792.873 227.873 792.873 228.127 792.717 228.283L786.5 234.5" stroke="#1B1B1B" stroke-width="2" stroke-linecap="round"/>
</g>
<path d="M825 235C825.265 235 825.52 234.895 825.707 234.707C825.895 234.52 826 234.265 826 234V228C826 227.735 825.895 227.48 825.707 227.293C825.52 227.105 825.265 227 825 227C824.735 227 824.48 227.105 824.293 227.293C824.105 227.48 824 227.735 824 228V234C824 234.265 824.105 234.52 824.293 234.707C824.48 234.895 824.735 235 825 235ZM835 223H831V222C831 221.204 830.684 220.441 830.121 219.879C829.559 219.316 828.796 219 828 219H826C825.204 219 824.441 219.316 823.879 219.879C823.316 220.441 823 221.204 823 222V223H819C818.735 223 818.48 223.105 818.293 223.293C818.105 223.48 818 223.735 818 224C818 224.265 818.105 224.52 818.293 224.707C818.48 224.895 818.735 225 819 225H820V236C820 236.796 820.316 237.559 820.879 238.121C821.441 238.684 822.204 239 823 239H831C831.796 239 832.559 238.684 833.121 238.121C833.684 237.559 834 236.796 834 236V225H835C835.265 225 835.52 224.895 835.707 224.707C835.895 224.52 836 224.265 836 224C836 223.735 835.895 223.48 835.707 223.293C835.52 223.105 835.265 223 835 223ZM825 222C825 221.735 825.105 221.48 825.293 221.293C825.48 221.105 825.735 221 826 221H828C828.265 221 828.52 221.105 828.707 221.293C828.895 221.48 829 221.735 829 222V223H825V222ZM832 236C832 236.265 831.895 236.52 831.707 236.707C831.52 236.895 831.265 237 831 237H823C822.735 237 822.48 236.895 822.293 236.707C822.105 236.52 822 236.265 822 236V225H832V236ZM829 235C829.265 235 829.52 234.895 829.707 234.707C829.895 234.52 830 234.265 830 234V228C830 227.735 829.895 227.48 829.707 227.293C829.52 227.105 829.265 227 829 227C828.735 227 828.48 227.105 828.293 227.293C828.105 227.48 828 227.735 828 228V234C828 234.265 828.105 234.52 828.293 234.707C828.48 234.895 828.735 235 829 235Z" fill="#1B1B1B"/>
<rect width="493" height="739" transform="translate(708 256)" fill="#C0C0C0"/>
<g clip-path="url(#clip9_61_1998)">
<rect x="1131" y="826" width="45" height="130" rx="22.5" fill="#E9E9E9"/>
<rect width="45" height="43" transform="translate(1131 826)" fill="#D6D6D6"/>
<path d="M1154 842C1154 841.735 1153.89 841.48 1153.71 841.293C1153.52 841.105 1153.27 841 1153 841C1152.73 841 1152.48 841.105 1152.29 841.293C1152.11 841.48 1152 841.735 1152 842V847H1147C1146.73 847 1146.48 847.105 1146.29 847.293C1146.11 847.48 1146 847.735 1146 848C1146 848.265 1146.11 848.52 1146.29 848.707C1146.48 848.895 1146.73 849 1147 849H1152V854C1152 854.265 1152.11 854.52 1152.29 854.707C1152.48 854.895 1152.73 855 1153 855C1153.27 855 1153.52 854.895 1153.71 854.707C1153.89 854.52 1154 854.265 1154 854V849H1159C1159.27 849 1159.52 848.895 1159.71 848.707C1159.89 848.52 1160 848.265 1160 848C1160 847.735 1159.89 847.48 1159.71 847.293C1159.52 847.105 1159.27 847 1159 847H1154V842Z" fill="black"/>
<rect width="45" height="43" transform="translate(1131 913)" fill="#D6D6D6"/>
<path d="M1146 935H1160" stroke="black" stroke-width="2" stroke-linecap="round" stroke-linejoin="round"/>
<path d="M1140.97 886.516V895H1139.67V887.805H1139.62L1137.6 889.129V887.898L1139.71 886.516H1140.97ZM1146.2 895.117C1144.23 895.117 1143.08 893.535 1143.08 890.758C1143.08 888.004 1144.26 886.398 1146.2 886.398C1148.15 886.398 1149.32 888.004 1149.32 890.758C1149.32 893.535 1148.16 895.117 1146.2 895.117ZM1146.2 894.004C1147.35 894.004 1148.03 892.879 1148.03 890.758C1148.03 888.648 1147.34 887.488 1146.2 887.488C1145.07 887.488 1144.37 888.648 1144.37 890.758C1144.37 892.879 1145.05 894.004 1146.2 894.004ZM1153.73 895.117C1151.76 895.117 1150.61 893.535 1150.61 890.758C1150.61 888.004 1151.78 886.398 1153.73 886.398C1155.67 886.398 1156.85 888.004 1156.85 890.758C1156.85 893.535 1155.69 895.117 1153.73 895.117ZM1153.73 894.004C1154.88 894.004 1155.56 892.879 1155.56 890.758C1155.56 888.648 1154.86 887.488 1153.73 887.488C1152.59 887.488 1151.9 888.648 1151.9 890.758C1151.9 892.879 1152.58 894.004 1153.73 894.004ZM1160.25 890.547C1159.09 890.559 1158.45 889.691 1158.47 888.438C1158.45 887.195 1159.11 886.34 1160.25 886.34C1161.41 886.34 1162.03 887.195 1162.03 888.438C1162.03 889.703 1161.38 890.559 1160.25 890.547ZM1160.25 889.727C1160.8 889.727 1161.06 889.211 1161.06 888.438C1161.06 887.676 1160.81 887.16 1160.25 887.16C1159.71 887.172 1159.43 887.676 1159.43 888.438C1159.43 889.211 1159.7 889.727 1160.25 889.727ZM1165.6 895.176C1164.44 895.176 1163.81 894.32 1163.82 893.066C1163.81 891.812 1164.48 890.957 1165.6 890.957C1166.76 890.957 1167.38 891.812 1167.38 893.066C1167.38 894.32 1166.74 895.176 1165.6 895.176ZM1165.6 894.344C1166.15 894.344 1166.41 893.828 1166.41 893.066C1166.41 892.293 1166.16 891.777 1165.6 891.777C1165.06 891.789 1164.78 892.305 1164.78 893.066C1164.78 893.828 1165.06 894.344 1165.6 894.344ZM1159.43 895L1165.25 886.516H1166.32L1160.49 895H1159.43Z" fill="black"/>
</g>
<g filter="url(#filter1_d_61_1998)">
<rect x="763" y="547" width="313" height="81" rx="20" fill="#B0B0B0"/>
</g>
<rect x="795" y="530" width="60" height="33" rx="16.5" fill="#C0C0C0"/>
<g filter="url(#filter2_d_61_1998)">
<rect x="983" y="611" width="60" height="33" rx="16.5" fill="#B0B0B0"/>
</g>
<g filter="url(#filter3_d_61_1998)">
<rect x="763" y="466" width="313" height="81" rx="20" fill="#D9D9D9"/>
<rect x="983" y="449" width="60" height="33" rx="16.5" fill="#C0C0C0"/>
<rect x="796" y="530" width="60" height="33" rx="16.5" fill="#D9D9D9"/>
<rect x="783" y="484" width="100" height="44" rx="22" fill="#F3F3F3"/>
</g>
<g filter="url(#filter4_d_61_1998)">
<rect x="763" y="380" width="313" height="81" rx="20" fill="#B0B0B0"/>
</g>
<rect x="889" y="363" width="60" height="33" rx="16.5" fill="#C0C0C0"/>
<g filter="url(#filter5_d_61_1998)">
<rect x="983" y="444" width="60" height="33" rx="16.5" fill="#B0B0B0"/>
</g>
<rect x="956" y="399" width="100" height="44" rx="22" fill="#F3F3F3"/>
<g filter="url(#filter6_d_61_1998)">
<rect x="763" y="299" width="313" height="81" rx="20" fill="#D9D9D9"/>
<rect x="889" y="361" width="60" height="33" rx="16.5" fill="#D9D9D9"/>
</g>
</g>
<rect x="115" y="484" width="561" height="485" rx="30" fill="white"/>
<circle cx="627" cy="922" r="20.5" stroke="#C8C8C8"/>
<path d="M633.432 920.642L625.287 912.496C625.108 912.316 624.895 912.173 624.661 912.076C624.427 911.978 624.176 911.928 623.923 911.928C623.669 911.928 623.418 911.978 623.184 912.076C622.95 912.173 622.737 912.316 622.559 912.496C622.201 912.856 622 913.343 622 913.851C622 914.358 622.201 914.845 622.559 915.205L629.359 922.006L622.559 928.806C622.201 929.166 622 929.653 622 930.161C622 930.668 622.201 931.155 622.559 931.515C622.738 931.693 622.951 931.834 623.185 931.929C623.419 932.025 623.67 932.073 623.923 932.072C624.175 932.073 624.426 932.025 624.66 931.929C624.894 931.834 625.107 931.693 625.287 931.515L633.432 923.37C633.612 923.191 633.755 922.979 633.852 922.744C633.95 922.51 634 922.259 634 922.006C634 921.752 633.95 921.501 633.852 921.267C633.755 921.033 633.612 920.82 633.432 920.642Z" fill="#1B1B1B"/>
<path fill-rule="evenodd" clip-rule="evenodd" d="M632.211 506.361C631.968 506.127 631.643 505.997 631.306 506C630.969 506.003 630.647 506.138 630.408 506.377C630.17 506.615 630.035 506.937 630.032 507.275C630.029 507.612 630.158 507.936 630.393 508.179L637.198 514.984L630.393 521.789C630.27 521.908 630.172 522.05 630.104 522.207C630.037 522.364 630.002 522.532 630 522.703C629.999 522.874 630.031 523.043 630.096 523.201C630.16 523.359 630.256 523.503 630.377 523.623C630.497 523.744 630.641 523.84 630.799 523.904C630.957 523.969 631.126 524.001 631.297 524C631.468 523.998 631.636 523.963 631.793 523.896C631.95 523.828 632.092 523.73 632.211 523.607L639.016 516.802L645.821 523.607C646.064 523.842 646.388 523.971 646.725 523.968C647.063 523.965 647.385 523.83 647.623 523.592C647.862 523.353 647.997 523.031 648 522.694C648.003 522.357 647.873 522.032 647.639 521.789L640.834 514.984L647.639 508.179C647.873 507.936 648.003 507.612 648 507.275C647.997 506.937 647.862 506.615 647.623 506.377C647.385 506.138 647.063 506.003 646.725 506C646.388 505.997 646.064 506.127 645.821 506.361L639.016 513.166L632.211 506.361Z" fill="black"/>
<line x1="169" y1="770" x2="364" y2="770" stroke="#C0C0C0" stroke-width="10" stroke-linecap="round"/>
<line x1="169" y1="804" x2="553" y2="804" stroke="#C0C0C0" stroke-width="10" stroke-linecap="round"/>
<line x1="169" y1="838" x2="553" y2="838" stroke="#C0C0C0" stroke-width="10" stroke-linecap="round"/>
<line x1="169" y1="872" x2="553" y2="872" stroke="#C0C0C0" stroke-width="10" stroke-linecap="round"/>
<rect x="164" y="546" width="463" height="186" rx="20" fill="#DADADA"/>
</g>
<defs>
<filter id="filter0_d_61_1998" x="271" y="285" width="321" height="122" filterUnits="userSpaceOnUse" color-interpolation-filters="sRGB">
<feFlood flood-opacity="0" result="BackgroundImageFix"/>
<feColorMatrix in="SourceAlpha" type="matrix" values="0 0 0 0 0 0 0 0 0 0 0 0 0 0 0 0 0 0 127 0" result="hardAlpha"/>
<feOffset dy="4"/>
<feGaussianBlur stdDeviation="2"/>
<feComposite in2="hardAlpha" operator="out"/>
<feColorMatrix type="matrix" values="0 0 0 0 0 0 0 0 0 0 0 0 0 0 0 0 0 0 0.25 0"/>
<feBlend mode="normal" in2="BackgroundImageFix" result="effect1_dropShadow_61_1998"/>
<feBlend mode="normal" in="SourceGraphic" in2="effect1_dropShadow_61_1998" result="shape"/>
</filter>
<filter id="filter1_d_61_1998" x="759" y="547" width="321" height="89" filterUnits="userSpaceOnUse" color-interpolation-filters="sRGB">
<feFlood flood-opacity="0" result="BackgroundImageFix"/>
<feColorMatrix in="SourceAlpha" type="matrix" values="0 0 0 0 0 0 0 0 0 0 0 0 0 0 0 0 0 0 127 0" result="hardAlpha"/>
<feOffset dy="4"/>
<feGaussianBlur stdDeviation="2"/>
<feComposite in2="hardAlpha" operator="out"/>
<feColorMatrix type="matrix" values="0 0 0 0 0 0 0 0 0 0 0 0 0 0 0 0 0 0 0.25 0"/>
<feBlend mode="normal" in2="BackgroundImageFix" result="effect1_dropShadow_61_1998"/>
<feBlend mode="normal" in="SourceGraphic" in2="effect1_dropShadow_61_1998" result="shape"/>
</filter>
<filter id="filter2_d_61_1998" x="979" y="611" width="68" height="41" filterUnits="userSpaceOnUse" color-interpolation-filters="sRGB">
<feFlood flood-opacity="0" result="BackgroundImageFix"/>
<feColorMatrix in="SourceAlpha" type="matrix" values="0 0 0 0 0 0 0 0 0 0 0 0 0 0 0 0 0 0 127 0" result="hardAlpha"/>
<feOffset dy="4"/>
<feGaussianBlur stdDeviation="2"/>
<feComposite in2="hardAlpha" operator="out"/>
<feColorMatrix type="matrix" values="0 0 0 0 0 0 0 0 0 0 0 0 0 0 0 0 0 0 0.25 0"/>
<feBlend mode="normal" in2="BackgroundImageFix" result="effect1_dropShadow_61_1998"/>
<feBlend mode="normal" in="SourceGraphic" in2="effect1_dropShadow_61_1998" result="shape"/>
</filter>
<filter id="filter3_d_61_1998" x="759" y="449" width="321" height="122" filterUnits="userSpaceOnUse" color-interpolation-filters="sRGB">
<feFlood flood-opacity="0" result="BackgroundImageFix"/>
<feColorMatrix in="SourceAlpha" type="matrix" values="0 0 0 0 0 0 0 0 0 0 0 0 0 0 0 0 0 0 127 0" result="hardAlpha"/>
<feOffset dy="4"/>
<feGaussianBlur stdDeviation="2"/>
<feComposite in2="hardAlpha" operator="out"/>
<feColorMatrix type="matrix" values="0 0 0 0 0 0 0 0 0 0 0 0 0 0 0 0 0 0 0.25 0"/>
<feBlend mode="normal" in2="BackgroundImageFix" result="effect1_dropShadow_61_1998"/>
<feBlend mode="normal" in="SourceGraphic" in2="effect1_dropShadow_61_1998" result="shape"/>
</filter>
<filter id="filter4_d_61_1998" x="759" y="380" width="321" height="89" filterUnits="userSpaceOnUse" color-interpolation-filters="sRGB">
<feFlood flood-opacity="0" result="BackgroundImageFix"/>
<feColorMatrix in="SourceAlpha" type="matrix" values="0 0 0 0 0 0 0 0 0 0 0 0 0 0 0 0 0 0 127 0" result="hardAlpha"/>
<feOffset dy="4"/>
<feGaussianBlur stdDeviation="2"/>
<feComposite in2="hardAlpha" operator="out"/>
<feColorMatrix type="matrix" values="0 0 0 0 0 0 0 0 0 0 0 0 0 0 0 0 0 0 0.25 0"/>
<feBlend mode="normal" in2="BackgroundImageFix" result="effect1_dropShadow_61_1998"/>
<feBlend mode="normal" in="SourceGraphic" in2="effect1_dropShadow_61_1998" result="shape"/>
</filter>
<filter id="filter5_d_61_1998" x="979" y="444" width="68" height="41" filterUnits="userSpaceOnUse" color-interpolation-filters="sRGB">
<feFlood flood-opacity="0" result="BackgroundImageFix"/>
<feColorMatrix in="SourceAlpha" type="matrix" values="0 0 0 0 0 0 0 0 0 0 0 0 0 0 0 0 0 0 127 0" result="hardAlpha"/>
<feOffset dy="4"/>
<feGaussianBlur stdDeviation="2"/>
<feComposite in2="hardAlpha" operator="out"/>
<feColorMatrix type="matrix" values="0 0 0 0 0 0 0 0 0 0 0 0 0 0 0 0 0 0 0.25 0"/>
<feBlend mode="normal" in2="BackgroundImageFix" result="effect1_dropShadow_61_1998"/>
<feBlend mode="normal" in="SourceGraphic" in2="effect1_dropShadow_61_1998" result="shape"/>
</filter>
<filter id="filter6_d_61_1998" x="759" y="282" width="321" height="122" filterUnits="userSpaceOnUse" color-interpolation-filters="sRGB">
<feFlood flood-opacity="0" result="BackgroundImageFix"/>
<feColorMatrix in="SourceAlpha" type="matrix" values="0 0 0 0 0 0 0 0 0 0 0 0 0 0 0 0 0 0 127 0" result="hardAlpha"/>
<feOffset dy="4"/>
<feGaussianBlur stdDeviation="2"/>
<feComposite in2="hardAlpha" operator="out"/>
<feColorMatrix type="matrix" values="0 0 0 0 0 0 0 0 0 0 0 0 0 0 0 0 0 0 0.25 0"/>
<feBlend mode="normal" in2="BackgroundImageFix" result="effect1_dropShadow_61_1998"/>
<feBlend mode="normal" in="SourceGraphic" in2="effect1_dropShadow_61_1998" result="shape"/>
</filter>
<clipPath id="clip0_61_1998">
<rect width="1920" height="1080" fill="white"/>
</clipPath>
<clipPath id="clip1_61_1998">
<rect width="18" height="18" fill="white" transform="translate(1891 11)"/>
</clipPath>
<clipPath id="clip2_61_1998">
<rect x="1232" y="196" width="493" height="799" rx="30" fill="white"/>
</clipPath>
<clipPath id="clip3_61_1998">
<rect x="1655" y="826" width="45" height="130" rx="22.5" fill="white"/>
</clipPath>
<clipPath id="clip4_61_1998">
<rect x="708" y="196" width="493" height="799" rx="30" fill="white"/>
</clipPath>
<clipPath id="clip5_61_1998">
<rect width="24" height="24" fill="white" transform="translate(734 216)"/>
</clipPath>
<clipPath id="clip6_61_1998">
<rect width="24" height="24" fill="white" transform="matrix(-1 0 0 1 798 216)"/>
</clipPath>
<clipPath id="clip7_61_1998">
<rect width="24" height="24" fill="white" transform="translate(734 216)"/>
</clipPath>
<clipPath id="clip8_61_1998">
<rect width="24" height="24" fill="white" transform="matrix(-1 0 0 1 798 216)"/>
</clipPath>
<clipPath id="clip9_61_1998">
<rect x="1131" y="826" width="45" height="130" rx="22.5" fill="white"/>
</clipPath>
</defs>
</svg>
