<svg width="1920" height="1080" viewBox="0 0 1920 1080" fill="none" xmlns="http://www.w3.org/2000/svg">
<g clip-path="url(#clip0_176_34181)">
<rect width="1920" height="1080" fill="white"/>
<rect x="139" y="157" width="1643" height="900" rx="30" fill="#F4F4F4"/>
<rect x="192" y="207" width="493" height="800" rx="30" fill="#E7E7E7"/>
<g filter="url(#filter0_d_176_34181)">
<rect x="232" y="687" width="313" height="81" rx="20" fill="#B0B0B0"/>
<rect x="264" y="670" width="60" height="33" rx="16.5" fill="#E7E7E7"/>
<rect x="452" y="751" width="60" height="33" rx="16.5" fill="#B0B0B0"/>
</g>
<g filter="url(#filter1_d_176_34181)">
<rect x="232" y="553" width="313" height="81" rx="20" fill="#D9D9D9"/>
<rect x="452" y="536" width="60" height="33" rx="16.5" fill="#E7E7E7"/>
<rect x="265" y="617" width="60" height="33" rx="16.5" fill="#D9D9D9"/>
<rect x="252" y="571" width="100" height="44" rx="22" fill="#F3F3F3"/>
</g>
<g filter="url(#filter2_d_176_34181)">
<rect x="232" y="821" width="313" height="81" rx="20" fill="#D9D9D9"/>
<rect x="452" y="804" width="60" height="33" rx="16.5" fill="#E7E7E7"/>
<rect x="265" y="885" width="60" height="33" rx="16.5" fill="#D9D9D9"/>
<rect x="252" y="839" width="100" height="44" rx="22" fill="#F3F3F3"/>
</g>
<g filter="url(#filter3_d_176_34181)">
<rect x="232" y="419" width="313" height="81" rx="20" fill="#B0B0B0"/>
<rect x="358" y="402" width="60" height="33" rx="16.5" fill="#E7E7E7"/>
<rect x="452" y="483" width="60" height="33" rx="16.5" fill="#B0B0B0"/>
<rect x="425" y="438" width="100" height="44" rx="22" fill="#F3F3F3"/>
</g>
<g filter="url(#filter4_d_176_34181)">
<rect x="232" y="287" width="313" height="81" rx="20" fill="#D9D9D9"/>
<rect x="358" y="349" width="60" height="33" rx="16.5" fill="#D9D9D9"/>
</g>
<path d="M645 287L645 947" stroke="#D1D1D1" stroke-width="20" stroke-linecap="round"/>
<path d="M645 287V497" stroke="#ACACAC" stroke-width="20" stroke-linecap="round"/>
<g clip-path="url(#clip1_176_34181)">
<rect x="715" y="208" width="493" height="799" rx="30" fill="#E7E7E7"/>
<path d="M715 238C715 221.431 728.431 208 745 208H1178C1194.57 208 1208 221.431 1208 238V268H715V238Z" fill="#E7E7E7"/>
<path d="M1180.79 236.998L1171.13 231.458C1170.61 231.156 1170.01 230.998 1169.41 231C1168.81 231.002 1168.21 231.163 1167.69 231.468C1167.17 231.772 1166.74 232.21 1166.44 232.735C1166.15 233.26 1165.99 233.855 1166 234.458V245.578C1166 246.485 1166.36 247.355 1167 247.997C1167.64 248.638 1168.51 248.998 1169.42 248.998C1170.02 248.997 1170.61 248.839 1171.13 248.538L1180.79 242.998C1181.31 242.698 1181.74 242.266 1182.04 241.747C1182.34 241.227 1182.5 240.638 1182.5 240.038C1182.5 239.439 1182.34 238.849 1182.04 238.33C1181.74 237.81 1181.31 237.379 1180.79 237.078V236.998ZM1179.79 241.188L1170.13 246.808C1169.91 246.931 1169.67 246.996 1169.42 246.996C1169.17 246.996 1168.93 246.931 1168.71 246.808C1168.49 246.684 1168.32 246.504 1168.19 246.288C1168.07 246.073 1168 245.828 1168 245.578V234.418C1168 234.169 1168.07 233.924 1168.19 233.708C1168.32 233.492 1168.49 233.313 1168.71 233.188C1168.93 233.067 1169.17 233.002 1169.42 232.998C1169.67 233.003 1169.91 233.069 1170.13 233.188L1179.79 238.768C1180.01 238.893 1180.19 239.072 1180.31 239.288C1180.43 239.504 1180.5 239.749 1180.5 239.998C1180.5 240.248 1180.43 240.493 1180.31 240.709C1180.19 240.924 1180.01 241.104 1179.79 241.228V241.188Z" fill="#1B1B1B"/>
<g clip-path="url(#clip2_176_34181)">
<path d="M760 240L747.5 240" stroke="#1B1B1B" stroke-width="2" stroke-linecap="round"/>
<path d="M753 233.5L746.783 239.717C746.627 239.873 746.627 240.127 746.783 240.283L753 246.5" stroke="#1B1B1B" stroke-width="2" stroke-linecap="round"/>
</g>
<g clip-path="url(#clip3_176_34181)">
<path d="M786.5 240L799 240" stroke="#1B1B1B" stroke-width="2" stroke-linecap="round"/>
<path d="M793.5 233.5L799.717 239.717C799.873 239.873 799.873 240.127 799.717 240.283L793.5 246.5" stroke="#1B1B1B" stroke-width="2" stroke-linecap="round"/>
</g>
<path d="M841.833 233.417C842.099 233.417 842.354 233.519 842.547 233.701C842.74 233.883 842.856 234.132 842.872 234.397C842.887 234.662 842.801 234.923 842.631 235.127C842.46 235.331 842.219 235.461 841.955 235.493L841.833 235.5H841.749L840.791 246.958C840.792 247.755 840.487 248.522 839.94 249.102C839.393 249.682 838.646 250.031 837.85 250.078L837.666 250.083H829.333C827.669 250.083 826.308 248.782 826.216 247.219L826.211 247.045L825.25 235.5H825.166C824.901 235.5 824.646 235.398 824.453 235.216C824.26 235.034 824.143 234.784 824.128 234.519C824.112 234.254 824.198 233.993 824.369 233.79C824.539 233.586 824.781 233.455 825.045 233.424L825.166 233.417H841.833ZM835.583 229.25C836.136 229.25 836.666 229.469 837.056 229.86C837.447 230.251 837.666 230.781 837.666 231.333C837.666 231.599 837.565 231.854 837.382 232.047C837.2 232.24 836.951 232.356 836.686 232.372C836.421 232.388 836.16 232.301 835.956 232.131C835.753 231.961 835.622 231.719 835.59 231.455L835.583 231.333H831.416L831.409 231.455C831.378 231.719 831.247 231.961 831.043 232.131C830.84 232.301 830.579 232.388 830.314 232.372C830.049 232.356 829.8 232.24 829.617 232.047C829.435 231.854 829.333 231.599 829.333 231.333C829.333 230.808 829.531 230.301 829.889 229.916C830.246 229.531 830.736 229.295 831.26 229.255L831.416 229.25H835.583Z" fill="black"/>
<path d="M715 238C715 221.431 728.431 208 745 208H1178C1194.57 208 1208 221.431 1208 238V268H715V238Z" fill="#E7E7E7"/>
<path d="M1179.79 236.998L1170.13 231.458C1169.61 231.156 1169.01 230.998 1168.41 231C1167.81 231.002 1167.21 231.163 1166.69 231.468C1166.17 231.772 1165.74 232.21 1165.44 232.735C1165.15 233.26 1164.99 233.855 1165 234.458V245.578C1165 246.485 1165.36 247.355 1166 247.997C1166.64 248.638 1167.51 248.998 1168.42 248.998C1169.02 248.997 1169.61 248.839 1170.13 248.538L1179.79 242.998C1180.31 242.698 1180.74 242.266 1181.04 241.747C1181.34 241.227 1181.5 240.638 1181.5 240.038C1181.5 239.439 1181.34 238.849 1181.04 238.33C1180.74 237.81 1180.31 237.379 1179.79 237.078V236.998ZM1178.79 241.188L1169.13 246.808C1168.91 246.931 1168.67 246.996 1168.42 246.996C1168.17 246.996 1167.93 246.931 1167.71 246.808C1167.49 246.684 1167.32 246.504 1167.19 246.288C1167.07 246.073 1167 245.828 1167 245.578V234.418C1167 234.169 1167.07 233.924 1167.19 233.708C1167.32 233.492 1167.49 233.313 1167.71 233.188C1167.93 233.067 1168.17 233.002 1168.42 232.998C1168.67 233.003 1168.91 233.069 1169.13 233.188L1178.79 238.768C1179.01 238.893 1179.19 239.072 1179.31 239.288C1179.43 239.504 1179.5 239.749 1179.5 239.998C1179.5 240.248 1179.43 240.493 1179.31 240.709C1179.19 240.924 1179.01 241.104 1178.79 241.228V241.188Z" fill="#1B1B1B"/>
<g clip-path="url(#clip4_176_34181)">
<path d="M760 240L747.5 240" stroke="#1B1B1B" stroke-width="2" stroke-linecap="round"/>
<path d="M753 233.5L746.783 239.717C746.627 239.873 746.627 240.127 746.783 240.283L753 246.5" stroke="#1B1B1B" stroke-width="2" stroke-linecap="round"/>
</g>
<g clip-path="url(#clip5_176_34181)">
<path d="M786.5 240L799 240" stroke="#1B1B1B" stroke-width="2" stroke-linecap="round"/>
<path d="M793.5 233.5L799.717 239.717C799.873 239.873 799.873 240.127 799.717 240.283L793.5 246.5" stroke="#1B1B1B" stroke-width="2" stroke-linecap="round"/>
</g>
<path d="M832 247C832.265 247 832.52 246.895 832.707 246.707C832.895 246.52 833 246.265 833 246V240C833 239.735 832.895 239.48 832.707 239.293C832.52 239.105 832.265 239 832 239C831.735 239 831.48 239.105 831.293 239.293C831.105 239.48 831 239.735 831 240V246C831 246.265 831.105 246.52 831.293 246.707C831.48 246.895 831.735 247 832 247ZM842 235H838V234C838 233.204 837.684 232.441 837.121 231.879C836.559 231.316 835.796 231 835 231H833C832.204 231 831.441 231.316 830.879 231.879C830.316 232.441 830 233.204 830 234V235H826C825.735 235 825.48 235.105 825.293 235.293C825.105 235.48 825 235.735 825 236C825 236.265 825.105 236.52 825.293 236.707C825.48 236.895 825.735 237 826 237H827V248C827 248.796 827.316 249.559 827.879 250.121C828.441 250.684 829.204 251 830 251H838C838.796 251 839.559 250.684 840.121 250.121C840.684 249.559 841 248.796 841 248V237H842C842.265 237 842.52 236.895 842.707 236.707C842.895 236.52 843 236.265 843 236C843 235.735 842.895 235.48 842.707 235.293C842.52 235.105 842.265 235 842 235ZM832 234C832 233.735 832.105 233.48 832.293 233.293C832.48 233.105 832.735 233 833 233H835C835.265 233 835.52 233.105 835.707 233.293C835.895 233.48 836 233.735 836 234V235H832V234ZM839 248C839 248.265 838.895 248.52 838.707 248.707C838.52 248.895 838.265 249 838 249H830C829.735 249 829.48 248.895 829.293 248.707C829.105 248.52 829 248.265 829 248V237H839V248ZM836 247C836.265 247 836.52 246.895 836.707 246.707C836.895 246.52 837 246.265 837 246V240C837 239.735 836.895 239.48 836.707 239.293C836.52 239.105 836.265 239 836 239C835.735 239 835.48 239.105 835.293 239.293C835.105 239.48 835 239.735 835 240V246C835 246.265 835.105 246.52 835.293 246.707C835.48 246.895 835.735 247 836 247Z" fill="#1B1B1B"/>
<rect width="493" height="739" transform="translate(715 268)" fill="#C0C0C0"/>
<g clip-path="url(#clip6_176_34181)">
<rect x="1138" y="838" width="45" height="130" rx="22.5" fill="#E9E9E9"/>
<rect width="45" height="43" transform="translate(1138 838)" fill="#D6D6D6"/>
<path d="M1161 854C1161 853.735 1160.89 853.48 1160.71 853.293C1160.52 853.105 1160.27 853 1160 853C1159.73 853 1159.48 853.105 1159.29 853.293C1159.11 853.48 1159 853.735 1159 854V859H1154C1153.73 859 1153.48 859.105 1153.29 859.293C1153.11 859.48 1153 859.735 1153 860C1153 860.265 1153.11 860.52 1153.29 860.707C1153.48 860.895 1153.73 861 1154 861H1159V866C1159 866.265 1159.11 866.52 1159.29 866.707C1159.48 866.895 1159.73 867 1160 867C1160.27 867 1160.52 866.895 1160.71 866.707C1160.89 866.52 1161 866.265 1161 866V861H1166C1166.27 861 1166.52 860.895 1166.71 860.707C1166.89 860.52 1167 860.265 1167 860C1167 859.735 1166.89 859.48 1166.71 859.293C1166.52 859.105 1166.27 859 1166 859H1161V854Z" fill="black"/>
<rect width="45" height="43" transform="translate(1138 925)" fill="#D6D6D6"/>
<path d="M1153 947H1167" stroke="black" stroke-width="2" stroke-linecap="round" stroke-linejoin="round"/>
<path d="M1147.97 898.516V907H1146.67V899.805H1146.62L1144.6 901.129V899.898L1146.71 898.516H1147.97ZM1153.2 907.117C1151.23 907.117 1150.08 905.535 1150.08 902.758C1150.08 900.004 1151.26 898.398 1153.2 898.398C1155.15 898.398 1156.32 900.004 1156.32 902.758C1156.32 905.535 1155.16 907.117 1153.2 907.117ZM1153.2 906.004C1154.35 906.004 1155.03 904.879 1155.03 902.758C1155.03 900.648 1154.34 899.488 1153.2 899.488C1152.07 899.488 1151.37 900.648 1151.37 902.758C1151.37 904.879 1152.05 906.004 1153.2 906.004ZM1160.73 907.117C1158.76 907.117 1157.61 905.535 1157.61 902.758C1157.61 900.004 1158.78 898.398 1160.73 898.398C1162.67 898.398 1163.85 900.004 1163.85 902.758C1163.85 905.535 1162.69 907.117 1160.73 907.117ZM1160.73 906.004C1161.88 906.004 1162.56 904.879 1162.56 902.758C1162.56 900.648 1161.86 899.488 1160.73 899.488C1159.59 899.488 1158.9 900.648 1158.9 902.758C1158.9 904.879 1159.58 906.004 1160.73 906.004ZM1167.25 902.547C1166.09 902.559 1165.45 901.691 1165.47 900.438C1165.45 899.195 1166.11 898.34 1167.25 898.34C1168.41 898.34 1169.03 899.195 1169.03 900.438C1169.03 901.703 1168.38 902.559 1167.25 902.547ZM1167.25 901.727C1167.8 901.727 1168.06 901.211 1168.06 900.438C1168.06 899.676 1167.81 899.16 1167.25 899.16C1166.71 899.172 1166.43 899.676 1166.43 900.438C1166.43 901.211 1166.7 901.727 1167.25 901.727ZM1172.6 907.176C1171.44 907.176 1170.81 906.32 1170.82 905.066C1170.81 903.812 1171.48 902.957 1172.6 902.957C1173.76 902.957 1174.38 903.812 1174.38 905.066C1174.38 906.32 1173.74 907.176 1172.6 907.176ZM1172.6 906.344C1173.15 906.344 1173.41 905.828 1173.41 905.066C1173.41 904.293 1173.16 903.777 1172.6 903.777C1172.06 903.789 1171.78 904.305 1171.78 905.066C1171.78 905.828 1172.06 906.344 1172.6 906.344ZM1166.43 907L1172.25 898.516H1173.32L1167.49 907H1166.43Z" fill="black"/>
</g>
<g filter="url(#filter5_d_176_34181)">
<rect x="770" y="559" width="313" height="81" rx="20" fill="#B0B0B0"/>
</g>
<rect x="802" y="542" width="60" height="33" rx="16.5" fill="#C0C0C0"/>
<g filter="url(#filter6_d_176_34181)">
<rect x="990" y="623" width="60" height="33" rx="16.5" fill="#B0B0B0"/>
</g>
<g filter="url(#filter7_d_176_34181)">
<rect x="770" y="478" width="313" height="81" rx="20" fill="#D9D9D9"/>
<rect x="990" y="461" width="60" height="33" rx="16.5" fill="#C0C0C0"/>
<rect x="803" y="542" width="60" height="33" rx="16.5" fill="#D9D9D9"/>
<rect x="790" y="496" width="100" height="44" rx="22" fill="#F3F3F3"/>
</g>
<g filter="url(#filter8_d_176_34181)">
<rect x="770" y="392" width="313" height="81" rx="20" fill="#B0B0B0"/>
</g>
<rect x="896" y="375" width="60" height="33" rx="16.5" fill="#C0C0C0"/>
<g filter="url(#filter9_d_176_34181)">
<rect x="990" y="456" width="60" height="33" rx="16.5" fill="#B0B0B0"/>
</g>
<rect x="963" y="411" width="100" height="44" rx="22" fill="#F3F3F3"/>
<g filter="url(#filter10_d_176_34181)">
<rect x="770" y="311" width="313" height="81" rx="20" fill="#D9D9D9"/>
<rect x="896" y="373" width="60" height="33" rx="16.5" fill="#D9D9D9"/>
</g>
</g>
<g clip-path="url(#clip7_176_34181)">
<rect x="1239" y="208" width="493" height="799" rx="30" fill="#E7E7E7"/>
<path d="M1239 238C1239 221.431 1252.43 208 1269 208H1702C1718.57 208 1732 221.431 1732 238V268H1239V238Z" fill="#E7E7E7"/>
<rect width="160" height="60" transform="translate(1239 208)" fill="#8F8F8F"/>
<rect width="160" height="60" transform="translate(1399 208)" fill="#5E5E5E"/>
<path fill-rule="evenodd" clip-rule="evenodd" d="M1523.21 230.595C1522.97 230.395 1522.64 230.284 1522.31 230.286C1521.97 230.289 1521.65 230.405 1521.41 230.609C1521.17 230.813 1521.03 231.09 1521.03 231.379C1521.03 231.668 1521.16 231.946 1521.39 232.154L1528.2 237.987L1521.39 243.82C1521.27 243.922 1521.17 244.043 1521.1 244.178C1521.04 244.312 1521 244.457 1521 244.603C1521 244.749 1521.03 244.895 1521.1 245.03C1521.16 245.165 1521.26 245.288 1521.38 245.392C1521.5 245.495 1521.64 245.577 1521.8 245.633C1521.96 245.688 1522.13 245.716 1522.3 245.715C1522.47 245.713 1522.64 245.683 1522.79 245.625C1522.95 245.567 1523.09 245.484 1523.21 245.378L1530.02 239.545L1536.82 245.378C1537.06 245.579 1537.39 245.69 1537.73 245.688C1538.06 245.685 1538.39 245.569 1538.62 245.365C1538.86 245.161 1539 244.884 1539 244.595C1539 244.306 1538.87 244.028 1538.64 243.82L1531.83 237.987L1538.64 232.154C1538.87 231.946 1539 231.668 1539 231.379C1539 231.09 1538.86 230.813 1538.62 230.609C1538.39 230.405 1538.06 230.289 1537.73 230.286C1537.39 230.284 1537.06 230.395 1536.82 230.595L1530.02 236.429L1523.21 230.595Z" fill="black"/>
<rect width="493" height="739" transform="translate(1239 268)" fill="#C0C0C0"/>
<g clip-path="url(#clip8_176_34181)">
<rect x="1662" y="838" width="45" height="130" rx="22.5" fill="#E9E9E9"/>
<rect width="45" height="43" transform="translate(1662 838)" fill="#D6D6D6"/>
<path d="M1685 854C1685 853.735 1684.89 853.48 1684.71 853.293C1684.52 853.105 1684.27 853 1684 853C1683.73 853 1683.48 853.105 1683.29 853.293C1683.11 853.48 1683 853.735 1683 854V859H1678C1677.73 859 1677.48 859.105 1677.29 859.293C1677.11 859.48 1677 859.735 1677 860C1677 860.265 1677.11 860.52 1677.29 860.707C1677.48 860.895 1677.73 861 1678 861H1683V866C1683 866.265 1683.11 866.52 1683.29 866.707C1683.48 866.895 1683.73 867 1684 867C1684.27 867 1684.52 866.895 1684.71 866.707C1684.89 866.52 1685 866.265 1685 866V861H1690C1690.27 861 1690.52 860.895 1690.71 860.707C1690.89 860.52 1691 860.265 1691 860C1691 859.735 1690.89 859.48 1690.71 859.293C1690.52 859.105 1690.27 859 1690 859H1685V854Z" fill="black"/>
<rect width="45" height="43" transform="translate(1662 925)" fill="#D6D6D6"/>
<path d="M1677 947H1691" stroke="black" stroke-width="2" stroke-linecap="round" stroke-linejoin="round"/>
<path d="M1671.97 898.516V907H1670.67V899.805H1670.62L1668.6 901.129V899.898L1670.71 898.516H1671.97ZM1677.2 907.117C1675.23 907.117 1674.08 905.535 1674.08 902.758C1674.08 900.004 1675.26 898.398 1677.2 898.398C1679.15 898.398 1680.32 900.004 1680.32 902.758C1680.32 905.535 1679.16 907.117 1677.2 907.117ZM1677.2 906.004C1678.35 906.004 1679.03 904.879 1679.03 902.758C1679.03 900.648 1678.34 899.488 1677.2 899.488C1676.07 899.488 1675.37 900.648 1675.37 902.758C1675.37 904.879 1676.05 906.004 1677.2 906.004ZM1684.73 907.117C1682.76 907.117 1681.61 905.535 1681.61 902.758C1681.61 900.004 1682.78 898.398 1684.73 898.398C1686.67 898.398 1687.85 900.004 1687.85 902.758C1687.85 905.535 1686.69 907.117 1684.73 907.117ZM1684.73 906.004C1685.88 906.004 1686.56 904.879 1686.56 902.758C1686.56 900.648 1685.86 899.488 1684.73 899.488C1683.59 899.488 1682.9 900.648 1682.9 902.758C1682.9 904.879 1683.58 906.004 1684.73 906.004ZM1691.25 902.547C1690.09 902.559 1689.45 901.691 1689.47 900.438C1689.45 899.195 1690.11 898.34 1691.25 898.34C1692.41 898.34 1693.03 899.195 1693.03 900.438C1693.03 901.703 1692.38 902.559 1691.25 902.547ZM1691.25 901.727C1691.8 901.727 1692.06 901.211 1692.06 900.438C1692.06 899.676 1691.81 899.16 1691.25 899.16C1690.71 899.172 1690.43 899.676 1690.43 900.438C1690.43 901.211 1690.7 901.727 1691.25 901.727ZM1696.6 907.176C1695.44 907.176 1694.81 906.32 1694.82 905.066C1694.81 903.812 1695.48 902.957 1696.6 902.957C1697.76 902.957 1698.38 903.812 1698.38 905.066C1698.38 906.32 1697.74 907.176 1696.6 907.176ZM1696.6 906.344C1697.15 906.344 1697.41 905.828 1697.41 905.066C1697.41 904.293 1697.16 903.777 1696.6 903.777C1696.06 903.789 1695.78 904.305 1695.78 905.066C1695.78 905.828 1696.06 906.344 1696.6 906.344ZM1690.43 907L1696.25 898.516H1697.32L1691.49 907H1690.43Z" fill="black"/>
</g>
<rect x="1662" y="293" width="45" height="45" rx="22.5" fill="#D6D6D6"/>
<path d="M1685.54 317.583H1681.37C1681.1 317.583 1680.83 317.693 1680.64 317.888C1680.44 318.083 1680.33 318.348 1680.33 318.625C1680.33 318.901 1680.44 319.166 1680.64 319.361C1680.83 319.557 1681.1 319.666 1681.37 319.666H1685.54C1685.82 319.666 1686.08 319.557 1686.28 319.361C1686.47 319.166 1686.58 318.901 1686.58 318.625C1686.58 318.348 1686.47 318.083 1686.28 317.888C1686.08 317.693 1685.82 317.583 1685.54 317.583ZM1689.71 307.166H1688.48C1688.26 306.558 1687.87 306.032 1687.34 305.659C1686.81 305.286 1686.19 305.085 1685.54 305.083H1683.46C1682.81 305.085 1682.19 305.286 1681.66 305.659C1681.13 306.032 1680.74 306.558 1680.52 307.166H1679.29C1678.46 307.166 1677.67 307.496 1677.08 308.082C1676.5 308.668 1676.17 309.463 1676.17 310.291V322.791C1676.17 323.62 1676.5 324.415 1677.08 325.001C1677.67 325.587 1678.46 325.916 1679.29 325.916H1689.71C1690.54 325.916 1691.33 325.587 1691.92 325.001C1692.5 324.415 1692.83 323.62 1692.83 322.791V310.291C1692.83 309.463 1692.5 308.668 1691.92 308.082C1691.33 307.496 1690.54 307.166 1689.71 307.166V307.166ZM1682.42 308.208C1682.42 307.932 1682.53 307.667 1682.72 307.471C1682.92 307.276 1683.18 307.166 1683.46 307.166H1685.54C1685.82 307.166 1686.08 307.276 1686.28 307.471C1686.47 307.667 1686.58 307.932 1686.58 308.208V309.25H1682.42V308.208ZM1690.75 322.791C1690.75 323.068 1690.64 323.333 1690.44 323.528C1690.25 323.723 1689.98 323.833 1689.71 323.833H1679.29C1679.02 323.833 1678.75 323.723 1678.55 323.528C1678.36 323.333 1678.25 323.068 1678.25 322.791V310.291C1678.25 310.015 1678.36 309.75 1678.55 309.555C1678.75 309.359 1679.02 309.25 1679.29 309.25H1680.33V310.291C1680.33 310.568 1680.44 310.833 1680.64 311.028C1680.83 311.223 1681.1 311.333 1681.37 311.333H1687.62C1687.9 311.333 1688.17 311.223 1688.36 311.028C1688.56 310.833 1688.67 310.568 1688.67 310.291V309.25H1689.71C1689.98 309.25 1690.25 309.359 1690.44 309.555C1690.64 309.75 1690.75 310.015 1690.75 310.291V322.791ZM1687.62 313.416H1681.37C1681.1 313.416 1680.83 313.526 1680.64 313.721C1680.44 313.917 1680.33 314.182 1680.33 314.458C1680.33 314.734 1680.44 314.999 1680.64 315.195C1680.83 315.39 1681.1 315.5 1681.37 315.5H1687.62C1687.9 315.5 1688.17 315.39 1688.36 315.195C1688.56 314.999 1688.67 314.734 1688.67 314.458C1688.67 314.182 1688.56 313.917 1688.36 313.721C1688.17 313.526 1687.9 313.416 1687.62 313.416Z" fill="#1B1B1B"/>
<line x1="1292" y1="324" x2="1487" y2="324" stroke="#949494" stroke-width="10" stroke-linecap="round"/>
<line x1="1292" y1="358" x2="1582" y2="358" stroke="#949494" stroke-width="10" stroke-linecap="round"/>
<line x1="1292" y1="392" x2="1529" y2="392" stroke="#949494" stroke-width="10" stroke-linecap="round"/>
<line x1="1292" y1="426" x2="1676" y2="426" stroke="#949494" stroke-width="10" stroke-linecap="round"/>
<line x1="1292" y1="510" x2="1487" y2="510" stroke="#949494" stroke-width="10" stroke-linecap="round"/>
<line x1="1292" y1="544" x2="1582" y2="544" stroke="#949494" stroke-width="10" stroke-linecap="round"/>
<line x1="1292" y1="578" x2="1529" y2="578" stroke="#949494" stroke-width="10" stroke-linecap="round"/>
<line x1="1292" y1="612" x2="1676" y2="612" stroke="#949494" stroke-width="10" stroke-linecap="round"/>
<line x1="1292" y1="682" x2="1487" y2="682" stroke="#949494" stroke-width="10" stroke-linecap="round"/>
<line x1="1292" y1="716" x2="1582" y2="716" stroke="#949494" stroke-width="10" stroke-linecap="round"/>
<line x1="1292" y1="750" x2="1529" y2="750" stroke="#949494" stroke-width="10" stroke-linecap="round"/>
<line x1="1292" y1="784" x2="1676" y2="784" stroke="#949494" stroke-width="10" stroke-linecap="round"/>
<line x1="1292" y1="851" x2="1487" y2="851" stroke="#949494" stroke-width="10" stroke-linecap="round"/>
<line x1="1292" y1="885" x2="1582" y2="885" stroke="#949494" stroke-width="10" stroke-linecap="round"/>
<line x1="1292" y1="919" x2="1529" y2="919" stroke="#949494" stroke-width="10" stroke-linecap="round"/>
<line x1="1292" y1="953" x2="1441" y2="953" stroke="#949494" stroke-width="10" stroke-linecap="round"/>
</g>
<g clip-path="url(#clip9_176_34181)">
<rect width="1920" height="40" fill="#C3C3C3"/>
<rect width="40" height="40" transform="translate(1840)" fill="#777777"/>
<rect width="40" height="40" transform="translate(1800)" fill="#A2A2A2"/>
<rect width="40" height="40" transform="translate(1880)" fill="#FD8787"/>
<g clip-path="url(#clip10_176_34181)">
<rect width="1920" height="40" fill="#C3C3C3"/>
<rect width="40" height="40" transform="translate(1840)" fill="#777777"/>
<rect width="40" height="40" transform="translate(1800)" fill="#A2A2A2"/>
<rect width="40" height="40" transform="translate(1880)" fill="#FD8787"/>
<rect width="1920" height="40" fill="#C3C3C3"/>
<path d="M1769.81 22.0494L1769.69 20.8621L1769.65 20.8657L1769.61 20.8728L1769.81 22.0494ZM1769.81 22.0494L1769.93 23.2366L1769.97 23.233L1770 23.2271L1769.81 22.0494ZM1764.99 28.5907L1765.74 27.6671L1765.73 27.6599L1764.99 28.5907ZM1764.99 28.5907L1764.23 29.5142L1764.24 29.5226L1764.99 28.5907ZM1754.01 28.5907L1753.26 27.6683L1753.24 27.6838L1753.22 27.6993L1754.01 28.5907ZM1754.01 28.5907L1754.77 29.5154L1754.79 29.4999L1754.81 29.4832L1754.01 28.5907ZM1749.19 16.9519V15.7586H1749.13L1749.07 15.7646L1749.19 16.9519ZM1749.19 16.9519V18.1451H1749.25L1749.31 18.1391L1749.19 16.9519ZM1763.24 9.07293C1763.22 8.84341 1763.19 8.61459 1763.15 8.38682C1763.12 8.13607 1763.04 7.89278 1762.93 7.6661L1760.81 8.76149C1760.78 8.7078 1760.79 8.68871 1760.8 8.78297C1760.82 8.88917 1760.83 9.03713 1760.86 9.31158L1763.24 9.07293ZM1763.35 10.2065C1763.43 10.3043 1763.4 10.3485 1763.36 10.1158C1763.32 9.89387 1763.29 9.58244 1763.24 9.07293L1760.86 9.31038C1760.91 9.78052 1760.95 10.2029 1761.01 10.5394C1761.07 10.8616 1761.17 11.2852 1761.45 11.6527L1763.35 10.2065ZM1763.35 10.2065L1761.45 11.6527C1761.71 11.9878 1762.05 12.2494 1762.44 12.4107C1762.82 12.5721 1763.25 12.6276 1763.67 12.5715L1763.35 10.2065ZM1764.23 9.48459C1763.96 9.71061 1763.69 9.9275 1763.41 10.1349C1763.21 10.2697 1763.23 10.222 1763.35 10.2065L1763.67 12.5715C1764.13 12.5094 1764.5 12.2827 1764.77 12.0942C1765.05 11.9009 1765.38 11.6312 1765.74 11.3317L1764.23 9.48459ZM1765.44 8.70899C1765.2 8.7889 1764.98 8.90651 1764.77 9.05742C1764.61 9.17674 1764.42 9.33067 1764.23 9.48459L1765.74 11.3317C1765.95 11.1575 1766.07 11.0632 1766.16 11.0012C1766.24 10.9451 1766.23 10.9642 1766.17 10.9821L1765.44 8.70899ZM1767.12 8.79252C1766.59 8.56287 1765.99 8.5332 1765.44 8.70899L1766.17 10.9821L1767.12 8.79252ZM1768.25 9.68506C1768.09 9.51987 1767.92 9.35989 1767.75 9.20538C1767.56 9.03506 1767.35 8.8957 1767.12 8.79252L1766.17 10.9821C1766.11 10.9582 1766.11 10.9391 1766.18 11.0024C1766.26 11.074 1766.37 11.1778 1766.56 11.3723L1768.25 9.68506ZM1769.31 10.7518L1768.25 9.68506L1766.56 11.3723L1767.63 12.439L1769.31 10.7518ZM1770.21 11.8806C1770.1 11.6492 1769.96 11.4358 1769.79 11.2482C1769.64 11.0776 1769.48 10.9121 1769.31 10.7518L1767.63 12.4402C1767.82 12.6347 1767.92 12.7409 1768 12.8221C1768.06 12.8937 1768.04 12.8853 1768.02 12.8304L1770.21 11.8806ZM1770.29 13.5559C1770.47 13.0058 1770.44 12.4105 1770.21 11.8806L1768.02 12.8304L1770.29 13.5559ZM1769.51 14.7682C1769.66 14.5919 1769.8 14.4108 1769.94 14.2253C1770.07 14.0487 1770.2 13.8292 1770.29 13.5559L1768.02 12.8304C1768.03 12.7743 1768.05 12.7624 1768 12.8412C1767.94 12.9283 1767.84 13.044 1767.67 13.2576L1769.51 14.7682ZM1768.79 15.65C1768.78 15.7729 1768.73 15.7873 1768.86 15.5928C1768.99 15.4078 1769.19 15.1644 1769.51 14.7682L1767.67 13.2576C1767.37 13.6227 1767.1 13.9509 1766.9 14.2313C1766.72 14.501 1766.49 14.8732 1766.43 15.3314L1768.79 15.65ZM1768.79 15.65L1766.43 15.3314C1766.37 15.749 1766.43 16.174 1766.59 16.5632C1766.75 16.9524 1767.01 17.2919 1767.35 17.5473L1768.79 15.65ZM1769.93 15.7634C1769.58 15.7342 1769.23 15.6932 1768.88 15.6405C1768.65 15.5987 1768.69 15.5749 1768.79 15.65L1767.35 17.5473C1767.71 17.8277 1768.14 17.9303 1768.46 17.9888C1768.8 18.0484 1769.22 18.0902 1769.69 18.1379L1769.93 15.7634ZM1771.33 16.0713C1771.11 15.9579 1770.86 15.8814 1770.61 15.8445C1770.38 15.8101 1770.16 15.7831 1769.93 15.7634L1769.69 18.1379C1769.87 18.1535 1770.04 18.1733 1770.22 18.1976C1770.31 18.2143 1770.29 18.2203 1770.24 18.1928L1771.33 16.0713ZM1772.46 17.3158C1772.25 16.7784 1771.85 16.3362 1771.33 16.0713L1770.24 18.1952L1772.46 17.3158ZM1772.62 18.7453C1772.62 18.5019 1772.63 18.2596 1772.61 18.0544C1772.6 17.8011 1772.55 17.5514 1772.46 17.3146L1770.24 18.1952C1770.22 18.1391 1770.23 18.12 1770.23 18.2155C1770.24 18.3229 1770.24 18.472 1770.24 18.7477L1772.62 18.7453ZM1772.62 20.2535V18.7453H1770.24V20.2535H1772.62ZM1772.46 21.683C1772.56 21.4169 1772.6 21.1616 1772.61 20.9432C1772.63 20.7392 1772.62 20.497 1772.62 20.2535H1770.24C1770.24 20.5292 1770.24 20.6783 1770.23 20.7857C1770.22 20.8812 1770.22 20.8621 1770.24 20.806L1772.46 21.683ZM1771.33 22.9276C1771.85 22.6626 1772.25 22.2204 1772.46 21.683L1770.24 20.8072L1771.33 22.9276ZM1769.93 23.2354C1770.17 23.2116 1770.41 23.1877 1770.61 23.1543C1770.83 23.1185 1771.08 23.0588 1771.33 22.9276L1770.24 20.8072C1770.29 20.7798 1770.31 20.7857 1770.22 20.8012C1770.04 20.8264 1769.87 20.8467 1769.69 20.8621L1769.93 23.2354ZM1768.79 23.3488C1768.69 23.424 1768.65 23.4001 1768.88 23.3583C1769.1 23.319 1769.42 23.2867 1769.93 23.2354L1769.69 20.8609C1769.22 20.9086 1768.8 20.9492 1768.46 21.0101C1768.14 21.0685 1767.71 21.1711 1767.35 21.4515L1768.79 23.3488ZM1768.79 23.3488L1767.35 21.4515C1767.01 21.7069 1766.75 22.0464 1766.59 22.4356C1766.43 22.8248 1766.37 23.2498 1766.43 23.6674L1768.79 23.3488ZM1769.51 24.2294C1769.29 23.9624 1769.07 23.6878 1768.86 23.4061C1768.73 23.2116 1768.78 23.2259 1768.79 23.3488L1766.43 23.6674C1766.49 24.1256 1766.72 24.4979 1766.9 24.7675C1767.1 25.048 1767.37 25.3761 1767.67 25.7412L1769.51 24.2294ZM1770.29 25.4417C1770.21 25.2019 1770.09 24.9764 1769.94 24.7735C1769.82 24.6053 1769.67 24.4191 1769.51 24.2294L1767.67 25.7412C1767.84 25.9548 1767.94 26.0694 1768 26.1577C1768.05 26.2352 1768.04 26.2257 1768.02 26.1696L1770.29 25.4417ZM1770.21 27.1182C1770.44 26.5879 1770.47 25.9922 1770.29 25.4417L1768.02 26.1696L1770.21 27.1182ZM1769.31 28.247C1769.49 28.074 1769.66 27.9046 1769.79 27.7494C1769.94 27.5848 1770.09 27.3807 1770.21 27.117L1768.02 26.1684C1768.04 26.1135 1768.06 26.1064 1768 26.178C1767.92 26.2591 1767.82 26.3641 1767.63 26.5598L1769.31 28.247ZM1768.25 29.3126L1769.31 28.247L1767.63 26.5598L1766.56 27.6253L1768.25 29.3126ZM1767.12 30.2063C1767.35 30.1028 1767.56 29.963 1767.75 29.7923C1767.9 29.6574 1768.08 29.4856 1768.25 29.3126L1766.56 27.6253C1766.44 27.7522 1766.31 27.8755 1766.18 27.9952C1766.11 28.0597 1766.11 28.0406 1766.17 28.0167L1767.12 30.2063ZM1765.44 30.2898C1765.99 30.4656 1766.59 30.436 1767.12 30.2063L1766.17 28.0167L1765.44 30.2898ZM1764.23 29.5142C1764.42 29.6682 1764.61 29.8221 1764.77 29.9414C1764.95 30.0667 1765.17 30.2027 1765.44 30.2898L1766.17 28.0167C1766.23 28.0346 1766.24 28.0525 1766.16 27.9976C1766.02 27.8913 1765.88 27.7811 1765.74 27.6671L1764.23 29.5142ZM1763.35 28.7935C1763.23 28.7756 1763.21 28.7279 1763.41 28.8627C1763.59 28.9916 1763.83 29.1885 1764.23 29.513L1765.74 27.6671C1765.38 27.3676 1765.05 27.0979 1764.77 26.9034C1764.5 26.7149 1764.13 26.4894 1763.67 26.4273L1763.35 28.7935ZM1763.35 28.7935L1763.67 26.4273C1763.25 26.3713 1762.82 26.4267 1762.44 26.5881C1762.05 26.7495 1761.71 27.011 1761.45 27.3461L1763.35 28.7935ZM1763.24 29.9259C1763.29 29.4164 1763.32 29.1038 1763.36 28.883C1763.4 28.6503 1763.42 28.6933 1763.35 28.7923L1761.45 27.3449C1761.17 27.7125 1761.07 28.136 1761.01 28.4594C1760.95 28.7959 1760.91 29.2183 1760.86 29.6884L1763.24 29.9259ZM1762.93 31.3327C1763.06 31.0774 1763.12 30.8268 1763.15 30.612C1763.19 30.4092 1763.21 30.1693 1763.24 29.9259L1760.86 29.6884C1760.85 29.8656 1760.83 30.0411 1760.8 30.2171C1760.78 30.3125 1760.78 30.2922 1760.81 30.2385L1762.93 31.3327ZM1761.68 32.4579C1762.22 32.2454 1762.66 31.8456 1762.93 31.3327L1760.81 30.2397L1761.68 32.4579ZM1760.25 32.625C1760.5 32.625 1760.74 32.625 1760.94 32.6119C1761.16 32.5976 1761.42 32.5653 1761.68 32.4579L1760.81 30.2397C1760.86 30.2182 1760.88 30.2254 1760.79 30.2326C1760.61 30.2399 1760.43 30.2423 1760.25 30.2397L1760.25 32.625ZM1758.75 32.625H1760.25L1760.25 30.2385H1758.75V32.625ZM1757.32 32.4579C1757.58 32.563 1757.84 32.5976 1758.06 32.6119C1758.26 32.625 1758.5 32.625 1758.75 32.625V30.2385C1758.47 30.2385 1758.32 30.2385 1758.21 30.2314C1758.12 30.2242 1758.14 30.2171 1758.19 30.2385L1757.32 32.4579ZM1756.07 31.3327C1756.34 31.8461 1756.78 32.2459 1757.32 32.4579L1758.19 30.2385L1756.07 31.3327ZM1755.76 29.9259C1755.79 30.1693 1755.81 30.4092 1755.84 30.612C1755.88 30.8268 1755.94 31.0774 1756.07 31.3327L1758.2 30.2397C1758.22 30.2922 1758.22 30.3125 1758.2 30.2182C1758.18 30.0426 1758.16 29.8664 1758.14 29.6896L1755.76 29.9259ZM1755.65 28.7923C1755.57 28.6945 1755.6 28.6491 1755.64 28.883C1755.68 29.1038 1755.71 29.4164 1755.76 29.9259L1758.14 29.6884C1758.09 29.2183 1758.05 28.7959 1757.99 28.4594C1757.93 28.1372 1757.83 27.7136 1757.55 27.3461L1755.65 28.7923ZM1755.65 28.7923L1757.55 27.3461C1757.29 27.011 1756.95 26.7495 1756.56 26.5881C1756.17 26.4267 1755.75 26.3713 1755.33 26.4273L1755.65 28.7923ZM1754.77 29.5142C1755.17 29.1897 1755.41 28.9916 1755.59 28.8639C1755.79 28.7291 1755.77 28.7768 1755.65 28.7923L1755.33 26.4273C1754.87 26.4894 1754.5 26.7161 1754.23 26.9046C1753.95 27.0979 1753.62 27.3676 1753.26 27.6671L1754.77 29.5142ZM1753.56 30.2898C1753.8 30.2099 1754.02 30.0923 1754.23 29.9414C1754.39 29.8221 1754.58 29.6682 1754.77 29.5142L1753.26 27.6683C1753.12 27.7823 1752.98 27.8926 1752.84 27.9988C1752.76 28.0549 1752.78 28.037 1752.83 28.0179L1753.56 30.2898ZM1751.88 30.2063C1752.41 30.436 1753.01 30.4656 1753.56 30.2898L1752.83 28.0167L1751.88 30.2063ZM1750.75 29.3138C1750.92 29.4868 1751.09 29.6574 1751.25 29.7935C1751.41 29.9366 1751.62 30.093 1751.88 30.2075L1752.83 28.0167C1752.88 28.0406 1752.89 28.0597 1752.82 27.9964C1752.69 27.8767 1752.56 27.7534 1752.44 27.6265L1750.75 29.3138ZM1749.69 28.247L1750.75 29.3138L1752.44 27.6265L1751.37 26.5598L1749.69 28.247ZM1748.79 27.1182C1748.91 27.3807 1749.06 27.586 1749.21 27.7506C1749.34 27.9046 1749.51 28.0752 1749.69 28.247L1751.37 26.5598C1751.25 26.436 1751.12 26.3086 1751 26.178C1750.94 26.1064 1750.96 26.1147 1750.98 26.1696L1748.79 27.1182ZM1748.71 25.4429C1748.53 25.9931 1748.56 26.5883 1748.79 27.1182L1750.98 26.1696L1748.71 25.4429ZM1749.48 24.2306C1749.34 24.4069 1749.19 24.588 1749.06 24.7735C1748.91 24.9768 1748.79 25.2027 1748.71 25.4429L1750.98 26.1696C1750.96 26.2257 1750.95 26.2364 1751 26.1577C1751.06 26.0706 1751.16 25.9548 1751.33 25.7412L1749.48 24.2306ZM1750.21 23.3488C1750.22 23.2259 1750.27 23.2116 1750.13 23.4061C1750.01 23.591 1749.81 23.8344 1749.48 24.2306L1751.33 25.7412C1751.63 25.3761 1751.9 25.048 1752.1 24.7675C1752.28 24.4979 1752.51 24.1256 1752.57 23.6674L1750.21 23.3488ZM1750.21 23.3488L1752.57 23.6674C1752.63 23.2498 1752.57 22.8248 1752.41 22.4356C1752.25 22.0464 1751.99 21.7069 1751.65 21.4515L1750.21 23.3488ZM1749.07 23.2354C1749.58 23.2867 1749.9 23.319 1750.12 23.3583C1750.35 23.4001 1750.3 23.424 1750.21 23.3488L1751.65 21.4515C1751.29 21.1711 1750.86 21.0685 1750.54 21.0101C1750.2 20.9504 1749.78 20.9086 1749.31 20.8609L1749.07 23.2354ZM1747.67 22.9276C1747.92 23.0588 1748.17 23.1185 1748.39 23.1543C1748.59 23.1877 1748.83 23.2128 1749.07 23.2366L1749.31 20.8609C1749.13 20.8459 1748.96 20.826 1748.78 20.8012C1748.69 20.7845 1748.71 20.7786 1748.76 20.806L1747.67 22.9276ZM1746.54 21.6842C1746.75 22.2216 1747.15 22.6638 1747.67 22.9288L1748.76 20.8072L1746.54 21.6842ZM1746.38 20.2547C1746.38 20.4982 1746.38 20.7404 1746.39 20.9456C1746.4 21.1628 1746.44 21.4181 1746.54 21.6854L1748.76 20.806C1748.78 20.8621 1748.78 20.8812 1748.77 20.7857C1748.76 20.6088 1748.76 20.4318 1748.76 20.2547H1746.38ZM1746.38 18.7465V20.2547H1748.76V18.7465H1746.38ZM1746.54 17.3158C1746.45 17.5527 1746.4 17.8024 1746.39 18.0556C1746.37 18.2608 1746.38 18.5031 1746.38 18.7477H1748.76C1748.76 18.4708 1748.76 18.3217 1748.77 18.2143C1748.78 18.1188 1748.78 18.1379 1748.76 18.194L1746.54 17.3158ZM1747.67 16.0736C1747.15 16.338 1746.75 16.7793 1746.54 17.3158L1748.76 18.194L1747.67 16.0736ZM1749.07 15.7634C1748.83 15.7885 1748.59 15.8111 1748.39 15.8469C1748.17 15.8827 1747.92 15.9424 1747.67 16.0736L1748.76 18.194C1748.71 18.2215 1748.69 18.2155 1748.78 18.2C1748.96 18.1748 1749.13 18.1545 1749.31 18.1391L1749.07 15.7634ZM1750.21 15.6512C1750.31 15.5761 1750.35 15.5999 1750.12 15.6417C1749.9 15.6811 1749.58 15.7133 1749.07 15.7646L1749.31 18.1391C1749.78 18.0914 1750.2 18.0508 1750.54 17.99C1750.86 17.9315 1751.29 17.8289 1751.66 17.5485L1750.21 15.6512ZM1750.21 15.6512L1751.66 17.5485C1751.99 17.293 1752.25 16.9534 1752.41 16.5642C1752.57 16.175 1752.63 15.7501 1752.57 15.3326L1750.21 15.6512ZM1749.49 14.7694C1749.81 15.1656 1750.01 15.409 1750.14 15.594C1750.27 15.7885 1750.22 15.7741 1750.21 15.6512L1752.57 15.3326C1752.51 14.8744 1752.29 14.5033 1752.1 14.2325C1751.9 13.9521 1751.63 13.6239 1751.33 13.2588L1749.49 14.7694ZM1748.71 13.5559C1748.8 13.8304 1748.93 14.0487 1749.06 14.2265C1749.18 14.3936 1749.33 14.5809 1749.49 14.7694L1751.33 13.2588C1751.22 13.1227 1751.11 12.9846 1751 12.8424C1750.95 12.7648 1750.97 12.7743 1750.98 12.8304L1748.71 13.5559ZM1748.79 11.8818C1748.56 12.4114 1748.53 13.0061 1748.71 13.5559L1750.98 12.8304L1748.79 11.8818ZM1749.69 10.7518C1749.51 10.9248 1749.34 11.0943 1749.21 11.2494C1749.04 11.4369 1748.9 11.6504 1748.79 11.8818L1750.98 12.8304C1750.96 12.8853 1750.94 12.8937 1751 12.8209C1751.08 12.7397 1751.18 12.6347 1751.37 12.439L1749.69 10.7518ZM1750.75 9.68625L1749.69 10.7518L1751.37 12.439L1752.44 11.3735L1750.75 9.68625ZM1751.88 8.79252C1751.65 8.89606 1751.44 9.03583 1751.25 9.20657C1751.08 9.3611 1750.91 9.52108 1750.75 9.68625L1752.44 11.3735C1752.64 11.1778 1752.74 11.074 1752.82 11.0036C1752.89 10.9391 1752.89 10.9582 1752.83 10.9821L1751.88 8.79252ZM1753.56 8.70899C1753.01 8.5332 1752.41 8.56287 1751.88 8.79252L1752.83 10.9821L1753.56 8.70899ZM1754.77 9.48459C1754.58 9.33067 1754.39 9.17793 1754.23 9.05861C1754.02 8.90728 1753.8 8.78926 1753.56 8.70899L1752.83 10.9821C1752.77 10.9642 1752.76 10.9463 1752.84 11.0012C1752.93 11.0644 1753.05 11.1575 1753.26 11.3329L1754.77 9.48459ZM1755.65 10.2065C1755.77 10.2232 1755.79 10.2709 1755.59 10.1361C1755.31 9.92868 1755.04 9.71178 1754.77 9.48579L1753.26 11.3329C1753.62 11.6312 1753.95 11.9009 1754.23 12.0966C1754.5 12.2839 1754.87 12.5094 1755.33 12.5715L1755.65 10.2065ZM1755.65 10.2065L1755.33 12.5715C1755.75 12.6276 1756.18 12.5721 1756.56 12.4107C1756.95 12.2494 1757.29 11.9878 1757.55 11.6527L1755.65 10.2065ZM1755.76 9.07293C1755.71 9.58363 1755.68 9.89626 1755.64 10.117C1755.6 10.3497 1755.58 10.3055 1755.65 10.2065L1757.55 11.6527C1757.83 11.2852 1757.93 10.8628 1757.99 10.5394C1758.05 10.2041 1758.09 9.78052 1758.14 9.31038L1755.76 9.07293ZM1756.07 7.6673C1755.96 7.89397 1755.88 8.13726 1755.85 8.38801C1755.81 8.59086 1755.79 8.8307 1755.76 9.07412L1758.14 9.31038C1758.15 9.13372 1758.17 8.95865 1758.2 8.78297C1758.22 8.68751 1758.22 8.70899 1758.19 8.76149L1756.07 7.6673ZM1757.32 6.54208C1756.78 6.75415 1756.34 7.15395 1756.07 7.6673L1758.19 8.76149L1757.32 6.54208ZM1758.75 6.37502C1758.5 6.37502 1758.26 6.37502 1758.06 6.38815C1757.8 6.39984 1757.55 6.4518 1757.32 6.54208L1758.2 8.76149C1758.14 8.78297 1758.12 8.77581 1758.22 8.76985C1758.32 8.76269 1758.47 8.76149 1758.75 8.76149L1758.75 6.37502ZM1760.25 6.37502H1758.75V8.76149H1760.25V6.37502ZM1761.68 6.54208C1761.45 6.4518 1761.2 6.39984 1760.94 6.38815C1760.74 6.37383 1760.5 6.37502 1760.26 6.37502V8.76149C1760.53 8.76149 1760.68 8.76149 1760.79 8.76985C1760.88 8.77581 1760.86 8.78297 1760.81 8.76149L1761.68 6.54208ZM1762.93 7.6673C1762.66 7.15395 1762.22 6.75415 1761.68 6.54208L1760.81 8.76149L1762.93 7.6673ZM1763.08 19.5006C1763.08 20.45 1762.7 21.3605 1762.03 22.0318C1761.36 22.7032 1760.45 23.0803 1759.5 23.0803V25.4668C1761.08 25.4668 1762.6 24.8382 1763.72 23.7193C1764.84 22.6005 1765.47 21.0829 1765.47 19.5006H1763.08ZM1759.5 15.9209C1760.45 15.9209 1761.36 16.298 1762.03 16.9694C1762.7 17.6407 1763.08 18.5512 1763.08 19.5006H1765.47C1765.47 17.9183 1764.84 16.4008 1763.72 15.2819C1762.6 14.163 1761.08 13.5344 1759.5 13.5344V15.9209ZM1755.92 19.5006C1755.92 18.5512 1756.3 17.6407 1756.97 16.9694C1757.64 16.298 1758.55 15.9209 1759.5 15.9209V13.5344C1757.92 13.5344 1756.4 14.163 1755.28 15.2819C1754.16 16.4008 1753.53 17.9183 1753.53 19.5006H1755.92ZM1759.5 23.0803C1758.55 23.0803 1757.64 22.7032 1756.97 22.0318C1756.3 21.3605 1755.92 20.45 1755.92 19.5006H1753.53C1753.53 21.0829 1754.16 22.6005 1755.28 23.7193C1756.4 24.8382 1757.92 25.4668 1759.5 25.4668V23.0803Z" fill="black"/>
<rect width="40" height="40" transform="translate(1800)" fill="#A2A2A2"/>
<path fill-rule="evenodd" clip-rule="evenodd" d="M1811 27C1811 26.7348 1811.11 26.4804 1811.29 26.2929C1811.48 26.1054 1811.73 26 1812 26H1828C1828.27 26 1828.52 26.1054 1828.71 26.2929C1828.89 26.4804 1829 26.7348 1829 27C1829 27.2652 1828.89 27.5196 1828.71 27.7071C1828.52 27.8946 1828.27 28 1828 28H1812C1811.73 28 1811.48 27.8946 1811.29 27.7071C1811.11 27.5196 1811 27.2652 1811 27Z" fill="black"/>
<rect width="40" height="40" transform="translate(1840)" fill="#777777"/>
<path d="M1853 29C1852.45 29 1851.98 28.8043 1851.59 28.413C1851.2 28.0217 1851 27.5507 1851 27V13C1851 12.45 1851.2 11.9793 1851.59 11.588C1851.98 11.1967 1852.45 11.0007 1853 11H1867C1867.55 11 1868.02 11.196 1868.41 11.588C1868.81 11.98 1869 12.4507 1869 13V27C1869 27.55 1868.8 28.021 1868.41 28.413C1868.02 28.805 1867.55 29.0007 1867 29H1853ZM1853 27H1867V13H1853V27Z" fill="black"/>
<rect width="40" height="40" transform="translate(1880)" fill="#FD8787"/>
<g clip-path="url(#clip11_176_34181)">
<path fill-rule="evenodd" clip-rule="evenodd" d="M1893.19 11.3765C1892.95 11.1423 1892.63 11.0127 1892.29 11.0157C1891.95 11.0186 1891.63 11.1538 1891.39 11.3922C1891.15 11.6306 1891.02 11.9531 1891.02 12.2902C1891.01 12.6273 1891.14 12.9521 1891.38 13.1945L1898.18 19.9998L1891.38 26.8051C1891.25 26.9237 1891.16 27.0656 1891.09 27.2225C1891.02 27.3793 1890.99 27.548 1890.98 27.7187C1890.98 27.8895 1891.02 28.0588 1891.08 28.2168C1891.14 28.3748 1891.24 28.5183 1891.36 28.639C1891.48 28.7598 1891.63 28.8552 1891.78 28.9199C1891.94 28.9845 1892.11 29.0171 1892.28 29.0156C1892.45 29.0141 1892.62 28.9786 1892.78 28.9112C1892.93 28.8439 1893.08 28.7459 1893.19 28.6231L1900 21.8178L1906.81 28.6231C1907.05 28.8573 1907.37 28.9869 1907.71 28.984C1908.05 28.9811 1908.37 28.8458 1908.61 28.6075C1908.85 28.3691 1908.98 28.0466 1908.98 27.7095C1908.99 27.3724 1908.86 27.0476 1908.62 26.8051L1901.82 19.9998L1908.62 13.1945C1908.86 12.9521 1908.99 12.6273 1908.98 12.2902C1908.98 11.9531 1908.85 11.6306 1908.61 11.3922C1908.37 11.1538 1908.05 11.0186 1907.71 11.0157C1907.37 11.0127 1907.05 11.1423 1906.81 11.3765L1900 18.1818L1893.19 11.3765Z" fill="black"/>
</g>
<path d="M57.7109 15.3848C57.5059 13.4219 55.7773 12.2793 53.3457 12.2793C50.7383 12.2793 49.0977 13.5977 49.0977 15.4141C49.0977 17.4355 51.2949 18.1973 52.9648 18.6074L55.0156 19.1641C57.7402 19.8086 61.1094 21.3027 61.1387 25.1406C61.1094 28.7148 58.2676 31.3516 53.2578 31.3516C48.5117 31.3516 45.5234 28.9785 45.3184 25.1113H48.541C48.7461 27.4258 50.7676 28.5391 53.2578 28.5391C55.9531 28.5391 57.916 27.1621 57.9453 25.082C57.916 23.2363 56.1875 22.4746 53.9316 21.8887L51.4121 21.2148C48.0137 20.2773 45.875 18.5488 45.875 15.5898C45.875 11.9277 49.1562 9.49609 53.4336 9.49609C57.7402 9.49609 60.7578 11.957 60.8457 15.3848H57.7109ZM66.5363 31H63.1086L70.7258 9.78906H74.4465L82.093 31H78.6652L76.7316 25.4043H68.4699L66.5363 31ZM69.4074 22.709H75.7941L72.6594 13.6562H72.5129L69.4074 22.709ZM88.3109 9.78906V31H85.0883V9.78906H88.3109Z" fill="black"/>
</g>
</g>
<rect x="155" y="74" width="60" height="62" rx="30" fill="#F4F4F4"/>
<path d="M173 116.31V101.621C173 101.188 173.098 100.779 173.295 100.392C173.491 100.006 173.762 99.6876 174.107 99.4375L183.339 92.5459C183.822 92.182 184.374 92 184.995 92C185.615 92 186.171 92.182 186.661 92.5459L195.893 99.4358C196.239 99.6859 196.51 100.005 196.705 100.392C196.902 100.779 197 101.188 197 101.621V116.31C197 116.763 196.829 117.158 196.487 117.495C196.146 117.832 195.745 118 195.286 118H189.485C189.091 118 188.762 117.869 188.497 117.608C188.232 117.345 188.099 117.021 188.099 116.635V108.575C188.099 108.189 187.967 107.865 187.702 107.603C187.435 107.341 187.106 107.21 186.714 107.21H183.286C182.894 107.21 182.565 107.341 182.3 107.603C182.034 107.865 181.901 108.189 181.901 108.575V116.636C181.901 117.023 181.768 117.347 181.503 117.608C181.238 117.869 180.909 118 180.517 118H174.714C174.255 118 173.854 117.832 173.513 117.495C173.171 117.158 173 116.763 173 116.31Z" fill="black"/>
<path d="M249.705 92.2402V105.746H246.951V92.2402H249.705ZM249.734 107.006V113.568H235.262V116H250.613V118.227H232.566V111.459H246.98V109.203H232.479V107.006H249.734ZM237.518 94.9648C237.488 98.4805 240.037 101.674 244.051 102.934L242.674 105.102C239.612 104.105 237.312 102.025 236.141 99.3594C234.939 102.23 232.596 104.516 229.461 105.6L228.055 103.402C232.156 102.025 234.676 98.5977 234.676 94.9648V92.9434H237.518V94.9648ZM259.907 107.973V110.756H272.241V107.973H275.025V118.168H257.154V107.973H259.907ZM259.907 115.941H272.241V112.924H259.907V115.941ZM278.13 104.018V106.332H254.195V104.018H278.13ZM267.583 93.6465C267.583 96.6641 271.773 99.5938 276.812 100.209L275.816 102.406C271.553 101.806 267.847 99.7988 266.177 97.0156C264.463 99.8135 260.742 101.806 256.538 102.406L255.484 100.209C260.581 99.5645 264.741 96.752 264.741 93.6465V92.5332H267.583V93.6465ZM304.446 112.895V115.209H280.422V112.895H290.998V106.83H283.176V94.3496H301.575V106.83H293.752V112.895H304.446ZM285.871 96.5762V104.633H298.85V96.5762H285.871ZM327.92 104.691V106.977H309.638V94.584H327.685V96.8691H312.392V104.691H327.92ZM330.673 112.719V115.033H306.65V112.719H330.673Z" fill="black"/>
<rect x="1080" y="74" width="173" height="60" rx="30" fill="#F4F4F4"/>
<g filter="url(#filter11_d_176_34181)">
<g clip-path="url(#clip12_176_34181)">
<path d="M1373 70C1373 53.4314 1386.43 40 1403 40H1920V1080H1403C1386.43 1080 1373 1066.57 1373 1050V70Z" fill="#F4F4F4"/>
<rect x="1409" y="103" width="475" height="323" rx="30" fill="white"/>
<path d="M1664.6 215.334C1672.37 215.334 1678.67 221.634 1678.67 229.405V266.595C1678.67 274.366 1672.37 280.667 1664.6 280.667H1627.41C1619.63 280.667 1613.33 274.366 1613.33 266.595V229.405C1613.33 221.634 1619.63 215.334 1627.41 215.334H1664.6ZM1644.65 263.915L1650.77 270.032C1651.56 270.817 1651.56 272.09 1650.77 272.875C1649.99 273.659 1648.71 273.66 1647.93 272.875L1632.6 257.544L1618.94 271.199C1618.84 271.301 1618.73 271.388 1618.61 271.464C1620.33 274.554 1623.62 276.646 1627.41 276.646H1664.6C1670.15 276.646 1674.65 272.146 1674.65 266.595V264.413L1659.4 249.168L1644.65 263.915ZM1627.41 219.354C1621.86 219.354 1617.35 223.854 1617.35 229.405V266.595C1617.35 266.76 1617.36 266.925 1617.37 267.089L1631.18 253.279C1631.96 252.495 1633.23 252.495 1634.02 253.279L1641.81 261.071L1657.98 244.903C1658.77 244.119 1660.04 244.119 1660.82 244.903L1674.65 258.727V229.405C1674.65 223.854 1670.15 219.355 1664.6 219.354H1627.41ZM1634.69 228.233C1639.73 228.233 1643.82 232.321 1643.82 237.363C1643.82 242.405 1639.73 246.493 1634.69 246.493C1629.65 246.493 1625.56 242.405 1625.56 237.363C1625.56 232.321 1629.65 228.233 1634.69 228.233ZM1634.69 232.254C1631.87 232.254 1629.58 234.541 1629.58 237.363C1629.58 240.185 1631.87 242.473 1634.69 242.473C1637.51 242.473 1639.8 240.185 1639.8 237.363C1639.8 234.541 1637.51 232.254 1634.69 232.254Z" fill="#212124"/>
<rect x="1409" y="472" width="475" height="323" rx="30" fill="white"/>
<rect x="1560" y="604" width="173" height="60" rx="30" fill="#F4F4F4"/>
<path d="M1612.85 634.585H1610.07V621.226H1612.85V634.585ZM1604.6 622.456C1604.6 624.663 1604.12 626.611 1603.15 628.301C1602.2 629.99 1600.81 631.406 1598.99 632.549C1597.19 633.691 1594.97 634.57 1592.34 635.186L1591.36 632.9C1593.61 632.402 1595.49 631.719 1597.02 630.85C1598.54 629.98 1599.68 628.955 1600.44 627.773C1601.21 626.582 1601.59 625.273 1601.59 623.848V622.456H1604.6ZM1602.77 624.727H1592.74V622.456H1602.77V624.727ZM1610.46 627.07H1603.62V624.888H1610.46V627.07ZM1610.32 632.095H1603.4V629.927H1610.32V632.095ZM1612.85 642.363H1598.51V646.304H1595.74V640.269H1610.05V637.925H1595.7V635.698H1612.85V642.363ZM1613.63 647.241H1595.74V644.985H1613.63V647.241ZM1630.17 626.294H1618.38V624.053H1630.17V626.294ZM1625.06 640.459H1622.32V631.553H1625.06V640.459ZM1631.81 625.664C1631.8 626.904 1631.79 627.944 1631.77 628.784C1631.75 629.614 1631.69 630.659 1631.58 631.919C1631.47 633.169 1631.3 634.517 1631.07 635.962L1628.3 635.728C1628.62 633.706 1628.82 631.934 1628.9 630.41C1628.99 628.887 1629.03 627.305 1629.03 625.664V624.053H1631.81V625.664ZM1637.63 647.476H1634.85V621.226H1637.63V647.476ZM1641.64 634.438H1636.85V632.065H1641.64V634.438ZM1616.95 639.58C1620.18 639.551 1623.12 639.487 1625.78 639.39C1628.44 639.282 1630.96 639.087 1633.34 638.804L1633.48 640.884C1631.02 641.265 1628.42 641.523 1625.69 641.66C1622.96 641.797 1620.14 641.855 1617.25 641.836L1616.95 639.58ZM1675.07 644.224H1651.05V641.938H1675.07V644.224ZM1664.36 642.583H1661.64V635.815H1664.36V642.583ZM1656.58 627.554H1669.47V623.027H1672.21V636.548H1653.79V623.027H1656.58V627.554ZM1669.47 634.292V629.795H1656.58V634.292H1669.47ZM1699.1 647.476H1696.29V621.226H1699.1V647.476ZM1691.31 624.053C1691.31 626.729 1690.89 629.204 1690.06 631.479C1689.24 633.745 1687.92 635.835 1686.11 637.749C1684.29 639.653 1681.93 641.304 1679.02 642.7L1677.52 640.444C1680.05 639.253 1682.13 637.866 1683.75 636.284C1685.38 634.702 1686.59 632.935 1687.37 630.981C1688.15 629.028 1688.54 626.87 1688.54 624.507V624.053H1691.31ZM1689.74 626.279H1678.8V624.053H1689.74V626.279Z" fill="black"/>
<rect x="1409" y="841" width="475" height="323" rx="30" fill="white"/>
<path d="M1584.99 909.209H1560.97V906.909H1584.99V909.209ZM1574.28 907.524H1571.56V900.361H1574.28V907.524ZM1582.12 900.845H1563.71V888.35H1582.12V900.845ZM1566.45 898.647H1579.41V890.576H1566.45V898.647ZM1609.67 900.142H1607.01V886.255H1609.67V900.142ZM1603.22 894.092H1596.91V891.938H1603.22V894.092ZM1604.54 899.951H1601.9V886.753H1604.54V899.951ZM1590.14 896.802C1592.33 896.802 1594.1 896.758 1595.46 896.67C1596.82 896.582 1598.22 896.411 1599.63 896.157L1599.81 898.413C1598.36 898.657 1596.94 898.823 1595.53 898.911C1594.12 898.999 1592.33 899.043 1590.14 899.043H1588.44V896.802H1590.14ZM1598.52 889.902H1591.19V898.267H1588.44V887.69H1598.52V889.902ZM1609.67 907.598H1594.78V911.26H1592.01V905.474H1606.96V903.394H1591.97V901.196H1609.67V907.598ZM1610.59 912.153H1592.01V909.941H1610.59V912.153ZM1629.86 890.298C1629.86 892.007 1629.57 893.599 1628.97 895.073C1628.39 896.538 1627.54 897.817 1626.42 898.911C1625.31 899.995 1623.99 900.825 1622.45 901.401L1620.94 899.146C1622.32 898.677 1623.51 897.998 1624.52 897.109C1625.52 896.221 1626.29 895.19 1626.82 894.019C1627.35 892.847 1627.61 891.606 1627.61 890.298V887.69H1629.86V890.298ZM1630.38 890.166C1630.38 891.387 1630.63 892.549 1631.12 893.652C1631.63 894.756 1632.36 895.723 1633.32 896.553C1634.28 897.373 1635.41 897.998 1636.72 898.428L1635.18 900.596C1633.72 900.059 1632.46 899.282 1631.4 898.267C1630.35 897.251 1629.53 896.055 1628.96 894.678C1628.39 893.291 1628.11 891.787 1628.11 890.166V887.69H1630.38V890.166ZM1642.93 901.724H1640.15V886.226H1642.93V901.724ZM1634.13 902.471C1635.97 902.471 1637.56 902.666 1638.89 903.057C1640.23 903.438 1641.25 904.009 1641.95 904.771C1642.66 905.522 1643.02 906.426 1643.02 907.48C1643.02 908.516 1642.66 909.404 1641.95 910.146C1641.25 910.898 1640.23 911.47 1638.89 911.86C1637.56 912.251 1635.97 912.446 1634.13 912.446C1632.3 912.446 1630.72 912.251 1629.4 911.86C1628.07 911.47 1627.05 910.898 1626.33 910.146C1625.62 909.404 1625.27 908.516 1625.27 907.48C1625.27 906.426 1625.62 905.522 1626.33 904.771C1627.05 904.009 1628.07 903.438 1629.4 903.057C1630.72 902.666 1632.3 902.471 1634.13 902.471ZM1634.13 904.639C1632.87 904.639 1631.77 904.751 1630.85 904.976C1629.93 905.19 1629.23 905.513 1628.74 905.942C1628.26 906.362 1628.02 906.875 1628.02 907.48C1628.02 908.047 1628.26 908.54 1628.74 908.96C1629.23 909.37 1629.93 909.688 1630.85 909.912C1631.77 910.137 1632.87 910.249 1634.13 910.249C1635.42 910.249 1636.52 910.137 1637.42 909.912C1638.34 909.688 1639.04 909.37 1639.52 908.96C1640.01 908.54 1640.25 908.047 1640.25 907.48C1640.25 906.875 1640.01 906.362 1639.52 905.942C1639.04 905.513 1638.34 905.19 1637.42 904.976C1636.52 904.751 1635.42 904.639 1634.13 904.639ZM1640.65 893.872H1634.61V891.587H1640.65V893.872ZM1668.5 895.586H1650.47V893.315H1668.5V895.586ZM1653.24 894.341H1650.47V886.724H1653.24V894.341ZM1671.24 900.654H1647.27V898.384H1671.24V900.654ZM1659.23 902.793C1661.12 902.793 1662.75 902.979 1664.11 903.35C1665.46 903.711 1666.5 904.253 1667.21 904.976C1667.93 905.698 1668.29 906.567 1668.29 907.583C1668.29 908.589 1667.93 909.448 1667.21 910.161C1666.5 910.884 1665.46 911.431 1664.11 911.802C1662.75 912.183 1661.12 912.373 1659.23 912.373C1657.33 912.373 1655.7 912.183 1654.33 911.802C1652.97 911.431 1651.92 910.884 1651.2 910.161C1650.48 909.448 1650.12 908.589 1650.12 907.583C1650.12 906.567 1650.48 905.698 1651.2 904.976C1651.92 904.253 1652.97 903.711 1654.33 903.35C1655.7 902.979 1657.33 902.793 1659.23 902.793ZM1659.23 904.961C1657.89 904.961 1656.75 905.063 1655.8 905.269C1654.85 905.464 1654.14 905.757 1653.66 906.147C1653.18 906.538 1652.94 907.017 1652.94 907.583C1652.94 908.14 1653.19 908.618 1653.68 909.019C1654.16 909.409 1654.88 909.712 1655.81 909.927C1656.75 910.132 1657.89 910.234 1659.23 910.234C1660.55 910.234 1661.67 910.132 1662.61 909.927C1663.56 909.712 1664.28 909.409 1664.76 909.019C1665.25 908.618 1665.5 908.14 1665.5 907.583C1665.5 907.017 1665.25 906.538 1664.76 906.147C1664.28 905.757 1663.56 905.464 1662.63 905.269C1661.7 905.063 1660.57 904.961 1659.23 904.961ZM1690.25 893.975C1690.25 895.859 1689.93 897.705 1689.27 899.512C1688.62 901.309 1687.72 902.91 1686.58 904.316C1685.43 905.713 1684.14 906.763 1682.69 907.466L1681.05 905.283C1682.35 904.658 1683.53 903.745 1684.58 902.544C1685.64 901.333 1686.46 899.98 1687.06 898.486C1687.66 896.982 1687.97 895.479 1687.97 893.975V890.078H1690.25V893.975ZM1690.78 893.975C1690.78 895.42 1691.07 896.855 1691.66 898.281C1692.25 899.707 1693.08 900.977 1694.13 902.09C1695.2 903.203 1696.39 904.048 1697.72 904.624L1696.18 906.807C1694.7 906.143 1693.38 905.156 1692.22 903.848C1691.06 902.539 1690.16 901.03 1689.52 899.321C1688.88 897.612 1688.57 895.83 1688.57 893.975V890.078H1690.78V893.975ZM1696.79 891.177H1681.98V888.892H1696.79V891.177ZM1702.88 912.476H1700.08V886.226H1702.88V912.476ZM1716.6 907.861H1713.8V900.449H1716.6V907.861ZM1724.77 907.876H1722V900.464H1724.77V907.876ZM1731.38 909.37H1707.35V907.1H1731.38V909.37ZM1729.18 890.825H1709.39V888.555H1729.18V890.825ZM1729.11 901.27H1709.48V898.999H1729.11V901.27ZM1716.14 899.424H1713.37V890.4H1716.14V899.424ZM1725.18 899.424H1722.44V890.4H1725.18V899.424Z" fill="black"/>
<path d="M1459.8 326.34H1454.91V324.069H1459.8V326.34ZM1446.6 332.097C1448.74 332.077 1450.48 332.023 1451.82 331.936C1453.17 331.838 1454.54 331.667 1455.95 331.423L1456.18 333.664C1454.8 333.928 1453.43 334.104 1452.1 334.191C1450.77 334.279 1448.94 334.328 1446.6 334.338H1444.92V332.097H1446.6ZM1454.7 319.558H1447.57V332.873H1444.92V317.346H1454.7V319.558ZM1453.56 326.589H1446.76V324.406H1453.56V326.589ZM1466.53 340.476H1463.86V314.226H1466.53V340.476ZM1461.09 339.187H1458.47V314.812H1461.09V339.187ZM1483.04 317.961C1483.04 319.797 1482.55 321.521 1481.56 323.132C1480.59 324.733 1479.28 326.091 1477.65 327.204C1476.02 328.317 1474.24 329.089 1472.3 329.519L1471.06 327.189C1472.73 326.857 1474.3 326.232 1475.76 325.314C1477.23 324.396 1478.4 323.288 1479.28 321.989C1480.16 320.69 1480.59 319.348 1480.59 317.961V315.998H1483.04V317.961ZM1483.52 317.961C1483.52 319.338 1483.97 320.681 1484.86 321.989C1485.75 323.298 1486.93 324.416 1488.4 325.344C1489.88 326.262 1491.44 326.877 1493.1 327.189L1491.86 329.519C1489.95 329.089 1488.17 328.322 1486.54 327.219C1484.91 326.115 1483.6 324.758 1482.62 323.146C1481.63 321.535 1481.14 319.807 1481.14 317.961V315.998H1483.52V317.961ZM1494.22 337.033H1470.19V334.733H1494.22V337.033ZM1517.74 330.456H1499.43V328.215H1517.74V330.456ZM1520.45 337.18H1496.42V334.895H1520.45V337.18ZM1517.47 318.693H1502.27V328.859H1499.43V316.379H1517.47V318.693ZM1516.89 324.406H1501.4V322.209H1516.89V324.406ZM1552.03 340.549H1549.23V314.226H1552.03V340.549ZM1537.96 316.203C1539.27 316.203 1540.44 316.584 1541.47 317.346C1542.49 318.107 1543.29 319.182 1543.87 320.568C1544.44 321.955 1544.73 323.571 1544.73 325.417C1544.73 327.272 1544.44 328.894 1543.87 330.28C1543.29 331.667 1542.49 332.741 1541.47 333.503C1540.44 334.255 1539.27 334.631 1537.96 334.631C1536.66 334.631 1535.48 334.255 1534.45 333.503C1533.42 332.741 1532.62 331.667 1532.05 330.28C1531.47 328.894 1531.18 327.272 1531.18 325.417C1531.18 323.571 1531.47 321.955 1532.05 320.568C1532.62 319.182 1533.42 318.107 1534.45 317.346C1535.48 316.584 1536.66 316.203 1537.96 316.203ZM1537.96 318.693C1537.16 318.693 1536.45 318.967 1535.83 319.514C1535.2 320.061 1534.72 320.842 1534.38 321.857C1534.04 322.863 1533.88 324.05 1533.88 325.417C1533.88 326.774 1534.04 327.961 1534.38 328.977C1534.72 329.992 1535.2 330.773 1535.83 331.32C1536.45 331.857 1537.16 332.126 1537.96 332.126C1538.77 332.126 1539.47 331.857 1540.09 331.32C1540.71 330.773 1541.2 329.992 1541.54 328.977C1541.88 327.961 1542.05 326.774 1542.05 325.417C1542.05 324.05 1541.88 322.863 1541.54 321.857C1541.2 320.842 1540.72 320.061 1540.1 319.514C1539.49 318.967 1538.78 318.693 1537.96 318.693ZM1570.29 334.001H1557.97V316.76H1570.29V334.001ZM1560.71 331.774H1567.56V318.957H1560.71V331.774ZM1578.25 340.549H1575.46V314.226H1578.25V340.549ZM1591.86 321.975C1591.86 323.859 1591.53 325.705 1590.87 327.512C1590.22 329.309 1589.32 330.91 1588.18 332.316C1587.04 333.713 1585.74 334.763 1584.3 335.466L1582.66 333.283C1583.96 332.658 1585.13 331.745 1586.19 330.544C1587.24 329.333 1588.07 327.98 1588.66 326.486C1589.27 324.982 1589.57 323.479 1589.57 321.975V318.078H1591.86V321.975ZM1592.38 321.975C1592.38 323.42 1592.68 324.855 1593.26 326.281C1593.86 327.707 1594.68 328.977 1595.74 330.09C1596.8 331.203 1598 332.048 1599.33 332.624L1597.79 334.807C1596.3 334.143 1594.98 333.156 1593.82 331.848C1592.67 330.539 1591.77 329.03 1591.12 327.321C1590.49 325.612 1590.17 323.83 1590.17 321.975V318.078H1592.38V321.975ZM1598.39 319.177H1583.58V316.892H1598.39V319.177ZM1604.48 340.476H1601.68V314.226H1604.48V340.476ZM1632.95 328.42H1608.93V326.281H1632.95V328.42ZM1629.99 336.037H1614.58V338.879H1611.8V334.191H1627.24V332.258H1611.77V330.236H1629.99V336.037ZM1630.81 340.168H1611.8V338.205H1630.81V340.168ZM1629.92 320.598H1614.77V323.249H1612.02V318.752H1627.14V316.877H1611.95V314.914H1629.92V320.598ZM1630.39 324.553H1612.02V322.604H1630.39V324.553ZM1663.1 322.634H1656.15V320.363H1663.1V322.634ZM1650.07 315.427C1651.37 315.407 1652.54 315.661 1653.58 316.188C1654.61 316.706 1655.43 317.434 1656.02 318.371C1656.62 319.299 1656.92 320.354 1656.92 321.535C1656.92 322.727 1656.62 323.791 1656.02 324.729C1655.43 325.656 1654.61 326.384 1653.58 326.911C1652.54 327.429 1651.37 327.688 1650.07 327.688C1648.75 327.688 1647.56 327.429 1646.52 326.911C1645.48 326.384 1644.66 325.656 1644.07 324.729C1643.48 323.791 1643.19 322.727 1643.19 321.535C1643.19 320.354 1643.48 319.299 1644.07 318.371C1644.66 317.434 1645.49 316.706 1646.53 316.188C1647.58 315.661 1648.77 315.407 1650.07 315.427ZM1650.07 317.771C1649.25 317.761 1648.52 317.912 1647.88 318.225C1647.24 318.537 1646.74 318.981 1646.38 319.558C1646.02 320.124 1645.84 320.783 1645.84 321.535C1645.84 322.277 1646.02 322.941 1646.38 323.527C1646.74 324.104 1647.24 324.553 1647.88 324.875C1648.52 325.197 1649.25 325.358 1650.07 325.358C1650.89 325.358 1651.61 325.197 1652.24 324.875C1652.88 324.553 1653.37 324.104 1653.72 323.527C1654.07 322.941 1654.25 322.277 1654.25 321.535C1654.25 320.783 1654.07 320.124 1653.72 319.558C1653.37 318.981 1652.88 318.537 1652.24 318.225C1651.61 317.912 1650.89 317.761 1650.07 317.771ZM1664.69 328.332H1661.91V314.226H1664.69V328.332ZM1650.35 332.653H1661.91V329.592H1664.69V340.153H1647.57V329.592H1650.35V332.653ZM1661.91 337.897V334.851H1650.35V337.897H1661.91ZM1693.06 337.341H1669.04V335.041H1693.06V337.341ZM1682.35 336.022H1679.63V329.621H1682.35V336.022ZM1690.12 324.289H1674.74V329.328H1671.97V322.062H1687.38V318.371H1671.92V316.101H1690.12V324.289ZM1690.73 330.412H1671.97V328.127H1690.73V330.412ZM1716.53 328.977H1698.25V326.706H1716.53V328.977ZM1719.29 337.033H1695.26V334.719H1719.29V337.033ZM1716.29 318.869H1701.01V327.688H1698.25V316.599H1716.29V318.869ZM1742.08 320.832H1729.06V318.591H1742.08V320.832ZM1735.59 322.399C1736.69 322.399 1737.68 322.658 1738.54 323.176C1739.4 323.684 1740.08 324.396 1740.57 325.314C1741.06 326.232 1741.3 327.282 1741.3 328.464C1741.3 329.636 1741.06 330.686 1740.57 331.613C1740.08 332.531 1739.4 333.254 1738.54 333.781C1737.68 334.309 1736.69 334.572 1735.59 334.572C1734.5 334.572 1733.52 334.309 1732.65 333.781C1731.79 333.254 1731.11 332.526 1730.63 331.599C1730.15 330.671 1729.91 329.626 1729.91 328.464C1729.91 327.302 1730.15 326.257 1730.63 325.329C1731.11 324.401 1731.79 323.684 1732.65 323.176C1733.52 322.658 1734.5 322.399 1735.59 322.399ZM1735.59 324.729C1734.98 324.729 1734.42 324.89 1733.92 325.212C1733.43 325.524 1733.05 325.964 1732.78 326.53C1732.51 327.087 1732.37 327.731 1732.37 328.464C1732.37 329.187 1732.51 329.831 1732.78 330.397C1733.06 330.964 1733.45 331.398 1733.94 331.701C1734.42 332.004 1734.98 332.155 1735.59 332.155C1736.22 332.155 1736.77 332.004 1737.26 331.701C1737.76 331.398 1738.15 330.964 1738.43 330.397C1738.72 329.831 1738.86 329.187 1738.86 328.464C1738.86 327.731 1738.72 327.087 1738.43 326.53C1738.15 325.964 1737.76 325.524 1737.26 325.212C1736.77 324.89 1736.22 324.729 1735.59 324.729ZM1751.59 340.476H1748.94V314.226H1751.59V340.476ZM1749.82 327.438H1745.01V325.168H1749.82V327.438ZM1745.92 339.245H1743.3V314.841H1745.92V339.245ZM1736.98 319.982H1734.23V315.002H1736.98V319.982ZM1775.79 317.946C1775.79 319.46 1775.32 320.852 1774.38 322.121C1773.44 323.391 1772.19 324.45 1770.62 325.3C1769.04 326.149 1767.29 326.726 1765.37 327.028L1764.3 324.846C1765.94 324.611 1767.46 324.152 1768.84 323.469C1770.23 322.785 1771.33 321.96 1772.14 320.993C1772.95 320.026 1773.35 319.011 1773.35 317.946V316.936H1775.79V317.946ZM1776.52 317.946C1776.52 319.011 1776.92 320.026 1777.72 320.993C1778.53 321.96 1779.63 322.785 1781.02 323.469C1782.41 324.152 1783.93 324.611 1785.57 324.846L1784.56 327.028C1782.63 326.726 1780.86 326.154 1779.27 325.314C1777.69 324.475 1776.43 323.415 1775.49 322.136C1774.57 320.856 1774.1 319.46 1774.1 317.946V316.936H1776.52V317.946ZM1776.25 340.49H1773.52V330.573H1776.25V340.49ZM1786.9 331.306H1762.97V329.035H1786.9V331.306ZM1784.66 318.02H1765.18V315.793H1784.66V318.02ZM1804.55 325.783H1799.63V323.454H1804.55V325.783ZM1796.68 321.521C1796.68 323.405 1796.44 325.227 1795.96 326.984C1795.5 328.742 1794.8 330.314 1793.88 331.701C1792.97 333.078 1791.86 334.162 1790.57 334.953L1788.83 332.873C1790.03 332.15 1791.06 331.188 1791.92 329.987C1792.78 328.776 1793.42 327.443 1793.85 325.988C1794.29 324.533 1794.51 323.044 1794.51 321.521V316.628H1796.68V321.521ZM1797.19 321.403C1797.19 322.858 1797.39 324.279 1797.8 325.666C1798.2 327.043 1798.79 328.308 1799.58 329.46C1800.38 330.612 1801.34 331.535 1802.47 332.229L1800.92 334.367C1799.65 333.605 1798.58 332.546 1797.71 331.188C1796.84 329.821 1796.18 328.303 1795.74 326.633C1795.31 324.963 1795.1 323.22 1795.1 321.403V316.628H1797.19V321.403ZM1811.78 340.476H1809.1V314.226H1811.78V340.476ZM1806.34 339.187H1803.71V314.724H1806.34V339.187ZM1823.92 335.407H1821.18V327.717H1823.92V335.407ZM1833.71 335.407H1830.91V327.717H1833.71V335.407ZM1839.45 337.209H1815.42V334.909H1839.45V337.209ZM1827.39 315.749C1829.27 315.749 1830.94 316.037 1832.4 316.613C1833.87 317.18 1835.01 317.985 1835.83 319.03C1836.66 320.065 1837.07 321.257 1837.07 322.604C1837.07 323.962 1836.66 325.158 1835.83 326.193C1835.01 327.219 1833.87 328.02 1832.4 328.596C1830.94 329.162 1829.27 329.445 1827.39 329.445C1825.53 329.445 1823.86 329.162 1822.38 328.596C1820.92 328.02 1819.77 327.219 1818.94 326.193C1818.11 325.158 1817.69 323.962 1817.69 322.604C1817.69 321.257 1818.11 320.065 1818.94 319.03C1819.77 317.985 1820.92 317.18 1822.38 316.613C1823.86 316.037 1825.53 315.749 1827.39 315.749ZM1827.39 318.005C1826.02 317.995 1824.81 318.181 1823.76 318.562C1822.71 318.933 1821.89 319.47 1821.3 320.173C1820.71 320.866 1820.42 321.677 1820.42 322.604C1820.42 323.532 1820.71 324.348 1821.3 325.051C1821.89 325.754 1822.72 326.301 1823.77 326.691C1824.83 327.082 1826.03 327.277 1827.39 327.277C1828.74 327.277 1829.94 327.082 1831 326.691C1832.05 326.301 1832.88 325.754 1833.47 325.051C1834.07 324.348 1834.36 323.532 1834.36 322.604C1834.36 321.677 1834.07 320.866 1833.47 320.173C1832.89 319.47 1832.06 318.933 1831.01 318.562C1829.96 318.181 1828.75 317.995 1827.39 318.005ZM1844.64 338.205C1844.27 338.205 1843.92 338.107 1843.6 337.912C1843.28 337.717 1843.02 337.463 1842.84 337.15C1842.66 336.828 1842.57 336.481 1842.57 336.11C1842.57 335.749 1842.66 335.407 1842.84 335.085C1843.02 334.763 1843.28 334.514 1843.6 334.338C1843.92 334.152 1844.27 334.06 1844.64 334.06C1845 334.06 1845.34 334.152 1845.67 334.338C1845.99 334.514 1846.24 334.763 1846.43 335.085C1846.61 335.407 1846.71 335.749 1846.71 336.11C1846.71 336.481 1846.61 336.828 1846.43 337.15C1846.24 337.463 1845.99 337.717 1845.67 337.912C1845.34 338.107 1845 338.205 1844.64 338.205Z" fill="black"/>
</g>
</g>
<g filter="url(#filter12_d_176_34181)">
<path d="M1313 175C1313 158.431 1326.43 145 1343 145H1373V385H1343C1326.43 385 1313 371.569 1313 355V175Z" fill="#F4F4F4"/>
</g>
</g>
<defs>
<filter id="filter0_d_176_34181" x="228" y="670" width="321" height="122" filterUnits="userSpaceOnUse" color-interpolation-filters="sRGB">
<feFlood flood-opacity="0" result="BackgroundImageFix"/>
<feColorMatrix in="SourceAlpha" type="matrix" values="0 0 0 0 0 0 0 0 0 0 0 0 0 0 0 0 0 0 127 0" result="hardAlpha"/>
<feOffset dy="4"/>
<feGaussianBlur stdDeviation="2"/>
<feComposite in2="hardAlpha" operator="out"/>
<feColorMatrix type="matrix" values="0 0 0 0 0 0 0 0 0 0 0 0 0 0 0 0 0 0 0.4 0"/>
<feBlend mode="normal" in2="BackgroundImageFix" result="effect1_dropShadow_176_34181"/>
<feBlend mode="normal" in="SourceGraphic" in2="effect1_dropShadow_176_34181" result="shape"/>
</filter>
<filter id="filter1_d_176_34181" x="228" y="536" width="321" height="122" filterUnits="userSpaceOnUse" color-interpolation-filters="sRGB">
<feFlood flood-opacity="0" result="BackgroundImageFix"/>
<feColorMatrix in="SourceAlpha" type="matrix" values="0 0 0 0 0 0 0 0 0 0 0 0 0 0 0 0 0 0 127 0" result="hardAlpha"/>
<feOffset dy="4"/>
<feGaussianBlur stdDeviation="2"/>
<feComposite in2="hardAlpha" operator="out"/>
<feColorMatrix type="matrix" values="0 0 0 0 0 0 0 0 0 0 0 0 0 0 0 0 0 0 0.25 0"/>
<feBlend mode="normal" in2="BackgroundImageFix" result="effect1_dropShadow_176_34181"/>
<feBlend mode="normal" in="SourceGraphic" in2="effect1_dropShadow_176_34181" result="shape"/>
</filter>
<filter id="filter2_d_176_34181" x="228" y="804" width="321" height="122" filterUnits="userSpaceOnUse" color-interpolation-filters="sRGB">
<feFlood flood-opacity="0" result="BackgroundImageFix"/>
<feColorMatrix in="SourceAlpha" type="matrix" values="0 0 0 0 0 0 0 0 0 0 0 0 0 0 0 0 0 0 127 0" result="hardAlpha"/>
<feOffset dy="4"/>
<feGaussianBlur stdDeviation="2"/>
<feComposite in2="hardAlpha" operator="out"/>
<feColorMatrix type="matrix" values="0 0 0 0 0 0 0 0 0 0 0 0 0 0 0 0 0 0 0.25 0"/>
<feBlend mode="normal" in2="BackgroundImageFix" result="effect1_dropShadow_176_34181"/>
<feBlend mode="normal" in="SourceGraphic" in2="effect1_dropShadow_176_34181" result="shape"/>
</filter>
<filter id="filter3_d_176_34181" x="228" y="402" width="321" height="122" filterUnits="userSpaceOnUse" color-interpolation-filters="sRGB">
<feFlood flood-opacity="0" result="BackgroundImageFix"/>
<feColorMatrix in="SourceAlpha" type="matrix" values="0 0 0 0 0 0 0 0 0 0 0 0 0 0 0 0 0 0 127 0" result="hardAlpha"/>
<feOffset dy="4"/>
<feGaussianBlur stdDeviation="2"/>
<feComposite in2="hardAlpha" operator="out"/>
<feColorMatrix type="matrix" values="0 0 0 0 0 0 0 0 0 0 0 0 0 0 0 0 0 0 0.4 0"/>
<feBlend mode="normal" in2="BackgroundImageFix" result="effect1_dropShadow_176_34181"/>
<feBlend mode="normal" in="SourceGraphic" in2="effect1_dropShadow_176_34181" result="shape"/>
</filter>
<filter id="filter4_d_176_34181" x="228" y="287" width="321" height="103" filterUnits="userSpaceOnUse" color-interpolation-filters="sRGB">
<feFlood flood-opacity="0" result="BackgroundImageFix"/>
<feColorMatrix in="SourceAlpha" type="matrix" values="0 0 0 0 0 0 0 0 0 0 0 0 0 0 0 0 0 0 127 0" result="hardAlpha"/>
<feOffset dy="4"/>
<feGaussianBlur stdDeviation="2"/>
<feComposite in2="hardAlpha" operator="out"/>
<feColorMatrix type="matrix" values="0 0 0 0 0 0 0 0 0 0 0 0 0 0 0 0 0 0 0.25 0"/>
<feBlend mode="normal" in2="BackgroundImageFix" result="effect1_dropShadow_176_34181"/>
<feBlend mode="normal" in="SourceGraphic" in2="effect1_dropShadow_176_34181" result="shape"/>
</filter>
<filter id="filter5_d_176_34181" x="766" y="559" width="321" height="89" filterUnits="userSpaceOnUse" color-interpolation-filters="sRGB">
<feFlood flood-opacity="0" result="BackgroundImageFix"/>
<feColorMatrix in="SourceAlpha" type="matrix" values="0 0 0 0 0 0 0 0 0 0 0 0 0 0 0 0 0 0 127 0" result="hardAlpha"/>
<feOffset dy="4"/>
<feGaussianBlur stdDeviation="2"/>
<feComposite in2="hardAlpha" operator="out"/>
<feColorMatrix type="matrix" values="0 0 0 0 0 0 0 0 0 0 0 0 0 0 0 0 0 0 0.25 0"/>
<feBlend mode="normal" in2="BackgroundImageFix" result="effect1_dropShadow_176_34181"/>
<feBlend mode="normal" in="SourceGraphic" in2="effect1_dropShadow_176_34181" result="shape"/>
</filter>
<filter id="filter6_d_176_34181" x="986" y="623" width="68" height="41" filterUnits="userSpaceOnUse" color-interpolation-filters="sRGB">
<feFlood flood-opacity="0" result="BackgroundImageFix"/>
<feColorMatrix in="SourceAlpha" type="matrix" values="0 0 0 0 0 0 0 0 0 0 0 0 0 0 0 0 0 0 127 0" result="hardAlpha"/>
<feOffset dy="4"/>
<feGaussianBlur stdDeviation="2"/>
<feComposite in2="hardAlpha" operator="out"/>
<feColorMatrix type="matrix" values="0 0 0 0 0 0 0 0 0 0 0 0 0 0 0 0 0 0 0.25 0"/>
<feBlend mode="normal" in2="BackgroundImageFix" result="effect1_dropShadow_176_34181"/>
<feBlend mode="normal" in="SourceGraphic" in2="effect1_dropShadow_176_34181" result="shape"/>
</filter>
<filter id="filter7_d_176_34181" x="766" y="461" width="321" height="122" filterUnits="userSpaceOnUse" color-interpolation-filters="sRGB">
<feFlood flood-opacity="0" result="BackgroundImageFix"/>
<feColorMatrix in="SourceAlpha" type="matrix" values="0 0 0 0 0 0 0 0 0 0 0 0 0 0 0 0 0 0 127 0" result="hardAlpha"/>
<feOffset dy="4"/>
<feGaussianBlur stdDeviation="2"/>
<feComposite in2="hardAlpha" operator="out"/>
<feColorMatrix type="matrix" values="0 0 0 0 0 0 0 0 0 0 0 0 0 0 0 0 0 0 0.25 0"/>
<feBlend mode="normal" in2="BackgroundImageFix" result="effect1_dropShadow_176_34181"/>
<feBlend mode="normal" in="SourceGraphic" in2="effect1_dropShadow_176_34181" result="shape"/>
</filter>
<filter id="filter8_d_176_34181" x="766" y="392" width="321" height="89" filterUnits="userSpaceOnUse" color-interpolation-filters="sRGB">
<feFlood flood-opacity="0" result="BackgroundImageFix"/>
<feColorMatrix in="SourceAlpha" type="matrix" values="0 0 0 0 0 0 0 0 0 0 0 0 0 0 0 0 0 0 127 0" result="hardAlpha"/>
<feOffset dy="4"/>
<feGaussianBlur stdDeviation="2"/>
<feComposite in2="hardAlpha" operator="out"/>
<feColorMatrix type="matrix" values="0 0 0 0 0 0 0 0 0 0 0 0 0 0 0 0 0 0 0.25 0"/>
<feBlend mode="normal" in2="BackgroundImageFix" result="effect1_dropShadow_176_34181"/>
<feBlend mode="normal" in="SourceGraphic" in2="effect1_dropShadow_176_34181" result="shape"/>
</filter>
<filter id="filter9_d_176_34181" x="986" y="456" width="68" height="41" filterUnits="userSpaceOnUse" color-interpolation-filters="sRGB">
<feFlood flood-opacity="0" result="BackgroundImageFix"/>
<feColorMatrix in="SourceAlpha" type="matrix" values="0 0 0 0 0 0 0 0 0 0 0 0 0 0 0 0 0 0 127 0" result="hardAlpha"/>
<feOffset dy="4"/>
<feGaussianBlur stdDeviation="2"/>
<feComposite in2="hardAlpha" operator="out"/>
<feColorMatrix type="matrix" values="0 0 0 0 0 0 0 0 0 0 0 0 0 0 0 0 0 0 0.25 0"/>
<feBlend mode="normal" in2="BackgroundImageFix" result="effect1_dropShadow_176_34181"/>
<feBlend mode="normal" in="SourceGraphic" in2="effect1_dropShadow_176_34181" result="shape"/>
</filter>
<filter id="filter10_d_176_34181" x="766" y="294" width="321" height="122" filterUnits="userSpaceOnUse" color-interpolation-filters="sRGB">
<feFlood flood-opacity="0" result="BackgroundImageFix"/>
<feColorMatrix in="SourceAlpha" type="matrix" values="0 0 0 0 0 0 0 0 0 0 0 0 0 0 0 0 0 0 127 0" result="hardAlpha"/>
<feOffset dy="4"/>
<feGaussianBlur stdDeviation="2"/>
<feComposite in2="hardAlpha" operator="out"/>
<feColorMatrix type="matrix" values="0 0 0 0 0 0 0 0 0 0 0 0 0 0 0 0 0 0 0.25 0"/>
<feBlend mode="normal" in2="BackgroundImageFix" result="effect1_dropShadow_176_34181"/>
<feBlend mode="normal" in="SourceGraphic" in2="effect1_dropShadow_176_34181" result="shape"/>
</filter>
<filter id="filter11_d_176_34181" x="1362" y="40" width="558" height="1048" filterUnits="userSpaceOnUse" color-interpolation-filters="sRGB">
<feFlood flood-opacity="0" result="BackgroundImageFix"/>
<feColorMatrix in="SourceAlpha" type="matrix" values="0 0 0 0 0 0 0 0 0 0 0 0 0 0 0 0 0 0 127 0" result="hardAlpha"/>
<feOffset dx="-7" dy="4"/>
<feGaussianBlur stdDeviation="2"/>
<feComposite in2="hardAlpha" operator="out"/>
<feColorMatrix type="matrix" values="0 0 0 0 0 0 0 0 0 0 0 0 0 0 0 0 0 0 0.25 0"/>
<feBlend mode="normal" in2="BackgroundImageFix" result="effect1_dropShadow_176_34181"/>
<feBlend mode="normal" in="SourceGraphic" in2="effect1_dropShadow_176_34181" result="shape"/>
</filter>
<filter id="filter12_d_176_34181" x="1302" y="145" width="71" height="248" filterUnits="userSpaceOnUse" color-interpolation-filters="sRGB">
<feFlood flood-opacity="0" result="BackgroundImageFix"/>
<feColorMatrix in="SourceAlpha" type="matrix" values="0 0 0 0 0 0 0 0 0 0 0 0 0 0 0 0 0 0 127 0" result="hardAlpha"/>
<feOffset dx="-7" dy="4"/>
<feGaussianBlur stdDeviation="2"/>
<feComposite in2="hardAlpha" operator="out"/>
<feColorMatrix type="matrix" values="0 0 0 0 0 0 0 0 0 0 0 0 0 0 0 0 0 0 0.25 0"/>
<feBlend mode="normal" in2="BackgroundImageFix" result="effect1_dropShadow_176_34181"/>
<feBlend mode="normal" in="SourceGraphic" in2="effect1_dropShadow_176_34181" result="shape"/>
</filter>
<clipPath id="clip0_176_34181">
<rect width="1920" height="1080" fill="white"/>
</clipPath>
<clipPath id="clip1_176_34181">
<rect x="715" y="208" width="493" height="799" rx="30" fill="white"/>
</clipPath>
<clipPath id="clip2_176_34181">
<rect width="24" height="24" fill="white" transform="translate(741 228)"/>
</clipPath>
<clipPath id="clip3_176_34181">
<rect width="24" height="24" fill="white" transform="matrix(-1 0 0 1 805 228)"/>
</clipPath>
<clipPath id="clip4_176_34181">
<rect width="24" height="24" fill="white" transform="translate(741 228)"/>
</clipPath>
<clipPath id="clip5_176_34181">
<rect width="24" height="24" fill="white" transform="matrix(-1 0 0 1 805 228)"/>
</clipPath>
<clipPath id="clip6_176_34181">
<rect x="1138" y="838" width="45" height="130" rx="22.5" fill="white"/>
</clipPath>
<clipPath id="clip7_176_34181">
<rect x="1239" y="208" width="493" height="799" rx="30" fill="white"/>
</clipPath>
<clipPath id="clip8_176_34181">
<rect x="1662" y="838" width="45" height="130" rx="22.5" fill="white"/>
</clipPath>
<clipPath id="clip9_176_34181">
<rect width="1920" height="40" fill="white"/>
</clipPath>
<clipPath id="clip10_176_34181">
<rect width="1920" height="40" fill="white"/>
</clipPath>
<clipPath id="clip11_176_34181">
<rect width="18" height="18" fill="white" transform="translate(1891 11)"/>
</clipPath>
<clipPath id="clip12_176_34181">
<path d="M1373 70C1373 53.4314 1386.43 40 1403 40H1920V1080H1403C1386.43 1080 1373 1066.57 1373 1050V70Z" fill="white"/>
</clipPath>
</defs>
</svg>
